<svg id="Layer_1" data-name="Layer 1" xmlns="http://www.w3.org/2000/svg" viewBox="0 0 501.45 500"><defs><style>.cls-1{fill:#efb659;}.cls-2{fill:#ec7f6e;}.cls-3{fill:#ffc7c8;}.cls-4{fill:#da5b5c;}.cls-5{fill:#ffeedc;}</style></defs><title>Bacon</title><g id="Layer_2" data-name="Layer 2"><rect class="cls-1" width="501.45" height="500"/></g><g id="Layer_1-2" data-name="Layer 1"><g id="Layer_2-2" data-name="Layer 2"><path class="cls-2" d="M347.13,419.84s-51.14-13.26-63.57-27.7S259.17,369,254.43,357.56s-19.89-28.06-19.89-28.06L218,310.45l-18.35-10.89-22.49-4.14S156.88,285,157.35,275c0,0-2.37-16.93-13.14-21S116,238.82,116,238.82L95,236.33s-18.11-13.85-20.72-20-9.47-6.27-9.47-6.27-8.41-2.72-7.81-11.72,8.17-17.64,8.17-17.64l35.28-10.89,96.13,40.84,63,63.93L270.06,266l40.25,43.33,44.28,20.84,72.93,48.18a246.07,246.07,0,0,1-52.68,43.09,17.18,17.18,0,0,1-6.27,2.72C364.06,424.93,357.07,424.57,347.13,419.84Z"/><path class="cls-3" d="M384.89,415.1,377.32,420l-23.56-8.52s-36.46-21-38.83-22.38-16.81-4.5-25.81-32.44,2.84-23.09-51.5-61l-37.17-19.77s-6.51-2.25-5.56-14.21-6.27-28.53-20.48-34.81c0,0-9.71-7.34-24.74-1.54l-32.08-11.25c-20.36-.83-29-6.75-33.27-12.08-2-2.49-3.55-5.68-7.81-7.7-7.93-3.91-16.93.47-18.11-2.25-.36-.83.59-2.37,2.49-5.45a30.65,30.65,0,0,1,4.38-5.92l22.61-6.75,50.67,7.58,72.22,43,49.84,42.86,13,1.66Z"/><path class="cls-4" d="M407.15,398.76l22.61-22.38s7.81-4-4-15.51l-23.8-9.59s-30.07-18.59-32-22.14c-1.89-3.31-17.88-16.93-34.45-20.48s-27.58-16.34-31.25-27.23c0,0-1.89-11.13-27-25.34l-23.8-9.59s-12.43-6.63-18.35-14.8c-3.43-4.85-6.75-9.83-9.71-15a50.87,50.87,0,0,0-19.77-16.34l-20.84-5.45-18.35-7.1s-15.15-5.92-21.55-15.86c-8.17-12.79-25.69-16.93-26.4-16-.12.12,0,.12,0,.24-.71,1.18-15.75-10.77-27.11-6.75-2.6.83-4.74,3-9,7.1-3.91,3.67-6.16,7.22-10.77,13.85-1.89,2.6-4,5.92-6.51,9.94,0,0,11.72,0,13.5-.47s9-3.2,11.37-.95,5-3.2,20,13.38c0,0,9.23,5.45,16,1.78s14.44-8.52,17.4-.47c0,0-4.74,15.75,3.2,16.81s29.6,5.21,29.6,5.21,23.8,9.59,24.39,19.18c0,0,4.14.83,1.89,15.15,0,0-5.92,15.15,1.89,18.94s9.47-1.42,12.79.59,9.71,11.13,9.71,11.13c6.75,5.45,11.84,6.16,15.15,5.92,1.42-.12,4.62-.95,10.89-2.84.24.47,3.43,6,9.47,6.27,6.87.36,12.55-6.87,11.84-11.6s-8.41-7-7.93-7.93c.36-.71,4.26-.24,7.34,2,.71.47,3.08,2.37,5.45,8.41a40,40,0,0,1,2.84,12.79l6.75,22.61a187.63,187.63,0,0,0,25.57,54.93c2.49,2.25,17.28,15.27,21.55,12.08a5.81,5.81,0,0,0,1.66-3c1.07-4.14-2.13-7.81-2.6-8.41-4-2.84-9.83-7.1-16.81-12.43-8.41-6.51-14.44-11.13-15.15-17.52-.12-1.18-.12-2.6-.12-3.91.24-4.62,1.66-10.54,3.2-10.65s1.66,5.09,5,11.37a36.31,36.31,0,0,0,8.41,10.54s7.1,9,13.73,12.08,21.07,14.21,15.86,20.36-.36,17.64,8.29,21.19,25.93,9.94,25.93,9.94l1.42,1.66c4-3,8.05-5.92,12.31-9,3.08-2.25,6-4.26,9.23-6.16L394,379s-6.75-14.92-13.73-16c0,0-27.94-10.42-29.83-9.94s-23.2-10.65-28.77-32.68l14.09,16.93,25.93,13.85,24,10.42,13.5,15Z"/><path class="cls-5" d="M324.28,330.1a63.9,63.9,0,0,0,21.9,24.74,37.36,37.36,0,0,0,11.72,5.21c1.78.47,3,.59,3.43.71,6.63.95,17.17,5.09,22.73,8.76,14.8,9.94,13.85,31,20.48,30.78,1.78,0,3.08-1.54,4.14-3a39.09,39.09,0,0,1-2.25-5.09c-.83-2.6-1.66-5.33-2.25-8.05-1.78-5.33-3.55-10.18-7.58-14.92s-8.17-7-15.39-10.65c-1.18-.59-2.6-1.42-15.39-6.87-21.9-8.29-32.32-18-37.65-25.45-1.78-2.49-5.8-8.52-7-7.93S322.15,325.13,324.28,330.1Z"/><path class="cls-5" d="M351.51,421.61l-27.58-8.52a115.77,115.77,0,0,1-46.29-25.22s-12.9-8.41-31-41.79a229.63,229.63,0,0,0-49.84-42.86c-4.38-1.54-9.12-3.08-14.09-5.21-4.38-1.89-8.41-3.67-12.19-5.68A29.46,29.46,0,0,1,157.59,280a26.94,26.94,0,0,1-3.2-12.79,26.31,26.31,0,0,0-5.45-7.93,29.37,29.37,0,0,0-8.76-5.92c-7.34-3.67-9.94-3-16.22-6.63-4-2.25-3.91-3-7.1-5-8.17-5.09-13.85-3.31-23.8-5.56a58.85,58.85,0,0,1-22.38-10.89c-6-4.62-14.44-10.65-14.68-19.65a18.7,18.7,0,0,1,.59-5.09,103.88,103.88,0,0,0,51.85,23.8s16.22,2.72,30.54,8.76c0,0,21.78,5.21,27.35,19.42s.95,23.09,23.2,34A70.05,70.05,0,0,1,216,298.37c7.34,5.33,9.35,9.12,19.53,19.42,17,17.28,17.64,13.14,25.34,22.85,11,13.85,8.29,20.72,21.9,36.35a88.64,88.64,0,0,0,11.72,11.37,99.91,99.91,0,0,0,21,13.38Z"/></g><g id="Layer_3" data-name="Layer 3"><path class="cls-2" d="M345.94,404.56s-45.7-26.4-53.87-43.69-17.4-28.65-18.94-41-11.6-32.44-11.6-32.44l-10.77-22.85-14.68-15.51-20.6-9.94s-16.69-15.51-13.61-24.86c0,0,2.25-17-7.1-23.68-9.35-6.87-23.09-22.26-23.09-22.26L152,160.45s-13.73-18.23-14.56-24.86-7.34-8.64-7.34-8.64-7.46-4.85-4.5-13.26,12.55-14.92,12.55-14.92l36.94-1.07,81.69,65.11,43.57,78.49,12.43-5.45L340,288.43l37.17,32.08,57.42,65.94a246.93,246.93,0,0,1-62.15,27.47,17.13,17.13,0,0,1-6.87.83C360.86,414.15,354.35,411.9,345.94,404.56Z"/><path class="cls-3" d="M383.59,410.25l-8.52,2.6-20.48-14.68s-29.6-30-31.37-32-14.92-8.76-16.1-38.12,9-21.43-33.39-72.57l-30.54-29s-5.56-3.91-1.66-15.15,1.66-29.36-10.42-38.95c0,0-7.34-9.59-23.44-8.05l-27.94-19.53c-19.42-6.16-26.16-14.21-28.77-20.48-1.18-2.84-2-6.51-5.45-9.59-6.75-5.8-16.34-4.14-16.93-7-.12-.83,1.18-2.13,3.91-4.62a69.2,69.2,0,0,1,5.68-4.62l23.56-.36L208.38,119l58.25,60.85,36.58,54.58,12.19,5Z"/><path class="cls-4" d="M409.4,400.3l27.7-15.39s8.52-1.78.36-16l-20.6-15.63s-23.91-26-24.86-29.83-12.79-21.07-27.7-28.89S342,271.5,341.45,260c0,0,1.18-11.25-19.18-31.49L301.79,213s-10.18-9.71-13.73-19.3a137.56,137.56,0,0,1-5.33-17.17A50.43,50.43,0,0,0,268,155.47L249.46,144.7,233.71,133s-13-9.83-16.46-21.19C212.76,97.23,197,88.7,196.18,89.3c-.12.12,0,.12-.12.24-.95.95-12.31-14.56-24.27-13.73-2.72.24-5.33,1.66-10.42,4.5-4.74,2.6-7.93,5.33-14.21,10.54-2.49,2.13-5.45,4.74-9,7.81,0,0,11.25,3.08,13.14,3.08s9.47-.71,11.25,2.13,5.68-1.78,15.63,18.23c0,0,7.34,7.7,15,5.92s16.1-4.38,16.93,4.14c0,0-8.76,14.09-1.42,17s27.11,12.9,27.11,12.9,20.48,15.51,18.35,25c0,0,3.67,2-2.25,15,0,0-9.71,13-3.2,18.71s9.47,1.07,12.19,4.14c2.72,2.84,6.27,13.38,6.27,13.38,5,7,9.71,9.12,13,9.71,1.42.24,4.74.24,11.25.24.12.47,1.78,6.87,7.34,8.64,6.63,2.13,13.85-3.2,14.44-7.93s-6.16-9-5.56-9.83c.47-.59,4.14.83,6.63,4,.47.71,2.37,3.08,3,9.71a47.9,47.9,0,0,1-.59,13l.36,23.56a179.43,179.43,0,0,0,10.06,59.67c1.78,2.72,12.55,19.42,17.64,17.4,1.18-.47,2.25-2.25,2.49-2.49,2.13-3.67.12-8.17-.24-8.76-3.08-3.91-7.46-9.47-12.79-16.46-6.51-8.41-10.89-14.68-9.94-20.84a20.93,20.93,0,0,1,.95-3.67c1.54-4.38,4.5-9.83,5.92-9.35s.24,5.33,1.78,12.31a35,35,0,0,0,5.33,12.43s4.5,10.42,10.06,15.27,16.69,19.3,9.94,23.8-5.09,16.93,2.37,22.73S383,408.23,383,408.23l.83,1.89c4.62-1.89,9.35-3.55,14.33-5.33,3.55-1.18,7.1-2.49,10.42-3.55l-6-22.85s-2.49-16.1-9.12-19.18c0,0-24.27-17.52-26-17.64s-19.53-16.46-18.94-39.07l9,20,21.19,20.24,20.48,16.46,9.12,18.11Z"/><path class="cls-5" d="M348,312.1a62.05,62.05,0,0,0,14.56,29.6,38,38,0,0,0,9.83,8.05c1.54.83,2.72,1.42,3.2,1.66,5.92,2.72,15.15,9.59,19.53,14.68,11.72,13.5,5.09,33.62,11.6,35.28,1.66.36,3.31-.59,4.74-1.78a44.7,44.7,0,0,1-.71-5.56c-.12-2.84-.12-5.56,0-8.41-.24-5.56-.83-10.77-3.2-16.34s-6-8.76-12-14.44c-.95-.95-2.25-2-13-10.65C363.7,330.45,356.36,318.26,353,309.5c-.95-2.84-3.2-9.83-4.5-9.59C347,300,347.13,306.78,348,312.1Z"/><path class="cls-5" d="M349.61,407.52,325.35,391.9a118.48,118.48,0,0,1-38-36.7s-10.18-11.6-18.71-48.54a233,233,0,0,0-36.58-54.58c-3.91-2.6-7.93-5.45-12.08-8.76-3.67-3-7.1-5.8-10.18-8.64a28.34,28.34,0,0,1-9.12-15.27,28.93,28.93,0,0,1,.24-13.14A26.12,26.12,0,0,0,190.86,189c-6-5.56-8.76-5.56-13.85-10.65-3.2-3.2-2.84-3.91-5.45-6.75-6.63-7.1-12.55-7-21.43-11.84a57.35,57.35,0,0,1-18.47-16.46c-4.62-6-11-14.21-9-22.85a15,15,0,0,1,2-4.74,105,105,0,0,0,15.63,18.23,102.36,102.36,0,0,0,27.94,18.47s15,7,27.11,16.69c0,0,19.65,10.77,21.07,25.93s-5.21,22.61,13.26,38.95a72.57,72.57,0,0,1,22.26,18.47c5.56,7.1,6.63,11.25,13.61,23.91,11.84,21.07,13.5,17.4,18.23,28.65,6.87,16.34,2.49,22.26,11.37,40.84a105.25,105.25,0,0,0,8.17,14.21A99.31,99.31,0,0,0,320,378.64Z"/></g></g></svg>