<?xml version="1.0" encoding="utf-8"?>
<!-- Generator: Adobe Illustrator 21.1.0, SVG Export Plug-In . SVG Version: 6.00 Build 0)  -->
<svg version="1.1" id="Layer_1" xmlns="http://www.w3.org/2000/svg" xmlns:xlink="http://www.w3.org/1999/xlink" x="0px" y="0px"
	 viewBox="0 0 500 500" style="enable-background:new 0 0 500 500;" xml:space="preserve">
<style type="text/css">
	.st0{fill:#F76C82;}
	.st1{display:none;}
	.st2{display:inline;fill:#F4D684;}
	.st3{display:inline;fill:#F4CC69;}
	.st4{display:inline;fill:#FDE482;}
	.st5{display:inline;fill:#F9F5EA;}
	.st6{display:inline;fill:none;stroke:#D8CCAF;stroke-linecap:round;stroke-miterlimit:10;stroke-dasharray:2,5;}
	.st7{display:inline;fill:#E86279;}
	.st8{display:inline;fill:#FFFFFF;}
	.st9{display:inline;fill:#F7D984;}
	.st10{display:inline;fill:#F7E7B0;}
	.st11{display:inline;fill:#F2D386;}
	.st12{display:inline;fill:#F7D361;}
	.st13{display:inline;fill:#F2CE68;}
	.st14{display:inline;fill:none;stroke:#D8CCAF;stroke-miterlimit:10;stroke-dasharray:2,5;}
	.st15{display:inline;fill:none;stroke:#000000;stroke-width:2;stroke-miterlimit:10;}
	.st16{display:inline;}
	.st17{fill:#E26161;}
	.st18{display:inline;fill:#FFF0F0;}
	.st19{display:inline;fill:#FCDF56;}
	.st20{display:inline;fill:#F4CA40;}
	.st21{display:inline;fill:#352B01;}
	.st22{display:inline;fill:#8E8354;}
	.st23{fill:#F4ABE0;}
	.st24{fill:#DB4BB9;}
	.st25{fill:#EDC8E5;}
	.st26{display:none;fill:#DB4BB9;}
	.st27{fill:#D88FCE;}
	.st28{fill:#D166BD;}
	.st29{fill:#AF5FA0;}
	.st30{fill:#EEEEEE;}
	.st31{fill:#CECCCE;}
	.st32{fill:#DDDDDD;}
	.st33{display:inline;fill:#CC2967;}
	.st34{fill:#D9DBD9;}
	.st35{display:inline;fill:#DB2C66;}
	.st36{display:inline;fill:#3DC4E8;}
	.st37{display:inline;fill:#28ABC9;}
	.st38{display:inline;fill:#9F37AA;}
	.st39{display:inline;fill:#AE3DB7;}
	.st40{display:inline;fill:#D1C374;}
	.st41{display:inline;fill:#E7F5F7;}
	.st42{display:inline;fill:#C6AB0A;}
	.st43{display:inline;fill:#E4F5F9;}
	.st44{display:inline;fill:#F9B5BF;}
	.st45{display:inline;fill:#FDBFCA;}
	.st46{display:inline;fill:none;stroke:#EFA5B3;stroke-width:3;stroke-miterlimit:10;}
	.st47{fill:#B7B6B6;}
	.st48{fill:#FFFFFF;}
	.st49{display:inline;fill:none;stroke:#F2F2F2;stroke-width:4;stroke-miterlimit:10;}
	.st50{fill:#C9C9C9;}
	.st51{display:inline;fill:#D3D1D1;}
	.st52{fill:#EFEFEF;}
	.st53{fill:#EDEDED;}
	.st54{display:inline;opacity:0.49;fill:#00C9FF;enable-background:new    ;}
	.st55{fill:#F4E5D0;}
	.st56{fill:#931D1D;stroke:#C7B299;stroke-miterlimit:10;}
	.st57{fill:#AA1717;stroke:#C69C6D;stroke-miterlimit:10;}
	.st58{fill:#E5D0B7;stroke:#C7B299;stroke-miterlimit:10;}
	.st59{display:inline;fill:#E5DEDC;stroke:#2B2B2B;stroke-miterlimit:10;}
	.st60{display:inline;fill:#2D2823;}
	.st61{display:inline;fill:#931D1D;stroke:#C7B299;stroke-miterlimit:10;}
	.st62{display:inline;fill:#AA1717;stroke:#C69C6D;stroke-miterlimit:10;}
	.st63{display:inline;fill:#FFEC66;}
	.st64{display:inline;fill:#F2EFE7;}
	.st65{display:inline;fill:#C98F4F;}
	.st66{fill:#D8D8D8;}
	.st67{display:inline;fill:none;stroke:#E23B53;stroke-width:7;stroke-miterlimit:10;}
	.st68{display:inline;fill:#D87C92;}
	.st69{display:inline;fill:#E23B53;}
	.st70{display:inline;fill:none;stroke:#DB0F0F;stroke-width:7;stroke-miterlimit:10;}
	.st71{display:inline;fill:#DB0F0F;}
	.st72{display:inline;fill:none;stroke:#000000;stroke-width:7;stroke-miterlimit:10;}
</style>
<g id="Layer_2_1_">
	<rect class="st0" width="500" height="500"/>
</g>
<g id="Layer_1_2_">
	<g id="Layer_1_1_" class="st1">
		<path class="st2" d="M184,179v72h29v-72c-0.5-1.3-1.2-2.7-2.1-4.1c-2.9-4.7-6.7-7.7-9.4-9.4c-2.2-6.8-4.8-16.8-6-29
			c-1.7-17.6-5.2-52.3,15-77c21.4-26.1,65.8-36.9,98-19c38.5,21.4,53.6,80.5,22,127c-1.4,0.3-3.2,0.8-5,2c-5.8,3.8-6.8,10.7-7,12
			c-0.2,23.8-0.3,47.7-0.5,71.5h30c0.2-22.5,0.3-45,0.5-67.5c0.1-1.6,0.4-6.9-3-12c-2.6-3.9-5.9-5.7-7.5-6.5
			c4.8-7.7,11.3-20.1,14.5-36.5c1.7-8.6,10.7-60.3-24-91c-24.6-21.7-56.3-19.8-70-19c-15.4,0.9-33.3,2-47,15c0,0-17,16.1-24,54
			c0,0.1,0,0.2,0,0.2c-0.1,0.7-0.3,2.3-1.5,12.3c0,9.2,0.5,19.3,1.5,30c1.2,12.2,3,23.4,5,33.5c-1.3,0.7-2.9,1.7-4.5,3.5
			C184.6,172.9,184.1,177.3,184,179z"/>
		<path class="st3" d="M92,473c0.7-120.6,1.4-241.1,2.1-361.7c0.9-5.8,3.1-13.4,9.3-18.7c7.5-6.4,17.1-6.2,20.7-6.2
			c162.8,0.5,244.3,0.8,250.8,0c3-0.4,13.4-1.9,19.7,4.1c4.4,4.2,5,10.4,5.2,13.5c0.9,15.4,3,164.8,5.2,368.9
			C300.7,473,196.3,473,92,473z"/>
		<path class="st3" d="M103,106c1.4-5.5,4.7-15.5,13-25c5.7-6.5,11.7-10.6,16-13c86.7,1,173.3,2,260,3c1.4-0.3,12.8-2.1,22,6
			c6.9,6.2,10,15.7,8,25c-0.7,110.3-1.3,220.7-2,331c-7,11.3-14,22.7-21,34C300.3,346.7,201.7,226.3,103,106z"/>
		<path class="st4" d="M97,467c0.7-116.3,1.3-232.7,2-349c0.9-5.6,3-12.9,9-18c7.2-6.1,16.5-6,20-6c157.1,0.5,235.7,0.8,242,0
			c2.9-0.3,12.9-1.8,19,4c4.2,4.1,4.8,10,5,13c0.8,14.9,2.9,159,5,356C298.3,467,197.7,467,97,467z"/>
		<circle class="st5" cx="243.8" cy="206.8" r="38"/>
		<circle class="st6" cx="243.8" cy="206.8" r="35"/>
		<path class="st7" d="M229,191v15c0,0,7,6,6,6l2,5h2c0,0,1-4,2-5s3-4,4-5c0,0,4-4,1-10c0,0,4,1,3,5c0,0,0,4-2,6s-6,5-6,10s-9,2-9,2
			s2,4,13,7c0,0,13-2,16-10c0,0,6-11-2-20c0,0-8-8-11-6h-1v-3l-3,2c0,0-7,1-8,2s0,1,0,1s5-1,6,0s-1,2-1,2s-3-3-8,0L229,191z"/>
		<ellipse transform="matrix(0.578 -0.816 0.816 0.578 -69.8439 278.3908)" class="st8" cx="234.3" cy="206.7" rx="0.6" ry="1.1"/>
		<path class="st3" d="M161,179v72h29v-72c-0.5-1.3-1.2-2.7-2.1-4.1c-2.9-4.7-6.7-7.7-9.4-9.4c-2.2-6.8-4.8-16.8-6-29
			c-1.7-17.6-5.2-52.3,15-77c21.4-26.1,65.8-36.9,98-19c38.5,21.4,53.6,80.5,22,127c-1.4,0.3-3.2,0.8-5,2c-5.8,3.8-6.8,10.7-7,12
			c-0.2,23.8-0.3,47.7-0.5,71.5h30c0.2-22.5,0.3-45,0.5-67.5c0.1-1.6,0.4-6.9-3-12c-2.6-3.9-5.9-5.7-7.5-6.5
			c4.8-7.7,11.3-20.1,14.5-36.5c1.7-8.6,10.7-60.3-24-91c-24.6-21.7-56.3-19.8-70-19c-15.4,0.9-33.3,2-47,15c0,0-17,16.1-24,54
			c0,0.1,0,0.2,0,0.2c-0.1,0.7-0.3,2.3-1.5,12.3c0,9.2,0.5,19.3,1.5,30c1.2,12.2,3,23.4,5,33.5c-1.3,0.7-2.9,1.7-4.5,3.5
			C161.6,172.9,161.1,177.3,161,179z"/>
		<rect x="166" y="179" class="st9" width="22" height="69"/>
		<polygon class="st10" points="167,247.8 166,247.5 187.7,178.8 188.7,179.1 		"/>
		<polygon class="st10" points="187.7,247.8 188.7,247.5 167,178.8 166,179.1 		"/>
		<rect x="301" y="181" class="st9" width="22" height="69"/>
		<polygon class="st10" points="302,249.8 301,249.5 322.7,180.8 323.7,181.1 		"/>
		<polygon class="st10" points="322.7,249.8 323.7,249.5 302,180.8 301,181.1 		"/>
		<path class="st9" d="M354.2,420H141.8c-3.2,0-5.8-2.6-5.8-5.8c-3.1-26.5-4.9-56.5-4-89.2c0.4-16.2,1.5-31.5,3-46
			c1.7-0.3,3.3-0.7,5-1c72.3,0.3,144.7,0.7,217,1c2.2,4.8,4.9,12.1,5,21c0.1,7.9-1.8,13.3-3,18c-2.5,9.7-2,15.6-1,38
			c0.7,15.6,1.3,33.9,2,58.2C358.1,416.1,356.1,418.1,354.2,420z"/>
		<path class="st4" d="M155,302c-4.4,0-8,3.1-8,6.8v25c0,3.8,3.6,6.8,8,6.8s8-3.1,8-6.8v-25C163,305.1,159.4,302,155,302z
			 M155,336.2c-3.1,0-5.7-3.1-5.7-6.9s2.5-6.9,5.7-6.9s5.7,3.1,5.7,6.9S158.1,336.2,155,336.2z"/>
		<rect x="136" y="321" class="st11" width="224" height="4"/>
		<path class="st4" d="M360,323v-44.2c0-3.2-2.6-5.8-5.8-5.8H141.8c-3.2,0-5.8,2.6-5.8,5.8V323H360z"/>
		<path class="st12" d="M-168,282c1,7.3,2,14.7,3,22c75,0,150,0,225,0c-1.7-7.7-3.3-15.3-5-23C-19.3,281.3-93.7,281.7-168,282z"/>
		<path class="st13" d="M79,212c-1.3,7.3-2.7,14.7-4,22c-27.9,5-61.3,8.8-99,9c-46.9,0.2-87.5-5.3-120-12c-2.3-0.7-4.7-1.3-7-2
			c1-12.7,2-25.3,3-38c0.7,6.3,1.3,12.7,2,19C-71,210.7,4,211.3,79,212z"/>
		<path class="st14" d="M-108,342.9c76.5,0.2,153,0.4,229.5,0.6"/>
		<path class="st12" d="M242,14c1,1-16,20,0,27h21c0,0,8-25,0-27S242,14,242,14z"/>
		<path class="st2" d="M220,97c-3.3,0-6,2.3-6,5.1v18.8c0,2.8,2.7,5.1,6,5.1s6-2.3,6-5.1v-18.8C226,99.3,223.3,97,220,97z
			 M220,122.6c-2.3,0-4.3-2.3-4.3-5.2c0-2.9,1.9-5.2,4.3-5.2s4.3,2.3,4.3,5.2C224.3,120.3,222.3,122.6,220,122.6z"/>
		<path class="st2" d="M236,97c-3.3,0-6,2.3-6,5.1v18.8c0,2.8,2.7,5.1,6,5.1s6-2.3,6-5.1v-18.8C242,99.3,239.3,97,236,97z
			 M236,122.6c-2.3,0-4.3-2.3-4.3-5.2c0-2.9,1.9-5.2,4.3-5.2s4.3,2.3,4.3,5.2C240.3,120.3,238.3,122.6,236,122.6z"/>
		<path class="st3" d="M-307,330c-7,0-14,0-21,0c-5.1-32.9-6.4-59.6-6.8-77.1c-0.9-43.1,3.9-53.5,3.7-107.4
			c-0.1-36.3-2.1-39.6-2-73.2c0.2-36.9,2.8-66.7,4.9-85.9c2.6-3.8,7.2-9.3,14.6-12.7c7.6-3.5,14.7-3.2,18.5-2.9
			c6.7,0.4,11.7,0.6,13.1,0.8c14.1,2,25.2-0.2,50.9-1.6c16-0.9,27.9-0.9,39-1c34.7-0.2,33.8,2.3,57.1,1.8
			c28.2-0.6,35.2-3.9,67.4-3.9c20,0,29.8,1.1,38.1,7.8c12.2,9.9,13.8,26.5,14.6,36.1C-7.3,98.4-9,129.9-9,129.9
			c-1.5,28.5-3.4,54.7-5.9,104.4c-0.5,9.7,2.5,33,2,65.4c-0.2,12.8-0.7,23.3-1.1,30.3c-6.7,0-13.3,0-20,0
			c-0.6-40.6,0.5-73.3,1.6-95.7c1.6-32.8,4.9-40.8,3.9-73.2c-1-31.8-0.6-57.4,0-75.2c0.1-3.6-0.3-21.9-1-58.6
			C-30,4-30.4-7.8-38.3-14.7c-9.2-8-23-5.4-33.2-3.9c-30.3,4.4-61.2-0.5-91.8,0c-64.7,1.1-97.1,1.6-106.4,0
			c-1.9-0.3-13.2-2.4-27.3,0c-5.6,0.9-8.4,1.4-10.7,2.9c-11.8,7.7-4.9,36.9-2,54.7c5.4,32.1-1.4,65.1-2,97.6
			c-0.9,57.2-1.3,85.8-1,99.6C-311.7,275.6-309.2,307.9-307,330z"/>
		<path class="st3" d="M135,278l-3,36l227,4c0,0,5-29-2-40H135z"/>
	</g>
	<g id="Layer_2" class="st1">
		<path class="st15" d="M268.8,233.5c0.4,5.4,0.6,13.1,0,22.3c-0.5,6.9-1.3,13.1-3.2,23.9c-3.2,17.9-6.3,31.3-6.4,31.9
			c-5.8,41.1-8.7,61.6-9.6,86c-0.6,15.5-1,28.1,0.8,45.4c1.6,15.1,4.2,27.7,6.4,36.6"/>
		<g class="st16">
			<path class="st17" d="M350.4,63c-28.5-44.7-83.2-43.2-86.9-43c-4.7,0.2-50.9,3.5-74.2,38.3c-29.6,44.2-9.3,107.1,26.1,139
				c17.3,15.5,36.3,22.1,48.7,25.1c-2.7,5.8-5.3,11.7-8,17.5c8.5,0,17,0,25.5,0c-3.2-5.8-6.4-11.7-9.6-17.5
				c10.8-2.7,28.2-8.6,46-21.9c6.4-4.8,21.5-16.4,32.1-35.4C352.6,160.3,379.9,109.3,350.4,63z"/>
		</g>
		
			<ellipse transform="matrix(0.5533 -0.833 0.833 0.5533 38.4295 205.0504)" class="st18" cx="210.4" cy="66.7" rx="22.6" ry="11.1"/>
	</g>
	<g id="Layer_3" class="st1">
		<path class="st19" d="M187.7,353.7c-72.7-33-106.2-79.8-113.3-90c-15-21.7-23.5-66.2-25.3-82c-0.2-1.6-1-9.2-2.6-19.6
			c-1.9-12.6-3.2-20.5-3.2-20.5c-3-17.2-4.2-20-2.2-23.7c1.3-2.4,5-7.2,17.3-8.6c0.2,3,0.7,7.1,1.5,11.9c0,0,2,11.5,6.2,22.9
			c5.4,14.7,53.9,101.7,167.8,149.4c89.5,37.5,172.2,30.9,215.1,24.1c1.9,4.9,3.9,9.8,5.8,14.8c-17.9,14.8-50.2,37.2-95.4,47.6
			C283.6,397.2,222,369.2,187.7,353.7z"/>
		<path class="st20" d="M46.6,162.1c-0.9,10.8-1.4,25.8,0.5,43.4c1.7,16,11.5,114.3,93.4,167c56.8,36.6,117.3,33.6,141.4,32.4
			c20.8-1,37.8-4.9,39.9-5.4c15.9-3.7,32.2-9.4,74.2-31.6c39.9-21.1,59.9-31.7,58.6-35.3c-3-8-66.4,23.2-146.8,17.3
			c-47.5-3.5-85.9-18.9-112.2-32.4C170,307.1,119.9,282.4,81.2,229C63.5,204.8,53,181,46.6,162.1z"/>
		<path class="st21" d="M454,335.1c-1.3,1.7-2.8,2.9-3.8,3.5c-1.5-2.7-2.9-5.4-4.4-8.1c-0.2-1.8-0.3-3.7-0.5-5.5
			c0.8-2.5,1.6-5,2.3-7.5c5.2,1.3,8.8,5,9.1,9.3C457.2,330.8,454.6,334.3,454,335.1z"/>
		<path class="st21" d="M40.6,126.5c-2.3-5.2-2.6-11.2-0.5-15.5c0.3-0.7,1.6-3.2,4-4.5c1-0.5,2.7-1.1,7.9,0.6
			c2.2,0.7,5.2,1.9,8.6,3.9l-0.5,8.8c-4.1,0.3-8.3,0.6-12.4,0.9C45.3,122.6,43,124.5,40.6,126.5z"/>
		<circle class="st22" cx="251.1" cy="326.7" r="0.5"/>
		<circle class="st22" cx="389.2" cy="355.8" r="0.5"/>
		<circle class="st22" cx="176.6" cy="335.3" r="0.5"/>
		<circle class="st22" cx="74.1" cy="196.1" r="0.5"/>
		<circle class="st22" cx="131.3" cy="263" r="0.5"/>
		<circle class="st22" cx="306.1" cy="367.7" r="0.5"/>
		<circle class="st22" cx="76.3" cy="241.4" r="0.5"/>
		<circle class="st22" cx="342.8" cy="335.3" r="0.5"/>
		<circle class="st22" cx="418.4" cy="331" r="0.5"/>
	</g>
	<g id="Layer_4">
		<polygon class="st23" points="238.7,312.3 338.3,202.3 343,211.7 243.4,320.7 		"/>
		<path class="st23" d="M216.1,285c8.8-2.9,15.9-6,21-8.5c8.8-4.3,21.5-10.5,34.4-22.6c5.4-5,8.9-9.3,11.4-12.3
			c10.4-12.7,14.8-22.4,23.4-38.4c4.3-8,10.5-19.3,18.8-32.9c1.3,3.4,2.5,6.9,3.8,10.3l-20.7,39.5c-2.1,4.1-5,9.3-8.8,15
			c-2,3-6.9,10.3-13.7,17.9c-11.2,12.3-22.3,19.3-29.1,23.5c-8.6,5.3-21.2,12-37.6,16.9L216.1,285z"/>
		<polygon class="st24" points="323.3,166.6 347.7,236.1 355.3,231.4 330.8,163.7 		"/>
		<path class="st23" d="M319.7,108.8c0,0,15.8-0.5,19.6,5.1c-0.1,0.9-0.4,2-0.7,3.4c-0.3,1-0.9,3.2-2,5.6c-1,2-1.2,1.9-3.4,5.3
			c-2.4,3.8-2.1,4.2-3.3,5.4c-0.9,1-3,2.8-6.6,3.8c0,0,0,8.5,2.8,15c2.8,6.6,4.7,11.3,4.7,11.3l-7.5,2.8l-7.5-30.1
			c3.8-3.4,7.5-6.9,11.3-10.3c-0.6-5.3,0.1-7,0.9-7.5c0.1-0.1,0.3-0.2,0.3-0.3c0-0.7-5.8,0.5-8.1-1.9
			C319.2,115.4,318.5,113.4,319.7,108.8z"/>
		<path class="st24" d="M321.2,109l0.9,8.5c0,0-29.1,5.6-31,0.9s-0.9-9.4,2.8-9.4C297.7,109,315.5,106.2,321.2,109z"/>
		<path class="st25" d="M329.5,160.5c9.2-2.7,18.4-5.3,27.7-8c-1.3,11-2.5,21.9-3.8,32.9l-7.2,21L329.5,160.5z"/>
		<path class="st23" d="M348.7,144.9c25.3,0.3,50.7,0.6,76,0.9c-2.5,20.4-4.9,40.8-7.4,61.2c-8.6,1.5-18.7,2.6-30.1,2.8
			s-21.5-0.7-30.1-1.9C354.3,186.9,351.5,165.9,348.7,144.9z"/>
		<path class="st26" d="M319.6,211.4c6.5,0.4,13.4,0.6,20.7,0.6c8.6-0.1,16.7-0.5,24.2-1.2c0,0.4,0,0.8,0,1.2
			c-7.3,0.6-15.2,1.1-23.6,1.2c-7.5,0.1-14.6-0.2-21.3-0.6C319.6,212.1,319.6,211.8,319.6,211.4z"/>
		<path class="st26" d="M320.7,219.4c6.1,0.4,12.7,0.6,19.6,0.6c8.2-0.1,15.9-0.5,23-1.2c0,0.4,0,0.8,0,1.2
			c-6.9,0.6-14.4,1.1-22.5,1.2c-7.1,0.1-13.9-0.2-20.2-0.6C320.7,220.2,320.7,219.8,320.7,219.4z"/>
		<polygon class="st27" points="355.3,251.2 374.1,288.8 394.5,313.2 398.7,310.4 380.1,286.4 360.9,243.6 353.4,248.3 		"/>
		<path class="st26" d="M340.3,228.1c-6.7,0-13.1-0.2-19-0.6c0,0.1,0,0.2,0,0.3v0.1c0.1,0.2,0.1,0.5,0.1,0.7
			c6,0.4,12.5,0.6,19.4,0.6c7.8-0.1,15-0.5,21.7-1.1c0-0.4,0.1-0.8,0.2-1.1v-0.1C355.9,227.6,348.3,228,340.3,228.1z"/>
		<path class="st26" d="M340.3,236.1c-6.3,0-12.3-0.2-17.9-0.6v0.2l0,0c0.1,0.3,0.2,0.6,0.2,0.9c5.7,0.4,11.8,0.6,18.2,0.6
			c7.4-0.1,14.3-0.5,20.6-1.1c0-0.1,0-0.2,0-0.3c0-0.2,0-0.4,0-0.6V235C355.1,235.6,348,236.1,340.3,236.1z"/>
		<path class="st28" d="M424.7,145.8c0,1.6-20.2,3.3-37.5,3.3s-37.5-1.6-37.5-3.3s20.2-3.3,37.5-3.3S424.7,144.2,424.7,145.8z"/>
		<polyline class="st27" points="190.8,234.1 115.1,307.3 126.6,302.4 193.6,238.9 190.8,234.1 		"/>
		<polygon class="st29" points="172,180.7 188.9,225.8 193.6,223 174.8,172.2 		"/>
		<polygon class="st27" points="187,223.9 193.6,220.1 226.5,307.6 219,310.4 		"/>
		<path class="st23" d="M139,169.4c0,0,0-16.9,34.8-9.4l7.5,1.9c0,0,10.3,0.9,22.6-1.9c0,0,15,0.9,8.5,12.2c0,0-13.2-1.9-21.6,3.8
			c0,0-13.2,11.3-32.9,8.5C157.9,184.4,138.1,178.8,139,169.4z"/>
		<path class="st30" d="M112.7,314c-0.7-1.7,2.4-5.1,9.4-10.2c3-0.7,6.1-1.3,9.4-1.9c5.7-1,11-1.5,16-1.9c23,1.2,46,2.5,69,3.7
			c5.3-0.4,13.1,0,21.2,3.8c3,1.4,6.7,3.2,10,6.9c6.7,7.6,6.2,17.4,6,20.3c0,0-4.7,21.6-25.4,22.6c0,0-22.6-4.7-23.5-23.5
			c-25.7-5-51.4-10-77.1-15c-4.4-1.3-8.8-2.5-13.2-3.8C113.6,314.9,113,314.5,112.7,314z"/>
		<path class="st23" d="M111.8,225.8c-49.3,0-89.3,40-89.3,89.3s40,89.3,89.3,89.3s89.3-40,89.3-89.3S161.1,225.8,111.8,225.8z
			 M112.3,390.3c-41.3,0-74.7-33.5-74.7-74.7c0-41.3,33.5-74.7,74.7-74.7s74.7,33.5,74.7,74.7S153.5,390.3,112.3,390.3z"/>
		<path class="st24" d="M22.5,317c-0.8-49.9,40-91.2,89.3-91.2c48.6,0,89.1,40.1,89.3,89.3c2.8,0,5.6,0,8.5,0
			c0.5-54.1-43.8-98.7-97.3-98.7c-54.2,0-98.8,45.8-97.2,100.6C17.5,317,20,317,22.5,317z"/>
		
			<rect x="111.8" y="238.9" transform="matrix(0.7314 -0.682 0.682 0.7314 -184.7081 161.1714)" class="st31" width="0.9" height="152.3"/>
		
			<rect x="111.7" y="238.9" transform="matrix(0.2924 -0.9563 0.9563 0.2924 -221.9025 330.2142)" class="st31" width="0.9" height="152.3"/>
		
			<rect x="36.1" y="314.6" transform="matrix(0.9744 -0.225 0.225 0.9744 -68.007 33.3325)" class="st31" width="152.3" height="0.9"/>
		
			<rect x="36.1" y="314.7" transform="matrix(0.7314 -0.682 0.682 0.7314 -184.761 161.2298)" class="st31" width="152.3" height="0.9"/>
		
			<rect x="36.1" y="314.7" transform="matrix(0.2924 -0.9563 0.9563 0.2924 -221.927 330.3745)" class="st31" width="152.3" height="0.9"/>
		
			<rect x="111.8" y="239" transform="matrix(0.9744 -0.225 0.225 0.9744 -68.0304 33.3387)" class="st31" width="0.9" height="152.3"/>
		<circle class="st23" cx="112.7" cy="315.1" r="7.5"/>
		<path class="st23" d="M371.3,229.2c-47.4,13.6-74.7,63.1-61.1,110.5s63.1,74.7,110.5,61.1s74.7-63.1,61.1-110.5
			S418.7,215.6,371.3,229.2z M417.3,387.2c-39.7,11.4-81.1-11.5-92.5-51.1s11.5-81.1,51.1-92.5s81.1,11.5,92.5,51.1
			S457,375.8,417.3,387.2z"/>
		<path class="st24" d="M310.8,341.6c-14.6-47.7,13.2-98.7,60.6-112.3c46.7-13.4,96.7,13.9,110.5,61.1c2.7-0.8,5.4-1.6,8.1-2.3
			c-14.5-52.2-69.4-82.7-120.8-67.9c-52,15-82.3,71.3-65.6,123.6C306,342.9,308.4,342.3,310.8,341.6z"/>
		
			<rect x="396" y="238.8" transform="matrix(0.514 -0.8578 0.8578 0.514 -77.5099 493.175)" class="st31" width="0.9" height="152.3"/>
		
			<rect x="396.1" y="238.8" transform="matrix(1.629508e-02 -0.9999 0.9999 1.629508e-02 75.1669 706.299)" class="st31" width="0.9" height="152.3"/>
		
			<rect x="320.4" y="314.5" transform="matrix(0.8741 -0.4858 0.4858 0.8741 -103.0701 232.3084)" class="st31" width="152.3" height="0.9"/>
		
			<rect x="320.4" y="314.5" transform="matrix(0.514 -0.8578 0.8578 0.514 -77.4183 493.2263)" class="st31" width="152.3" height="0.9"/>
		
			<rect x="320.4" y="314.4" transform="matrix(1.629508e-02 -0.9999 0.9999 1.629508e-02 75.2287 706.218)" class="st31" width="152.3" height="0.9"/>
		
			<rect x="396.1" y="238.7" transform="matrix(0.8741 -0.4858 0.4858 0.8741 -103.0116 232.2903)" class="st31" width="0.9" height="152.3"/>
		<ellipse transform="matrix(0.961 -0.2767 0.2767 0.961 -71.6053 122.1397)" class="st23" cx="397" cy="314.8" rx="7.5" ry="7.5"/>
		<circle class="st32" cx="228.8" cy="330.6" r="12.7"/>
		<path class="st32" d="M224.6,330.1c0,0,2.8-8.5,8.5-0.9l15,41.4v2.8h-6.6L224.6,330.1z"/>
		<path class="st32" d="M249,370.6c1.9,0,3.8,0,5.6,0c0,2.8,0,5.6,0,8.5c-0.6,0.9-1.3,1.9-1.9,2.8c-6,0-11.9,0-17.9,0v-4.7l3.8-6.6
			L249,370.6L249,370.6z"/>
	</g>
	<g id="Layer_5" class="st1">
		<path class="st33" d="M105,221c-3.7,7.3-7.3,14.7-11,22c1,2,2,4,3,6c24.3,42,48.7,84,73,126c0.7,1,1.3,2,2,3c4-1,8-2,12-3l142-25
			c-28-43.7-56-87.3-84-131C196.3,219.7,150.7,220.3,105,221z"/>
		<path class="st8" d="M169,344c-2.1,1.9-1.3,6.1,0,12c0.9,4.3,2.1,7.7,3,10c49.7-7,99.3-14,149-21c0.3-8.7,0.7-17.3,1-26
			c-99.2,16.8-133.7,22.5-138,23c-2.7,0.3-5.3,0.8-8,1C171,343.4,170.1,343,169,344z"/>
		<g class="st16">
			
				<rect x="170.3" y="351.3" transform="matrix(0.9867 -0.1627 0.1627 0.9867 -53.9522 44.8094)" class="st34" width="152.6" height="1"/>
			
				<rect x="170.7" y="353.3" transform="matrix(0.9867 -0.1627 0.1627 0.9867 -54.2724 44.9015)" class="st34" width="152.6" height="1"/>
			
				<rect x="170" y="349.4" transform="matrix(0.9867 -0.1627 0.1627 0.9867 -53.6474 44.7355)" class="st34" width="152.6" height="1"/>
			
				<rect x="169.7" y="347.4" transform="matrix(0.9867 -0.1627 0.1627 0.9867 -53.3259 44.6601)" class="st34" width="152.6" height="1"/>
			
				<rect x="169.4" y="345.4" transform="matrix(0.9867 -0.1627 0.1627 0.9867 -53.0043 44.5847)" class="st34" width="152.6" height="1"/>
			
				<rect x="169" y="343.4" transform="matrix(0.9867 -0.1627 0.1627 0.9867 -52.6842 44.4926)" class="st34" width="152.6" height="1"/>
			
				<rect x="168.7" y="341.5" transform="matrix(0.9867 -0.1627 0.1627 0.9867 -52.3794 44.4187)" class="st34" width="152.6" height="1"/>
			
				<rect x="168.4" y="339.5" transform="matrix(0.9867 -0.1627 0.1627 0.9867 -52.0578 44.3433)" class="st34" width="152.6" height="1"/>
			
				<rect x="168.1" y="337.5" transform="matrix(0.9867 -0.1627 0.1627 0.9867 -51.7363 44.2679)" class="st34" width="152.6" height="1"/>
			
				<rect x="167.7" y="335.5" transform="matrix(0.9867 -0.1627 0.1627 0.9867 -51.4162 44.1758)" class="st34" width="152.6" height="1"/>
			
				<rect x="167.4" y="333.6" transform="matrix(0.9867 -0.1627 0.1627 0.9867 -51.1113 44.1019)" class="st34" width="152.6" height="1"/>
		</g>
		<path class="st35" d="M177,364c48.2-6.8,96.4-13.7,144.5-20.5c-0.2-3.2-0.4-6.3-0.5-9.5c1.7,5.3,3.3,10.7,5,16l-142,25
			c-2,0.3-4,0.7-6,1C177.7,372,177.3,368,177,364z"/>
		<path class="st35" d="M328,319c-48.7,7.7-97.3,15.3-146,23c-1.7,0.3-3.3,0.7-5,1c-1.3-2.3-2.7-4.7-4-7c-2.7-4.3-5.3-8.7-8-13
			c47.7-11.3,95.3-22.7,143-34C314.7,299,321.3,309,328,319z"/>
		<path class="st35" d="M105,221c9.3,16.7,18.7,33.3,28,50c0-18.7,0-37.3,0-56C123.7,217,114.3,219,105,221z"/>
		<path class="st8" d="M143,292c-1,0.8-1.9,2.6,0,14c0.7,4.2,1.4,7.6,2,10c52.3,0,104.7,0,157,0c0.7-8.3,1.3-16.7,2-25
			c-48.3,0.6-96.7,1-145,1c-2.7,0-6.3,0-9,0C145.4,290.4,143.6,291.5,143,292z"/>
		<g class="st16">
			<rect x="144" y="311" class="st34" width="158" height="1"/>
			<rect x="144" y="313" class="st34" width="158" height="1"/>
			<rect x="144" y="309" class="st34" width="158" height="1"/>
			<rect x="144" y="307" class="st34" width="158" height="1"/>
			<rect x="144" y="305" class="st34" width="158" height="1"/>
			<rect x="144" y="303" class="st34" width="158" height="1"/>
			<rect x="144" y="301" class="st34" width="158" height="1"/>
			<rect x="144" y="299" class="st34" width="158" height="1"/>
			<rect x="144" y="297" class="st34" width="158" height="1"/>
			<rect x="144" y="295" class="st34" width="158" height="1"/>
			<rect x="144" y="293" class="st34" width="158" height="1"/>
		</g>
		<path class="st36" d="M136,221c1.7,23.7,3.3,47.3,5,71c6,0,12,0,18,0c6.3,0,12.7,0,19,0c45.7,0,91.3-0.4,137-1
			c-5.3-15.7-10.7-31.3-16-47c-28.3,8.3-56.7,16.7-85,25c-6,2.3-12,4.7-18,7C176,257.7,156,239.3,136,221z"/>
		<path class="st37" d="M142,285l-6-68l-9-7l9,96c1.7,5.7,3.3,11.3,5,17c1.3-1,2.7-2,4-3c-0.8-5.4-1.5-11-2-17
			C142.4,296.7,142.1,290.7,142,285z"/>
		<path class="st37" d="M302,314c0.7-6,1.3-12,2-18c2.3,7.7,4.7,15.3,7,23v4H155c-4.7,0-9.3,0-14,0c-0.7-2.7-1.3-5.3-2-8
			c5,0,10,0,15,0C203.3,315,252.7,314.6,302,314z"/>
		<path class="st8" d="M196,241c-3.2,3.1-2.6,8.8-2,14c0.3,3,1.1,7,3.1,11.5c50-13.8,99.9-27.7,149.9-41.5c-4-9-8-18-12-27
			c-26.5,7.8-53.2,15.8-80,24c-14.1,4.3-28.1,8.6-42,13c-2,0.7-5.1,1.8-9,3C198.1,239.8,197.2,239.8,196,241z"/>
		<g class="st16">
			
				<rect x="193.3" y="240.3" transform="matrix(0.9614 -0.2753 0.2753 0.9614 -55.8555 83.6635)" class="st34" width="153.6" height="1"/>
			
				<rect x="193.8" y="242.2" transform="matrix(0.9614 -0.2753 0.2753 0.9614 -56.3592 83.8734)" class="st34" width="153.6" height="1"/>
			
				<rect x="192.7" y="238.4" transform="matrix(0.9614 -0.2753 0.2753 0.9614 -55.3565 83.4241)" class="st34" width="153.6" height="1"/>
			
				<rect x="192.2" y="236.5" transform="matrix(0.9614 -0.2753 0.2753 0.9614 -54.8527 83.2142)" class="st34" width="153.6" height="1"/>
			
				<rect x="191.6" y="234.5" transform="matrix(0.9614 -0.2753 0.2753 0.9614 -54.3242 82.9701)" class="st34" width="153.6" height="1"/>
			
				<rect x="191.1" y="232.6" transform="matrix(0.9614 -0.2753 0.2753 0.9614 -53.8205 82.7603)" class="st34" width="153.6" height="1"/>
			
				<rect x="190.5" y="230.7" transform="matrix(0.9614 -0.2753 0.2753 0.9614 -53.3215 82.5209)" class="st34" width="153.6" height="1"/>
			
				<rect x="190" y="228.8" transform="matrix(0.9614 -0.2753 0.2753 0.9614 -52.8177 82.311)" class="st34" width="153.6" height="1"/>
			
				<rect x="189.4" y="226.8" transform="matrix(0.9614 -0.2753 0.2753 0.9614 -52.2892 82.0669)" class="st34" width="153.6" height="1"/>
			
				<rect x="188.9" y="224.9" transform="matrix(0.9614 -0.2753 0.2753 0.9614 -51.7855 81.857)" class="st34" width="153.6" height="1"/>
			
				<rect x="188.3" y="223" transform="matrix(0.9614 -0.2753 0.2753 0.9614 -51.2865 81.6177)" class="st34" width="153.6" height="1"/>
		</g>
		<path class="st38" d="M102,154c-0.4,4.3-0.8,8.7-1.1,13.3c-0.5,7.5-0.8,14.8-0.9,21.8c32,29,64,58,96,87c2.5-0.9,6.3-2.4,11-4
			c17-6,30-9.6,35-11c16.9-4.8,57-16.4,111-32c-3.3-4.7-6.7-9.3-10-14c1,3,2,6,3,9c-44,12.3-88,24.7-132,37c-4,1.3-8,2.7-12,4
			c-1.7,0-3.3,0-5,0c-1-2.3-2.4-6.4-2.4-11.6c0-6.3,2.1-11,3.4-13.4C166,211.3,134,182.7,102,154z"/>
		<path class="st39" d="M223,126c40,23.7,80,47.3,120,71c-48.3,14.3-96.7,28.7-145,43c-32-28.7-64-57.3-96-86
			C142.3,144.7,182.7,135.3,223,126z"/>
		<polygon class="st33" points="177,342 177,374 153,344.2 		"/>
		<polyline class="st35" points="177,343 174.7,338.9 169.4,374 172,378 178.7,376.3 177,342 		"/>
	</g>
	<g id="Layer_6" class="st1">
		<path class="st40" d="M229.5,86h-12c-2.5,0-5,0-7.5,0c0-2.5,0-5,0-7.5l0,0c0-2.5,0-5,0-7.5c2.5,0,5,0,7.5,0h12c2.2,0,4.3,0,6.5,0
			c0,2.3,0,4.7,0,7c0,2.7,0,5.3,0,8C233.8,86,231.7,86,229.5,86z"/>
		<path class="st41" d="M270.1,207.4c-2.6-9-7.3-15.7-7.3-15.7c-3.8-5.4-7.2-7.8-10.5-11c-4.6-4.5-10.1-12.1-13.6-25.1
			c-1.1-20.9-2.2-41.8-3.3-62.8c0.9,0.1,1.7,0.1,2.6,0.2c0-3,0-6,0-9c-0.9,0.1-1.9,0.1-2.8,0.2c-2.4,0-4.8-0.1-7.2-0.1V84h-13v0.1
			c-1.7,0-3.5,0.1-5.2,0.1c-0.9-0.1-1.9-0.1-2.8-0.2c0,3,0,6,0,9c0.9-0.1,1.7-0.1,2.6-0.2c-1.1,20.9-2.2,41.8-3.3,62.8
			c-3.5,13-9,20.6-13.6,25.1c-3.2,3.2-6.6,5.6-10.5,11c0,0-4.8,6.7-7.3,15.7c-3.4,12-3.8,99.6,0.1,219.6c0.8,1.1,2.5,3.1,5.4,4.5
			c2.5,1.2,4.7,1.5,6,1.6c5,0.4,19,0.4,37.6-0.1l0,0c16.9,0.5,29.6,0.5,34.6,0.1c1.3-0.1,3.6-0.3,6-1.6c2.9-1.4,4.6-3.4,5.4-4.5
			C273.9,307,273.5,219.4,270.1,207.4z"/>
		<path class="st42" d="M232.5,82L232.5,82c-0.8,0-1.5-0.7-1.5-1.5l0,0c0-0.8,0.7-1.5,1.5-1.5l0,0c0.8,0,1.5,0.7,1.5,1.5l0,0
			C234,81.3,233.3,82,232.5,82z"/>
		<path class="st42" d="M212.5,75L212.5,75c-0.8,0-1.5-0.7-1.5-1.5l0,0c0-0.8,0.7-1.5,1.5-1.5l0,0c0.8,0,1.5,0.7,1.5,1.5l0,0
			C214,74.3,213.3,75,212.5,75z"/>
		<path class="st42" d="M221.5,79L221.5,79c-0.8,0-1.5-0.7-1.5-1.5l0,0c0-0.8,0.7-1.5,1.5-1.5l0,0c0.8,0,1.5,0.7,1.5,1.5l0,0
			C223,78.3,222.3,79,221.5,79z"/>
		<path class="st42" d="M214.5,81L214.5,81c-0.8,0-1.5-0.7-1.5-1.5l0,0c0-0.8,0.7-1.5,1.5-1.5l0,0c0.8,0,1.5,0.7,1.5,1.5l0,0
			C216,80.3,215.3,81,214.5,81z"/>
		<path class="st42" d="M230.5,76L230.5,76c-0.8,0-1.5-0.7-1.5-1.5l0,0c0-0.8,0.7-1.5,1.5-1.5l0,0c0.8,0,1.5,0.7,1.5,1.5l0,0
			C232,75.3,231.3,76,230.5,76z"/>
		<path class="st43" d="M272.1,207.4c-2.6-9-7.3-15.7-7.3-15.7c-3.8-5.4-7.2-7.8-10.5-11c-4.6-4.5-10.1-12.1-13.6-25.1
			c-1.1-20.9-2.2-41.8-3.3-62.8c0.9,0.1,1.7,0.1,2.6,0.2c0-3,0-6,0-9c-0.9,0.1-1.9,0.1-2.8,0.2c-2.4,0-4.8-0.1-7.2-0.1V84h-6v348h1
			c17.4,1.2,30.6,1.5,35.6,1.1c1.6-0.1,3.7-0.4,6-1.6c2.9-1.4,4.6-3.4,5.4-4.5C275.9,307,275.5,219.4,272.1,207.4z"/>
		<path class="st42" d="M226.5,82L226.5,82c-0.8,0-1.5-0.7-1.5-1.5l0,0c0-0.8,0.7-1.5,1.5-1.5l0,0c0.8,0,1.5,0.7,1.5,1.5l0,0
			C228,81.3,227.3,82,226.5,82z"/>
		<path class="st42" d="M224.5,75L224.5,75c-0.8,0-1.5-0.7-1.5-1.5l0,0c0-0.8,0.7-1.5,1.5-1.5l0,0c0.8,0,1.5,0.7,1.5,1.5l0,0
			C226,74.3,225.3,75,224.5,75z"/>
		<path class="st42" d="M217.5,76L217.5,76c-0.8,0-1.5-0.7-1.5-1.5l0,0c0-0.8,0.7-1.5,1.5-1.5l0,0c0.8,0,1.5,0.7,1.5,1.5l0,0
			C219,75.3,218.3,76,217.5,76z"/>
	</g>
	<g id="Layer_7" class="st1">
		<path class="st44" d="M207,290c8.5-5.2,17-10.3,25.5-15.5c17.2,29.2,34.3,58.3,51.5,87.5c0.2,0.5,2.1,5.7-1,10
			c-2.8,4-8.8,5.4-14,3C248.3,346.7,227.7,318.3,207,290z"/>
		<path class="st44" d="M335.9,266.8c3.3,7.6,2.1,14.7,1.4,17.9c-0.9,4.9-3.9,17.2-14.4,28.2c-9.7,10.1-20.6,13.8-25.4,15.1
			c-3.7,1.2-18.9,5.5-35.7-2.1c-16-7.2-23-20.4-24.7-24.1c-1.4-2.4-5.9-10.7-3.4-19.9c3.2-11.8,16.4-20.7,32.3-19.9
			c9.2-3.4,18.3-6.9,27.5-10.3c5-0.9,10.1-1.8,15.1-2.7C320.8,249.8,331.5,256.6,335.9,266.8z"/>
		<path class="st45" d="M86.4,200.8c0.8-1.6,2.2-1.1,3.4-2.7c2.1-2.9-0.9-6.6,0-10.3c0.5-2.3,2.7-5.2,9.6-7.6
			c1.3-2.6,3.5-6.3,6.9-10.3c4.7-5.6,9.3-8.7,15.8-13.1c5.8-3.9,10.9-7.3,18.6-10.3c7.4-2.9,13.9-4.2,18.6-4.8
			c5.8-1.7,13.8-4,23.4-6.2c12.6-2.9,21.6-4.4,28.9-5.5c16.2-2.6,21.3-2.5,25.4-2.1c1,0.1,0.2,0,13.1,2.1
			c15.5,2.4,16.5,2.5,19.2,3.4c7.4,2.5,6.8,4.2,15.1,6.9c5.5,1.7,7.4,1.5,11.7,3.4c5.2,2.3,8.8,5.4,11,7.6
			c2.7,2.8,6.7,6.8,11.7,11.7c4.8,4.7,6,5.7,8.2,8.2c1,1.1,5.4,6,10.3,13.7c3.8,5.9,3.9,7.2,9.6,17.2c4.5,7.9,4.4,6.9,6.2,10.3
			c2.2,4.2,8.3,16,8.2,31.6c0,5.9,0,10.6-2.7,15.8c-2.6,5-8.8,12.6-15.8,12.4c-2.5-0.1-4.3-1.2-13.3-3.8c-0.6-0.2-2-0.6-3.9-1
			c-5.4-1.2-4.7-0.3-16.5-2.1c-8.9-1.3-8.8-1.7-11-1.4c-5.7,0.9-6.2,3.8-14.4,6.9c-1.4,0.5-0.2,0-10.3,2.7
			c-5.8,1.6-12.4,3.4-12.4,3.4c-10.5,4.9-18.9,6.4-24.7,6.9c-2.8,0.2-6.1-0.1-10.3,1.4c-4.6,1.6-5.1,3.3-12.4,7.6
			c-5.8,3.4-6.2,2.7-10.3,5.5c-5,3.5-5,4.9-8.2,6.2c-5,2-10,0.6-12.4,0c-7-1.9-6.7-5-13.7-7.6c-6.8-2.5-8.3,0-14.4-2.7
			c-1.6-0.7-9.6-4.3-10.3-10.3c-0.6-4.6,3.5-7.3,2.1-9.6c-1-1.7-3.6-1.3-10.3-1.4c-5.3,0-9.8-0.1-14.4-1.4c-5.9-1.7-10-4.9-12.4-6.9
			c-3.1-2.5-5.1-4.9-8.9-9.6c-3.1-3.8-4.6-6.1-6.9-9.6c-2.9-4.5-5-7.5-4.1-10.3c0.3-0.9,0.7-1.2,0.7-2.1c0-2.7-3.8-3.1-4.8-6.2
			c-0.4-1.2,0.2-3.3,1.4-7.6c0.8-2.8,1.1-3.1,1.4-4.8c0.1-0.7,0.5-3.1,0-6.2C87.1,203.9,85.5,202.7,86.4,200.8z"/>
		<path class="st46" d="M257.8,132.2c-8.8,6-10.6,10.9-10.6,14.3c0.1,6.6,7.2,9.1,7.3,17.2c0.1,4.1-1.7,3.9-3.6,12
			c-1.5,6.4-2.5,10.7-1,15.4c1.8,5.3,4.8,5.1,8.2,11.5c3.1,6,3.3,11.6,3.3,13.6c0.2,10.6-5.2,18.3-7.3,21c-0.7,0.8-8.5,9.2-6.2,20.6
			c1.8,8.8,8.8,15.8,17.9,17.9"/>
		<path class="st46" d="M304.6,150.2c-2.3-1-4.6-2.1-7-2.2c-2.5-0.2-5.2,0.7-6.5,2.7c-1,1.5-1.1,3.3-1.2,5
			c-0.4,6.5-0.4,13.7-4.9,18.3c-4.2,4.3-11,4.8-17,5.1c-2,0.1-4.1,0.2-5.9,1.3c-4.6,2.8-4,10.5-8.5,13.5"/>
		<path class="st46" d="M276.6,138.4c-3,0.2-5.4,3-5.8,6c-0.5,3,0.6,6,2.2,8.5s3.6,4.8,5.4,7.2s3.2,5.2,3.4,8.2
			c0.1,2.3-0.5,4.5-1.2,6.7"/>
		<path class="st46" d="M114.9,163.7c0.2,0.8,0.5,1.6,0.7,2.4c1.5,6.2,0.9,12.9-1.8,18.7c-0.8,1.8-1.9,3.5-3.4,4.7s-3.6,1.9-5.5,1.5
			"/>
		<path class="st46" d="M91.3,194.4c7.1-3.6,15.4-3.6,23.3-3.6c2.6,0,5.2,0,7.6,1.1c1.2,0.5,2.2,1.3,3.2,2.1
			c6.5,4.9,13.2,11,14,19.1"/>
		<path class="st46" d="M134.8,202.5c-3,3.1-5.3,6.9-6.5,11.1"/>
		<path class="st46" d="M136.1,150.8c4.9,1.3,9.2,4.8,11.4,9.3c0.5-5.4,1.9-10.7,3.9-15.7c-2.1,5.5-3.3,11.4-3.7,17.3
			c-0.1,1.7-0.2,3.4,0.2,5.1c0.4,1.8,1.2,3.5,2.1,5.2c1.4,2.7,2.7,5.4,4.1,8.1"/>
		<path class="st46" d="M113.9,261.8c5.2-4,10.8-7.7,16.9-10.3c9.8-4.1,21.2-5,31-0.8c9.8,4.1,17.4,13.8,17.7,24.4
			c0.1,4.9-1.3,9.7-3,14.2"/>
		<path class="st46" d="M225.5,220.2c-19.5,0.9-38.8,6.1-55.5,15.2c-4,2.2-8.2,5.2-8.2,9.4c0,2.6,1.8,4.9,3.8,6.8
			c8.5,7.9,22,10.2,34.1,8.6c12.1-1.7,23.3-6.7,34.2-11.8"/>
		<path class="st46" d="M197.3,211.5c-1.7,1.1-2.6,3.4-2,5.3c0.4,1.2,1.2,2.2,1.7,3.4s0.4,2.8-0.8,3.4"/>
		<path class="st46" d="M126,191.8c2.9-6.7,10.9-12.1,20.3-13.8c10.1-1.7,20.9,0.7,31-1c9.3-1.6,16.9-6.4,22.4-12
			c2.5-2.5,4.7-5.1,7.8-7.1s7.4-3.4,11.5-2.6"/>
		<path class="st46" d="M89.6,209.7c5.5,6.5,14,10,22.4,11.6s17,1.6,25.5,2.6c1.7,0.2,3.4,0.4,4.7,1.5c1.3,1,2,2.6,2.5,4.1
			c2,5.8,2.6,12.2,1.6,18.3"/>
		<path class="st46" d="M178.6,281.8c-0.3-0.3-0.8-0.6-1.4-0.9c-4.9-2.7-11.5-1.2-15.8,1.6c-5.8,3.8-7.2,10-7.5,11.5"/>
		<path class="st46" d="M178.9,287.1c-0.3,0-0.5-0.5-0.3-0.8s0.6-0.4,0.9-0.4c8.5-1.5,17.5-1,25.8,1.6c0.6,0.2,1.2,0.4,1.5,0.9
			c0.2,0.4,0.3,0.8,0.3,1.2c0.1,1.4,0.1,2.8,0,4.2"/>
		<path class="st46" d="M183,138.8c-1.2,0.1-2,1.8-2.7,3.2c-1.6,3.4-3.5,6.5-4.8,10.1s-2,8-1,11.8c1.4,5.8,6.2,9,7,15.1"/>
		<path class="st46" d="M190.5,156.1c0.9,3.7,2.1,7.8,5.4,9.5c2.3,1.2,5.1,0.9,7.7,1c2.6,0,5.5,0.6,7,2.8"/>
		<path class="st46" d="M328,174.3c-6-2.7-13.7-1-18,4.1c-1.4,1.6-2.4,3.5-3.6,5.2c-2.4,3.4-5.7,6.4-9.4,8.3
			c-5.5,2.8-7.7-5.1-14-3.4c-5.2,1.4-5.8,10.7-7.9,15.3c-0.5,1.2-1.1,2.4-2.1,3.2c-1.6,1.3-3.8,1.4-5.8,1.4c-2.6,0-5.4-0.1-7.7-1.4"
			/>
		<path class="st46" d="M361.5,243.5c-7.4,3.2-18.7,7.1-33,8c-10.9,0.7-20.2-0.5-27-2"/>
		<path class="st46" d="M207.2,132.2c-1.6,5.2-3,11.5,0.5,15.7c1.3,1.6,3.1,2.7,4.7,4.1c4,3.8,5.3,9.9,4.7,15.4s-2.7,10.8-4.4,16
			c-3.4,10.6-5.3,22.2-2,32.8c1.5,4.8,4,9.3,5.9,13.9c7.1,17.2,6.3,36.5,5.5,55.1"/>
		<path class="st46" d="M134.1,223.3c0.2-2.3,2-4,3.7-5.6c2-1.8,4.1-3.7,6.6-4.6c2.7-1,5.6-0.7,8.4-0.9c3.3-0.2,5.2-1.9,8-3
			c3-1.1,6.2-1.1,9.2-2.6c4.1-2,7.6-4.9,11.7-6.9c7.5-3.7,16.6-3.9,24.2-0.5"/>
		<path class="st46" d="M172.3,175.2c-1.4,3.5,1,7.3,3.2,10.3s4.5,6.9,3,10.3"/>
		<path class="st46" d="M208.2,144.1c2.5,1.2,5.3-0.7,7-2.8c1.1-1.4,2.1-2.9,2.9-4.5c0.5-1.1,1-2.2,1.8-3s2.3-1.2,3.2-0.5"/>
		<path class="st46" d="M250.5,141.4c-0.2-1.6-1.4-2.8-2.5-4c-2.5-2.5-5.1-5-7.6-7.5"/>
		<path class="st46" d="M224.5,219.9c0.4-1.1,1.1-2.1,1.9-3c2.7-3.3,5.4-6.7,8-10c1.7-2.1,3.6-4.4,6.3-5c3.6-0.8,7.4,1.9,11,1"/>
		<path class="st46" d="M219.1,223.2c2.2-0.4,4.5,0.7,6.3,1.9c1.9,1.3,3.6,2.9,5.7,3.7c5.2,2.1,10.9-0.5,16.5-0.9
			c1.6-0.1,3.2,0,4.6,0.7c2.1,1.1,3.3,3.5,3.1,5.8"/>
		<path class="st46" d="M250,259.5c5.3,0.3,10-3.3,15.2-4.1c5.3-0.8,11,1.8,13.8,6.3c2.9,4.6,2.7,10.3,4.7,15.3"/>
		<path class="st46" d="M318.4,236.7c-1.5-1.4-3.7-1.9-5.8-2.1c-5-0.4-10.6,1.2-13,5.6c-1.7,3.1-1.3,6.9-0.1,10.2
			c1.2,3.3,3.2,6.2,4.8,9.3c2.9,5.5,4.6,11.5,5.1,17.6"/>
		<path class="st46" d="M256.7,238.2c14,1.6,28.6-1.1,41-7.9c6.6-3.7,12.5-8.5,19-12.4c5.1-3.1,9.5-3.5,15.5-3
			c3,0.3,6.1,0.7,9.1,0.3s6-1.7,7.8-4.3"/>
		<path class="st46" d="M339.1,189.9c-3.5,2.2-6.6,4.9-9.2,8.1c-1.4,1.7-2.6,3.7-2.3,5.8c0.2,1.4,1.2,2.6,1.8,3.9
			c1,2,1.2,4.3,0.8,6.4"/>
		<path class="st46" d="M292.7,193.5c-2.7,2.5-3,6.7-1.9,10.1c1.2,3.4,3.6,6.3,6,9.1c2.5,2.9,4.9,5.7,7.4,8.6
			c0.7,0.8,1.4,1.6,1.7,2.6c0.4,1,0.5,2.2,0.5,3.3c0,2.2-0.1,4.5-0.4,6.7"/>
		<path class="st46" d="M213,152.4c3.4,4.2,8.4,6.7,13.5,8.3s10.5,2.5,15.5,4.3c2.3,0.8,4.6,1.8,6.2,3.5c1.7,1.7,2.7,4.3,1.9,6.6"/>
	</g>
	<g id="Layer_8" class="st1">
		<rect x="59" y="92" class="st8" width="8" height="175"/>
		<rect x="243" y="162" class="st8" width="8" height="102"/>
		<rect x="226" y="162" class="st8" width="8" height="106"/>
		<rect x="209" y="160" class="st8" width="8" height="106"/>
		<rect x="192" y="160" class="st8" width="8" height="106"/>
		<rect x="175" y="154" class="st8" width="8" height="111"/>
		<rect x="158" y="150" class="st8" width="8" height="119"/>
		<rect x="141" y="144" class="st8" width="8" height="127"/>
		<rect x="125" y="136" class="st8" width="8" height="130"/>
		<rect x="108" y="127" class="st8" width="8" height="139"/>
		<rect x="92" y="117" class="st8" width="8" height="151"/>
		<rect x="76" y="106" class="st8" width="8" height="162"/>
		<rect x="409" y="90" class="st8" width="8" height="175"/>
		<rect x="276" y="158" class="st8" width="8" height="106"/>
		<rect x="293" y="152" class="st8" width="8" height="111"/>
		<rect x="310" y="148" class="st8" width="8" height="119"/>
		<rect x="327" y="142" class="st8" width="8" height="127"/>
		<rect x="343" y="134" class="st8" width="8" height="130"/>
		<rect x="360" y="125" class="st8" width="8" height="139"/>
		<rect x="376" y="115" class="st8" width="8" height="151"/>
		<rect x="392" y="104" class="st8" width="8" height="162"/>
		<rect x="259" y="160" class="st8" width="8" height="106"/>
		<rect x="18" y="99" class="st8" width="8" height="170.1"/>
		<rect x="-98" y="159.2" class="st8" width="8" height="107.9"/>
		<rect x="-81" y="155.3" class="st8" width="8" height="115.7"/>
		<rect x="-64" y="149.5" class="st8" width="8" height="123.5"/>
		<rect x="-48" y="142.7" class="st8" width="8" height="126.4"/>
		<rect x="-31" y="134.1" class="st8" width="8" height="135.1"/>
		<rect x="-15" y="123.3" class="st8" width="8" height="146.8"/>
		<rect x="1" y="112.6" class="st8" width="8" height="157.5"/>
		<rect x="447" y="92" class="st8" width="8" height="175"/>
		<rect x="529" y="145" class="st8" width="8" height="127"/>
		<rect x="513" y="137" class="st8" width="8" height="130"/>
		<rect x="496" y="128" class="st8" width="8" height="139"/>
		<rect x="480" y="118" class="st8" width="8" height="151"/>
		<rect x="464" y="107" class="st8" width="8" height="162"/>
		<g class="st16">
			<rect x="-98" y="266" class="st47" width="640" height="10"/>
		</g>
		<g class="st16">
			<rect x="-98" y="263" class="st48" width="640" height="10"/>
		</g>
		<path class="st49" d="M44,68.7c9,11.2,75.3,90.7,188.7,92.8c118.8,2.2,189.6-82.6,197.8-92.8"/>
		<path class="st49" d="M-95.6,161.4C-75,157-55,149-35,139c30-18,58-37,79.5-65.3"/>
		<rect x="39" y="44" class="st8" width="7" height="64"/>
		<g class="st16">
			<circle class="st50" cx="44.5" cy="37.5" r="10.5"/>
		</g>
		<circle class="st8" cx="42.5" cy="36.5" r="10.5"/>
		<rect x="428" y="44" class="st8" width="7" height="64"/>
		<g class="st16">
			<circle class="st50" cx="433.5" cy="37.5" r="10.5"/>
		</g>
		<circle class="st8" cx="431.5" cy="36.5" r="10.5"/>
		<path class="st49" d="M542.9,147.6c-33.4-12.4-65-32.4-90.8-57c-7.1-6.8-13.7-14.1-19.7-21.9"/>
		<rect x="36" y="67.2" class="st51" width="17.8" height="84.5"/>
		<rect x="33.8" y="144" class="st51" width="22" height="104.7"/>
		<rect x="32.3" y="230" class="st51" width="25" height="119"/>
		<g class="st16">
			<rect x="34" y="67.2" class="st52" width="17.8" height="84.5"/>
		</g>
		<g class="st16">
			<rect x="31.8" y="144" class="st53" width="22" height="104.7"/>
		</g>
		<g class="st16">
			<rect x="30.3" y="230" class="st52" width="25" height="119"/>
		</g>
		<rect x="425" y="66.2" class="st51" width="17.8" height="84.5"/>
		<rect x="422.8" y="143" class="st51" width="22" height="104.7"/>
		<rect x="421.3" y="229" class="st51" width="25" height="119"/>
		<g class="st16">
			<rect x="423" y="66.2" class="st52" width="17.8" height="84.5"/>
		</g>
		<g class="st16">
			<rect x="420.8" y="143" class="st52" width="22" height="104.7"/>
		</g>
		<g class="st16">
			<rect x="419.3" y="229" class="st52" width="25" height="119"/>
		</g>
		<rect x="59" y="427.2" class="st8" width="8" height="50"/>
		<rect x="243" y="430.2" class="st8" width="8" height="47"/>
		<path class="st8" d="M233.8,477.2c0.1,0,0.2-0.1,0.2-0.1v-50.8h-8v51h7.8V477.2z"/>
		<rect x="209" y="428.2" class="st8" width="8" height="49"/>
		<rect x="192" y="428.2" class="st8" width="8" height="49"/>
		<rect x="175" y="429.2" class="st8" width="8" height="48"/>
		<rect x="158" y="425.2" class="st8" width="8" height="52"/>
		<rect x="141" y="423.2" class="st8" width="8" height="54"/>
		<rect x="125" y="428.2" class="st8" width="8" height="49"/>
		<rect x="108" y="428.2" class="st8" width="8" height="49"/>
		<rect x="92" y="426.2" class="st8" width="8" height="51"/>
		<rect x="76" y="426.2" class="st8" width="8" height="51"/>
		<rect x="409" y="429.2" class="st8" width="8" height="48"/>
		<rect x="276" y="430.2" class="st8" width="8" height="47"/>
		<rect x="293" y="431.2" class="st8" width="8" height="46"/>
		<rect x="310" y="427.2" class="st8" width="8" height="50"/>
		<rect x="327" y="425.2" class="st8" width="8" height="52"/>
		<rect x="343" y="430.2" class="st8" width="8" height="47"/>
		<rect x="360" y="430.2" class="st8" width="8" height="47"/>
		<rect x="376" y="428.2" class="st8" width="8" height="49"/>
		<rect x="392" y="428.2" class="st8" width="8" height="49"/>
		<rect x="259" y="428.2" class="st8" width="8" height="49"/>
		<rect x="18" y="425.1" class="st8" width="8" height="52.1"/>
		<path class="st8" d="M-91.1,477.4c0.3-0.1,0.7-0.2,1.1-0.2V427h-8v49.1c2.1,0.2,4.1,0.6,6,1.1C-91.7,477.4-91.4,477.4-91.1,477.4z
			"/>
		<rect x="-81" y="423.2" class="st8" width="8" height="54"/>
		<rect x="-64" y="421.2" class="st8" width="8" height="56"/>
		<rect x="-48" y="425.1" class="st8" width="8" height="52.1"/>
		<rect x="-31" y="425.1" class="st8" width="8" height="52.1"/>
		<rect x="-15" y="424.1" class="st8" width="8" height="53.1"/>
		<rect x="1" y="424.1" class="st8" width="8" height="53.1"/>
		<rect x="447" y="427.2" class="st8" width="8" height="50"/>
		<rect x="529" y="422.2" class="st8" width="8" height="55"/>
		<rect x="513" y="427.2" class="st8" width="8" height="50"/>
		<rect x="496" y="427.2" class="st8" width="8" height="50"/>
		<rect x="480" y="425.2" class="st8" width="8" height="52"/>
		<rect x="464" y="425.2" class="st8" width="8" height="52"/>
		<g class="st16">
			<rect x="-98" y="418.2" class="st47" width="640" height="10"/>
		</g>
		<g class="st16">
			<rect x="-98" y="421.2" class="st48" width="640" height="10"/>
		</g>
		<rect x="33.8" y="445.5" class="st51" width="22" height="31.7"/>
		<rect x="32.3" y="345.2" class="st51" width="25" height="119"/>
		<g class="st16">
			<rect x="31.8" y="445.5" class="st53" width="22" height="31.7"/>
		</g>
		<g class="st16">
			<rect x="30.3" y="345.2" class="st52" width="25" height="119"/>
		</g>
		<rect x="422.8" y="446.5" class="st51" width="22" height="30.7"/>
		<rect x="421.3" y="346.2" class="st51" width="25" height="119"/>
		<g class="st16">
			<rect x="420.8" y="446.5" class="st52" width="22" height="30.7"/>
		</g>
		<g class="st16">
			<rect x="419.3" y="346.2" class="st52" width="25" height="119"/>
		</g>
		<rect x="-98" y="345" class="st54" width="640" height="131"/>
	</g>
	<g id="Layer_9" class="st1">
		<g class="st16">
			<rect x="88" y="81" class="st55" width="275" height="384"/>
		</g>
		<g class="st16">
			<rect x="89" y="440" class="st56" width="24" height="24"/>
			<rect x="112.9" y="439.9" class="st57" width="56" height="24"/>
			<rect x="169.5" y="439.9" class="st56" width="56" height="24"/>
			<rect x="225.9" y="439.9" class="st57" width="56" height="24"/>
			<rect x="281.5" y="439.9" class="st56" width="56" height="24"/>
			<rect x="337.5" y="439.9" class="st57" width="24" height="24"/>
		</g>
		<g class="st16">
			<rect x="88.5" y="415.5" class="st57" width="56" height="24"/>
			<rect x="145.5" y="415.9" class="st56" width="56" height="24"/>
			<rect x="201.9" y="415.9" class="st57" width="56" height="24"/>
			<rect x="257.5" y="415.9" class="st56" width="56" height="24"/>
			<rect x="313.5" y="415.5" class="st57" width="49" height="24"/>
		</g>
		<g class="st16">
			<rect x="89" y="392" class="st56" width="24" height="24"/>
			<rect x="112.9" y="391.9" class="st57" width="56" height="24"/>
			<rect x="169.5" y="391.9" class="st56" width="56" height="24"/>
			<rect x="225.9" y="391.9" class="st57" width="56" height="24"/>
			<rect x="281.5" y="391.9" class="st56" width="56" height="24"/>
			<rect x="337.5" y="391.9" class="st57" width="24" height="24"/>
		</g>
		<g class="st16">
			<rect x="88.5" y="367.5" class="st57" width="56" height="24"/>
			<rect x="145.5" y="367.9" class="st56" width="56" height="24"/>
			<rect x="201.9" y="367.9" class="st57" width="56" height="24"/>
			<rect x="257.5" y="367.9" class="st56" width="56" height="24"/>
			<rect x="313.5" y="367.5" class="st57" width="49" height="24"/>
		</g>
		<g class="st16">
			<rect x="89" y="344" class="st56" width="24" height="24"/>
			<rect x="112.9" y="343.9" class="st57" width="56" height="24"/>
			<rect x="169.5" y="343.9" class="st56" width="56" height="24"/>
			<rect x="225.9" y="343.9" class="st57" width="56" height="24"/>
			<rect x="281.5" y="343.9" class="st56" width="56" height="24"/>
			<rect x="337.5" y="343.9" class="st57" width="24" height="24"/>
		</g>
		<g class="st16">
			<rect x="88.5" y="319.5" class="st57" width="56" height="24"/>
			<rect x="145.5" y="319.9" class="st56" width="56" height="24"/>
			<rect x="201.9" y="319.9" class="st57" width="56" height="24"/>
			<rect x="257.5" y="319.9" class="st58" width="56" height="24"/>
			<rect x="313.5" y="319.5" class="st57" width="49" height="24"/>
		</g>
		<g class="st16">
			<rect x="89" y="296" class="st56" width="24" height="24"/>
			<rect x="112.9" y="295.9" class="st57" width="56" height="24"/>
			<rect x="168" y="297" class="st56" width="56" height="24"/>
			<rect x="225.9" y="295.9" class="st57" width="56" height="24"/>
			<rect x="281.5" y="295.9" class="st56" width="56" height="24"/>
			<rect x="337.5" y="295.9" class="st57" width="24" height="24"/>
		</g>
		<g class="st16">
			<rect x="88.5" y="271.5" class="st57" width="56" height="24"/>
			<rect x="145.5" y="271.9" class="st56" width="56" height="24"/>
			<rect x="201.9" y="271.9" class="st57" width="56" height="24"/>
			<rect x="257.5" y="271.9" class="st56" width="56" height="24"/>
			<rect x="313.5" y="271.5" class="st57" width="49" height="24"/>
		</g>
		<g class="st16">
			<rect x="89" y="248" class="st56" width="24" height="24"/>
			<rect x="112.9" y="247.9" class="st57" width="56" height="24"/>
			<rect x="169.5" y="247.9" class="st56" width="56" height="24"/>
			<rect x="225.9" y="247.9" class="st57" width="56" height="24"/>
			<rect x="281.5" y="247.9" class="st56" width="56" height="24"/>
			<rect x="337.5" y="247.9" class="st57" width="24" height="24"/>
		</g>
		<g class="st16">
			<rect x="88.5" y="223.5" class="st57" width="56" height="24"/>
			<rect x="145.5" y="223.9" class="st56" width="56" height="24"/>
			<rect x="201.9" y="223.9" class="st57" width="56" height="24"/>
			<rect x="257.5" y="223.9" class="st56" width="56" height="24"/>
			<rect x="313.5" y="223.5" class="st57" width="49" height="24"/>
		</g>
		<g class="st16">
			<rect x="89" y="200" class="st56" width="24" height="24"/>
			<rect x="112.9" y="199.9" class="st57" width="56" height="24"/>
			<rect x="169.5" y="199.9" class="st56" width="56" height="24"/>
			<rect x="225.9" y="199.9" class="st57" width="56" height="24"/>
			<rect x="281.5" y="199.9" class="st56" width="56" height="24"/>
			<rect x="337.5" y="199.9" class="st57" width="24" height="24"/>
		</g>
		<g class="st16">
			<rect x="88.5" y="175.5" class="st57" width="56" height="24"/>
			<rect x="145.5" y="175.9" class="st56" width="56" height="24"/>
			<rect x="201.9" y="175.9" class="st57" width="56" height="24"/>
			<rect x="257.5" y="175.9" class="st56" width="56" height="24"/>
			<rect x="313.5" y="175.5" class="st57" width="49" height="24"/>
		</g>
		<g class="st16">
			<rect x="89" y="151" class="st56" width="24" height="24"/>
			<rect x="112.9" y="150.9" class="st57" width="56" height="24"/>
			<rect x="169.5" y="150.9" class="st56" width="56" height="24"/>
			<rect x="225.9" y="150.9" class="st57" width="56" height="24"/>
			<rect x="281.5" y="150.9" class="st56" width="56" height="24"/>
			<rect x="337.5" y="150.9" class="st57" width="24" height="24"/>
		</g>
		<g class="st16">
			<rect x="88.5" y="126.5" class="st57" width="56" height="24"/>
			<rect x="145.5" y="126.9" class="st56" width="56" height="24"/>
			<rect x="201.9" y="126.9" class="st57" width="56" height="24"/>
			<rect x="257.5" y="126.9" class="st56" width="56" height="24"/>
			<rect x="313.5" y="126.5" class="st57" width="49" height="24"/>
		</g>
		<g class="st16">
			<rect x="89" y="103" class="st56" width="24" height="24"/>
			<rect x="112.9" y="102.9" class="st57" width="56" height="24"/>
			<rect x="169.5" y="102.9" class="st56" width="56" height="24"/>
			<rect x="225.9" y="102.9" class="st57" width="56" height="24"/>
			<rect x="281.5" y="102.9" class="st56" width="56" height="24"/>
			<rect x="337.5" y="102.9" class="st57" width="24" height="24"/>
		</g>
		<g class="st16">
			<rect x="88.5" y="78.5" class="st57" width="56" height="24"/>
			<rect x="145.5" y="78.9" class="st56" width="56" height="24"/>
			<rect x="201.9" y="78.9" class="st57" width="56" height="24"/>
			<rect x="257.5" y="78.9" class="st56" width="56" height="24"/>
			<rect x="313.5" y="78.5" class="st57" width="49" height="24"/>
		</g>
		<rect x="124.5" y="111.5" class="st59" width="58" height="99"/>
		<path class="st16" d="M125,211c-2.3,0-4.7,0-7,0c0-35.3,0-70.7,0-106c23.3,0,46.7,0,70,0c0.3,35.3,0.7,70.7,1,106
			c-2.3,0-4.7,0-7,0c0-33,0-66,0-99c-19,0-38,0-57,0C125,145,125,178,125,211z"/>
		<path class="st16" d="M119.4,210c-2.8,0-5.6,0-8.4,0c0-37.3,0-74.7,0-112c27.9,0,55.9,0,83.8,0c0.4,37.3,0.8,74.7,1.2,112
			c-2.8,0-5.6,0-8.4,0c0-34.9,0-69.7,0-104.6c-22.7,0-45.5,0-68.2,0C119.4,140.3,119.4,175.1,119.4,210z"/>
		<path class="st60" d="M119,211c-0.3,0-0.7,0-1,0c0-35.3,0-70.7,0-106c23.3,0,46.7,0,70,0c0.3,35.3,0.7,70.7,1,106
			c-0.7,0-1.3,0-2,0c0-35,0-70,0-105c-22.7,0-45.3,0-68,0C119,141,119,176,119,211z"/>
		<path class="st16" d="M116,212c1.3,3,2.7,6,4,9c21.3,0,42.7,0,64,0l5-9C164.7,212,140.3,212,116,212z"/>
		<rect x="111" y="208" class="st60" width="85" height="4"/>
		<rect x="109" y="97" class="st60" width="89" height="4"/>
		<rect x="106" y="93" class="st16" width="96" height="4"/>
		<rect x="124.5" y="294.5" class="st59" width="58" height="99"/>
		<path class="st16" d="M125,394c-2.3,0-4.7,0-7,0c0-35.3,0-70.7,0-106c23.3,0,46.7,0,70,0c0.3,35.3,0.7,70.7,1,106
			c-2.3,0-4.7,0-7,0c0-33,0-66,0-99c-19,0-38,0-57,0C125,328,125,361,125,394z"/>
		<path class="st16" d="M119.4,393c-2.8,0-5.6,0-8.4,0c0-37.3,0-74.7,0-112c27.9,0,55.9,0,83.8,0c0.4,37.3,0.8,74.7,1.2,112
			c-2.8,0-5.6,0-8.4,0c0-34.9,0-69.7,0-104.6c-22.7,0-45.5,0-68.2,0C119.4,323.3,119.4,358.1,119.4,393z"/>
		<path class="st60" d="M119,394c-0.3,0-0.7,0-1,0c0-35.3,0-70.7,0-106c23.3,0,46.7,0,70,0c0.3,35.3,0.7,70.7,1,106
			c-0.7,0-1.3,0-2,0c0-35,0-70,0-105c-22.7,0-45.3,0-68,0C119,324,119,359,119,394z"/>
		<path class="st16" d="M116,395c1.3,3,2.7,6,4,9c21.3,0,42.7,0,64,0l5-9C164.7,395,140.3,395,116,395z"/>
		<rect x="111" y="391" class="st60" width="85" height="4"/>
		<rect x="109" y="280" class="st60" width="89" height="4"/>
		<rect x="106" y="276" class="st16" width="96" height="4"/>
		<rect x="264.5" y="110.5" class="st59" width="58" height="99"/>
		<path class="st16" d="M265,210c-2.3,0-4.7,0-7,0c0-35.3,0-70.7,0-106c23.3,0,46.7,0,70,0c0.3,35.3,0.7,70.7,1,106
			c-2.3,0-4.7,0-7,0c0-33,0-66,0-99c-19,0-38,0-57,0C265,144,265,177,265,210z"/>
		<path class="st16" d="M259.4,209c-2.8,0-5.6,0-8.4,0c0-37.3,0-74.7,0-112c27.9,0,55.9,0,83.8,0c0.4,37.3,0.8,74.7,1.2,112
			c-2.8,0-5.6,0-8.4,0c0-34.9,0-69.7,0-104.6c-22.7,0-45.5,0-68.2,0C259.4,139.3,259.4,174.1,259.4,209z"/>
		<path class="st60" d="M259,210c-0.3,0-0.7,0-1,0c0-35.3,0-70.7,0-106c23.3,0,46.7,0,70,0c0.3,35.3,0.7,70.7,1,106
			c-0.7,0-1.3,0-2,0c0-35,0-70,0-105c-22.7,0-45.3,0-68,0C259,140,259,175,259,210z"/>
		<path class="st16" d="M256,211c1.3,3,2.7,6,4,9c21.3,0,42.7,0,64,0l5-9C304.7,211,280.3,211,256,211z"/>
		<rect x="251" y="207" class="st60" width="85" height="4"/>
		<rect x="249" y="96" class="st60" width="89" height="4"/>
		<rect x="246" y="92" class="st16" width="96" height="4"/>
		<path class="st16" d="M338.6,334.9C338,312.2,319,294,295.7,294s-42.2,18.2-42.9,40.9c-0.3,0-0.6,0-0.9,0V464h86.6
			C338.6,421,338.6,377.9,338.6,334.9L338.6,334.9z"/>
		<path class="st60" d="M338,341.7c-0.6-21.5-17.9-38.7-39.1-38.7s-38.5,17.2-39.1,38.7c-0.3,0-0.5,0-0.8,0V464h79
			C338,423.2,338,382.5,338,341.7L338,341.7z"/>
		<rect x="80" y="65" class="st61" width="293" height="21"/>
		<rect x="58" y="40" class="st62" width="331" height="35"/>
	</g>
	<g id="Layer_10" class="st1">
		<polygon class="st63" points="80.2,201.2 367.5,199.3 367.5,284.8 80.2,284.8 		"/>
		<path class="st64" d="M223.2,265.7H49.6c-0.4,1.8-2.9,15.4,6.4,26.8C67,306,84.3,304.1,85.3,304c50.7-0.6,97.1-1.1,137.9-1.5
			V265.7z"/>
		<path class="st64" d="M223.2,265.7h173.6c0.4,1.8,2.9,15.4-6.4,26.8c-11,13.6-28.3,11.6-29.4,11.5c-50.7-0.6-97.1-1.1-137.9-1.5
			L223.2,265.7L223.2,265.7z"/>
	</g>
	<g id="Layer_11" class="st1">
		<path class="st16" d="M149.5,338h-40.8c-4.2,0-7.7-3.5-7.7-7.7V185c0-6.6,5.4-12,12-12h33c6.6,0,12,5.4,12,12v144.5
			C158,334.2,154.2,338,149.5,338z"/>
		<path class="st65" d="M158,227v-42c0-6.6-5.4-12-12-12h-33c-6.6,0-12,5.4-12,12v42H158z"/>
		<rect x="128.5" y="204" class="st16" width="3.5" height="15"/>
		<rect x="122.8" y="209.7" class="st16" width="15" height="3.5"/>
		<g class="st16">
			<path class="st66" d="M138,173v-4.2c0-1.6-1.1-2.8-2.5-2.8h-10.6c-1.6,0-2.9,1.5-2.9,3.3v3.7H138z"/>
		</g>
		<path class="st16" d="M345.5,289v40.8c0,4.2-3.5,7.7-7.7,7.7H192.5c-6.6,0-12-5.4-12-12v-33c0-6.6,5.4-12,12-12H337
			C341.7,280.5,345.5,284.3,345.5,289z"/>
		<path class="st65" d="M234.5,280.5h-42c-6.6,0-12,5.4-12,12v33c0,6.6,5.4,12,12,12h42V280.5z"/>
		<rect x="211.5" y="306.4" class="st16" width="15" height="3.5"/>
		<rect x="217.3" y="300.7" class="st16" width="3.5" height="15"/>
		<g class="st16">
			<path class="st66" d="M180.5,300.5h-4.2c-1.6,0-2.8,1.1-2.8,2.5v10.6c0,1.6,1.5,2.9,3.3,2.9h3.7V300.5z"/>
		</g>
	</g>
	<g id="Layer_12" class="st1">
		<path class="st67" d="M217.1,226.3c12.5-83.8,52.4-137.7,78.8-135.3c26.4,2.4,55.7,62.7,52.6,147.4l0,0
			c3.1-84.7-26.3-145-52.6-147.4C269.5,88.6,229.6,142.5,217.1,226.3z"/>
		<path class="st68" d="M146.7,189.8l2.8-0.3c4.9-2.8,9.7-5.6,14.6-8.4c3.7-2.1,7.5-4.2,11.2-6.2c73.9,6.2,147.8,12.5,221.6,18.7
			c-4.6,3.7-9.1,7.5-13.7,11.2c-1.7,2.1-3.3,4.2-5,6.2L146.7,189.8z"/>
		<path class="st69" d="M147.1,189.3c-11.1,46.3-18,102-12.2,164.2c1,10.3,2.2,20.2,3.7,29.9c77.2,10.4,154.4,20.8,231.6,31.1
			c2.6-69.2,5.1-138.5,7.7-207.7C301,201,224,195.1,147.1,189.3z"/>
		<path class="st70" d="M198.4,230.1c12.5-83.8,52.4-137.7,78.8-135.3s55.7,62.7,52.6,147.4l0,0c3.1-84.7-26.3-145-52.6-147.4
			S210.9,146.2,198.4,230.1z"/>
		<path class="st71" d="M370.2,414.5c5.7-2.4,15.7-7.4,24.9-17.4c8.7-9.4,12.9-19.1,14.9-24.9c-3.7-59.8-7.5-119.5-11.2-179.3
			l-21.2,13.7c-0.1,1.8-0.1,3.7-0.2,5.5C375.1,279.5,372.7,347,370.2,414.5z"/>
		<path class="st69" d="M430,298.7c-2.2-13.4-4.8-22-6.2-26.1c-2.5-7.6-4.9-13-7.5-18.7c-5.7-12.8-7.2-13.3-14.9-28.6
			c-8.7-17.2-11.3-25.3-14.9-24.9c-3.2,0.3-4.9,7-5,7.5c-1.2,5.2,0.5,9.7,10,27.4c4.3,8,5.5,9.9,8.7,16.2c3.3,6.3,5.8,11.5,7.5,14.9
			c6.2,12,9.4,22.5,11.2,29.9c4,16.6,4,29.8,3.7,46.1c-0.2,11.2-1.1,20.5-1.9,26.8c-0.5,1.1-1.8,4-5,6.2c-3.1,2.2-6.2,2.4-7.5,2.5
			c0,0-1.8,3.2-3.7,6.2c-0.6,0.9-1.4,2.2-2.5,3.7c1.5-0.3,3.6-0.7,6-1.4c1-0.3,2.3-0.6,3.9-1.1c3.8-1.1,6.3-1.9,8.7-3.7
			c0,0,1.6-1.2,3.1-3.1c8-10.1,8.7-28.6,8.7-28.6C434,327.9,431.9,310.2,430,298.7z"/>
		<path class="st68" d="M190.3,221.8c-1,3.5-1.9,8.7-0.8,14.5c0.6,3.4,1.7,5.6,3.1,7.4c1,1.2,2.2,2.7,4.2,3.1c2.6,0.6,5-1.1,6.2-2.1
			c0.6-0.4,3.2-2.4,5.3-7.5c1.9-4.6,2.4-9,2.2-12.6C203.8,223.8,197.1,222.8,190.3,221.8z"/>
		<path class="st68" d="M320.3,232.3c-0.8,3.5-1.4,8.8,0,14.5c0.8,3.3,2,5.5,3.6,7.2c1,1.1,2.3,2.6,4.4,2.9c2.7,0.4,4.9-1.4,6.1-2.4
			c0.6-0.5,3-2.6,4.9-7.8c1.7-4.7,1.8-9.1,1.5-12.7C333.9,233.4,327.1,232.9,320.3,232.3z"/>
		<path class="st72" d="M12.5,417.5"/>
	</g>
	<g id="Layer_13">
	</g>
</g>
</svg>
