<?xml version="1.0" encoding="utf-8"?>
<!-- Generator: Adobe Illustrator 21.1.0, SVG Export Plug-In . SVG Version: 6.00 Build 0)  -->
<svg version="1.1" id="Layer_1" xmlns="http://www.w3.org/2000/svg" xmlns:xlink="http://www.w3.org/1999/xlink" x="0px" y="0px"
	 viewBox="0 0 500 500" style="enable-background:new 0 0 500 500;" xml:space="preserve">
<style type="text/css">
	.st0{fill:#EFBDBD;}
	.st1{display:none;}
	.st2{display:inline;fill:#A9B0BB;}
	.st3{display:inline;fill:#101111;}
	.st4{display:inline;fill:#000102;}
	.st5{display:inline;fill:#489961;}
	.st6{display:inline;fill:#367A49;}
	.st7{display:inline;}
	.st8{fill:#AAA291;}
	.st9{display:inline;fill:#505556;}
	.st10{display:inline;fill:#B972C1;}
	.st11{display:inline;fill:#C281C9;}
	.st12{display:inline;opacity:0.38;fill:#C78BCC;enable-background:new    ;}
	.st13{display:inline;fill:none;}
	.st14{display:inline;opacity:0.83;fill:#C281C9;enable-background:new    ;}
	.st15{display:inline;opacity:0.77;fill:#C78BCC;enable-background:new    ;}
	.st16{display:inline;opacity:0.25;fill:#C18BC9;enable-background:new    ;}
	.st17{fill:#EAEAEA;}
	.st18{fill:#DBD9DA;}
	.st19{display:inline;fill:#FFFFFF;}
	.st20{fill:#FFFFFF;}
	.st21{fill:#E8E8E8;}
	.st22{fill:#BDF4C4;}
	.st23{fill:#AED1B3;}
</style>
<rect class="st0" width="500" height="500"/>
<g id="Layer_1_1_" class="st1">
	<rect x="55.7" y="334" class="st2" width="72.8" height="5.5"/>
	
		<rect x="-73.1" y="339.6" transform="matrix(0.2583 -0.9661 0.9661 0.2583 -289.8932 307.8509)" class="st3" width="257.2" height="6.3"/>
	
		<rect x="125.2" y="214" transform="matrix(0.9661 -0.2583 0.2583 0.9661 -84.1287 44.7818)" class="st3" width="6.3" height="257.2"/>
	<rect x="359.2" y="330.8" class="st2" width="72.8" height="5.5"/>
	
		<rect x="230.3" y="339.6" transform="matrix(0.2583 -0.9661 0.9661 0.2583 -64.8346 600.9568)" class="st3" width="257.2" height="6.3"/>
	
		<rect x="428.6" y="214" transform="matrix(0.9661 -0.2583 0.2583 0.9661 -73.8364 123.1463)" class="st3" width="6.3" height="257.2"/>
	<rect x="11" y="211" class="st4" width="479" height="17.8"/>
	
		<image style="display:inline;overflow:visible;enable-background:new    ;" width="344" height="297" xlink:href="B2828C1D.png"  transform="matrix(0.5255 0 0 0.5255 159.654 57.6794)">
	</image>
	<path class="st5" d="M423.6,186c-4.1,9.9-10.4,16.7-10.4,16.7s0.4-9.3,4.5-19.2s10.4-16.7,10.4-16.7S427.7,176.1,423.6,186z"/>
	<path class="st6" d="M421,178.1c-2.6,10.4-7.8,18.1-7.8,18.1s-1-9.2,1.6-19.6c2.6-10.4,7.8-18.1,7.8-18.1S423.6,167.7,421,178.1z"
		/>
	<path class="st5" d="M415.1,173.5c-0.8,10.7-4.6,19.1-4.6,19.1s-2.6-8.9-1.8-19.6c0.8-10.7,4.6-19.1,4.6-19.1
		S415.8,162.8,415.1,173.5z"/>
	<path class="st6" d="M408.8,176.5c1.5,10.6-1.2,19.8-1.2,19.8s-5.2-8-6.8-18.6c-1.5-10.6,1.2-19.8,1.2-19.8
		S407.2,165.9,408.8,176.5z"/>
	<path class="st5" d="M403.7,181.2c5,9.5,6.4,18.6,6.4,18.6s-6.7-6.3-11.6-15.8c-5-9.5-6.4-18.6-6.4-18.6S398.7,171.7,403.7,181.2z"
		/>
	<g class="st7">
		<path class="st8" d="M421.3,214.4c-7.1,0-14.3,0-21.4,0c-1.8-11.2-3.6-22.4-5.4-33.6c10.7,0,21.4,0,32.1,0
			C424.9,192,423.1,203.2,421.3,214.4z"/>
	</g>
	<rect x="392.5" y="180.8" class="st9" width="36.2" height="7.9"/>
</g>
<g id="Layer_2" class="st1">
	<polygon class="st10" points="48.5,231.4 451,231.4 250.3,442.5 	"/>
	<polygon class="st11" points="250.4,231.4 151.2,335.2 352.3,335.2 	"/>
	<polygon class="st12" points="249.2,442.5 332.8,231.4 168,231.4 	"/>
	<path class="st13" d="M48.5,231.4l94-77.1c72.3,0.2,144.6,0.4,216.9,0.6c30.4,25.5,60.7,51,91.1,76.6h-402V231.4z"/>
	<polygon class="st10" points="168,231.4 249.8,154.3 332.8,231.4 	"/>
	<polygon class="st14" points="144.2,154.8 246.3,232 356.8,155.4 	"/>
	<path class="st15" d="M49.1,232l94-77.7l102,77.7c-35.2-0.4-70.4-0.8-105.6-1.2C109.4,231.2,79.2,231.6,49.1,232z"/>
	<path class="st15" d="M355.3,154.3c31.7,25.9,63.4,51.8,95.1,77.7c-34.8,0-69.6,0-104.4,0c-33.6,0-67.3,0-100.9,0
		C281.8,206.1,318.6,180.2,355.3,154.3z"/>
	<polygon class="st16" points="49.1,232 250.4,231.4 151.2,335.2 	"/>
</g>
<g id="Layer_3" class="st1">
	<g class="st7">
		<path class="st17" d="M285.1,420.5c-68.7-11.7-137.3-23.4-206-35.1V178.8c69.1,8.8,138.2,17.6,207.2,26.4
			C286,277,285.5,348.7,285.1,420.5z"/>
	</g>
	<g class="st7">
		<path class="st18" d="M285.1,420.5c45.5-34.8,91-69.7,136.5-104.5c-0.8-61.5-1.6-123-2.5-184.5c-44.2,24.8-88.5,49.5-132.7,74.3
			C286,277.3,285.6,348.9,285.1,420.5z"/>
	</g>
	<path class="st19" d="M78.5,179.4c69.3,8.6,138.6,17.2,207.9,25.8c44.3-24.6,88.6-49.2,132.8-73.8c-61.5-11.5-123-23-184.5-34.4
		C182.6,124.5,130.6,151.9,78.5,179.4z"/>
	<circle class="st7" cx="121.5" cy="232.3" r="20.3"/>
	<ellipse class="st7" cx="246.4" cy="153.6" rx="30.7" ry="14.1"/>
	<ellipse class="st7" cx="392.8" cy="203.4" rx="14.8" ry="24.6"/>
	<circle class="st7" cx="235.9" cy="245.8" r="20.3"/>
	<circle class="st7" cx="121.5" cy="351.6" r="20.3"/>
	<circle class="st7" cx="235.9" cy="367.6" r="20.3"/>
	<ellipse class="st7" cx="319" cy="351" rx="14.8" ry="24.6"/>
</g>
<g id="Layer_4">
	<path class="st20" d="M260.5,56.5c-5.8,0.1-13.9,0.8-23.1,3.5c-38.4,11.3-58.1,46.3-71,69.2c-18.8,33.3-24.7,64.9-26.6,85.2
		c-3.3,34.5,2.3,62.7,7.1,79.9c2.7,8.4,17.9,53.4,63.9,74.5c25.9,11.9,49.9,10.8,60.2,9.7c30.4-3.3,50.5-17.8,58.7-23.9
		c7.6-5.6,36.9-27.3,46.1-63.9c5.7-22.8,6.9-63.9,6.9-63.9l0,0c0.1,0,0.1,0,0.2,0h0.1c-5.5-51.3-22.5-87-33.8-106.5
		c-19.8-34.1-37.4-45.6-44.4-49.7C287.7,60.6,271.1,57.5,260.5,56.5z"/>
	<path class="st21" d="M260.5,56.5c-2.2-0.4-5.4-0.8-5.7,0c-0.7,1.8,14.4,7.8,30.1,18.1c10.5,6.8,18.1,13.6,22.9,18.1
		c14.6,13,23,26.1,27.7,34.9c6.1,11.4,9.1,21.4,12,31.3c4.2,14.1,6,25.1,7.2,32.5c2.3,14.3,4.1,26.3,2.4,42.2
		c-0.7,6.8-1.1,10.2-2.4,13.3c-8.6,20.1-41.9,22.5-49.4,22.9c19.9-4.2,39.9-8.4,59.8-12.7c-17.5,27.1-35,54.2-52.6,81.3
		c23.4-34.8,46.9-69.6,70.3-104.4c0.1-9.2-0.5-22.1-3.5-37.3c-3.3-16.3-7.9-27.4-14.2-42.6c-5.8-13.9-12.4-29.7-24.8-47.9
		c-9.2-13.4-15.7-19.7-18.6-22.4c-10.8-9.9-20.8-15.1-24-16.7C284.3,60.4,274.1,58.6,260.5,56.5z"/>
	<g>
		<path class="st22" d="M242.6,364.3c-5.5,0-11.6,4.2-13.6,9.3l-27.1,71c-2,5.1,0.9,9.3,6.4,9.3h106c5.5,0,8.3-4.2,6.2-9.3
			l-28.8-71.2c-2.1-5.1-8.3-9.3-13.8-9.3h-35.3V364.3z"/>
	</g>
	<path class="st23" d="M223.2,388.3c-2.4,6.5-4.7,13-7.1,19.5c9.2,3.8,24.7,8.7,44.4,8.9c20.6,0.2,36.8-5.1,46.1-8.9
		c-1.8-5.9-3.5-11.8-5.3-17.7C275.3,389.5,249.3,388.9,223.2,388.3z"/>
	<path class="st22" d="M126.5,233.9c5.3,96.3,63.8,172.1,135.1,172.1c71.4,0,129.9-75.9,135.1-172.1H126.5z"/>
</g>
</svg>
