<?xml version="1.0" encoding="utf-8"?>
<!-- Generator: Adobe Illustrator 21.1.0, SVG Export Plug-In . SVG Version: 6.00 Build 0)  -->
<svg version="1.1" id="Layer_1" xmlns="http://www.w3.org/2000/svg" xmlns:xlink="http://www.w3.org/1999/xlink" x="0px" y="0px"
	 viewBox="0 0 500 500" style="enable-background:new 0 0 500 500;" xml:space="preserve">
<style type="text/css">
	.st0{fill:#E8D7F2;}
	.st1{display:none;}
	.st2{display:inline;fill:#D1D1D1;}
	.st3{display:inline;fill:#FFFFFF;}
	.st4{display:inline;fill:#CECCCC;}
	.st5{opacity:0.84;fill:#F4ECD7;enable-background:new    ;}
	.st6{fill:#EADDCE;}
</style>
<rect class="st0" width="500" height="500"/>
<g id="Layer_1_1_" class="st1">
	<path class="st2" d="M272.9,395.6c-1.9-20.3-3.8-40.5-5.8-60.8c-2.4-24.1-4.8-48.3-7.1-72.4c-0.4-10.5-0.8-18.9-1.2-24.7
		c-0.3-6.1-0.7-10.4-0.9-17.5c-0.5-13.9,0.1-18.9,1.8-24c0.7-1.9,1.4-3.5,2.1-4.9h-21.3c1,2.1,1.2,4.5,1.6,9.1
		c0.4,4.3,0.5,7.9,0.5,10.4c-0.8,13.7-2.7,43.5-5.1,74.1c-1.6,20.3-2.9,34.6-3.3,38.5c-0.8,8.2-1.5,15-2,20.1c-1,10.2-2,20.4-3,30.6
		c-0.1,5.5-0.5,10.9-1.2,16.3l0,0c-1,7.5-1.6,12-2.1,18.8c-0.9,12.6-0.8,23-0.5,30.1c0.6,3.2,2.6,11.6,7.1,18c1.4,2,3,3.7,3,3.7
		c1.5,1.6,4.3,4.7,7.8,6.4c5.3,2.6,10.8,1.3,13.4,0.5c2.3-1.2,5.9-3.5,9.2-7.7c3.1-3.8,4.7-7.7,5.5-10.1c1.9-8.3,3.7-19.2,3.5-32.1
		C275,409.5,274.1,401.9,272.9,395.6z"/>
	<path class="st2" d="M228.7,46.9c-2.2,33.1-4.5,66.2-6.7,99.3c-0.1,3.9,0.1,9.4,1.3,15.8c0.5,2.7,1.2,6,2.7,10.1
		c0.8,2.2,3.5,8.9,9.4,15.8c2.1,2.4,5.2,5.6,9.4,8.6c0.4,3.8,0.9,7.7,1.3,11.5h9.4c0.9-3.8,1.8-7.7,2.7-11.5
		c5.3-5.7,9.3-10.7,12.1-14.4c3.3-4.4,4.5-6.6,5.4-8.6c2-4.4,2.8-8.5,3.4-12.9c1.6-11.8,0.6-21.4,0.6-21.7c-1.3-13.4-4-46.9-8-92.1
		c-1.3,0-2.7,0-4,0c0.4,26.4,0.9,52.8,1.3,79.2c0,4.3,0,8.6,0,13c0,2.8-2.2,4.7-4,4.3c-1.5-0.3-2.8-2.1-2.7-4.3
		c-0.9-30.7-1.8-61.4-2.7-92.1h-4c0,31.2,0,62.4,0,93.6c-1.1,2.4-3.5,3.5-5.4,2.9c-1.8-0.6-2.6-2.6-2.7-2.9
		c-0.4-31.2-0.9-62.4-1.3-93.6h-4l-2.7,93.6c-0.5,1.4-1.7,2.4-3,2.6c-1.9,0.1-3.1-1.6-3.4-2.1c-0.8-1.2-0.9-2.4-0.9-3
		c0.2-30.3,0.4-60.7,0.6-91C231.4,46.9,230.1,46.9,228.7,46.9z"/>
	<path class="st3" d="M270.9,395.6c-1.9-20.3-3.8-40.5-5.8-60.8c-2.4-24.1-4.8-48.3-7.1-72.4c-0.4-10.5-0.8-18.9-1.2-24.7
		c-0.3-6.1-0.7-10.4-0.9-17.5c-0.5-13.9,0.1-18.9,1.8-24c0.7-1.9,1.4-3.5,2.1-4.9h-21.3c1,2.1,1.2,4.5,1.6,9.1
		c0.4,4.3,0.5,7.9,0.5,10.4c-0.8,13.7-2.7,43.5-5.1,74.1c-1.6,20.3-2.9,34.6-3.3,38.5c-0.8,8.2-1.5,15-2,20.1c-1,10.2-2,20.4-3,30.6
		c-0.1,5.5-0.5,10.9-1.2,16.3l0,0c-1,7.5-1.6,12-2.1,18.8c-0.9,12.6-0.8,23-0.5,30.1c0.6,3.2,2.6,11.6,7.1,18c1.4,2,3,3.7,3,3.7
		c1.5,1.6,4.3,4.7,7.8,6.4c5.3,2.6,10.8,1.3,13.4,0.5c2.3-1.2,5.9-3.5,9.2-7.7c3.1-3.8,4.7-7.7,5.5-10.1c1.9-8.3,3.7-19.2,3.5-32.1
		C273,409.5,272.1,401.9,270.9,395.6z"/>
	<path class="st3" d="M226.7,46.9c-2.2,33.1-4.5,66.2-6.7,99.3c-0.1,3.9,0.1,9.4,1.3,15.8c0.5,2.7,1.2,6,2.7,10.1
		c0.8,2.2,3.5,8.9,9.4,15.8c2.1,2.4,5.2,5.6,9.4,8.6c0.4,3.8,0.9,7.7,1.3,11.5h9.4c0.9-3.8,1.8-7.7,2.7-11.5
		c5.3-5.7,9.3-10.7,12.1-14.4c3.3-4.4,4.5-6.6,5.4-8.6c2-4.4,2.8-8.5,3.4-12.9c1.6-11.8,0.6-21.4,0.6-21.7c-1.3-13.4-4-46.9-8-92.1
		c-1.3,0-2.7,0-4,0c0.4,26.4,0.9,52.8,1.3,79.2c0,4.3,0,8.6,0,13c0,2.8-2.2,4.7-4,4.3c-1.5-0.3-2.8-2.1-2.7-4.3
		c-0.9-30.7-1.8-61.4-2.7-92.1h-4c0,31.2,0,62.4,0,93.6c-1.1,2.4-3.5,3.5-5.4,2.9c-1.8-0.6-2.6-2.6-2.7-2.9
		c-0.4-31.2-0.9-62.4-1.3-93.6h-4l-2.7,93.6c-0.5,1.4-1.7,2.4-3,2.6c-1.9,0.1-3.1-1.6-3.4-2.1c-0.8-1.2-0.9-2.4-0.9-3
		c0.2-30.3,0.4-60.7,0.6-91C229.4,46.9,228.1,46.9,226.7,46.9z"/>
	<rect x="240" y="194" class="st4" width="18" height="2.1"/>
	<rect x="240" y="202.6" class="st4" width="16.5" height="1.9"/>
</g>
<g id="Layer_2">
</g>
<g id="Layer_3">
</g>
<g id="Layer_4">
	<path class="st5" d="M219.3,83.1c4,32.3,2,58.7-0.7,76.9c-4.8,33.4-9.7,46.3-15.8,55.2c-6.3,9.2-15.1,17.9-19.3,22
		c-10.2,10.1-14.9,12.7-26.2,22c-18,14.9-32.4,26.9-42.7,45.4c-6,10.8-9.2,21.4-11,30.3c-1.2,4.2-7.7,29.1,7.2,52.8
		c10.5,16.6,25.6,23.4,31.3,25.6c8.8,3,22,7,38.5,9.6c13.6,2.2,21.2,2.1,44,2.8c0,0,89.7,2.5,115.6-5.5c2.4-0.7,4.7-1.5,4.7-1.5
		c4.8-1.7,10.7-4.1,17-7.4c6.8-3.6,23.7-12.4,33.4-25.5c18.5-24.9,7.4-60.4,5.5-66.1c-3.3-7.8-9.1-19.6-19.3-31.7
		c-5.5-6.6-10.2-10.7-26.9-24.9c-31.7-27-27.9-23.3-32.3-27.4c-17-15.9-34.3-34.9-40.7-42.1c-0.2-0.2-0.4-0.4-0.6-0.6
		c-6.4-15.6-13.5-37.6-16.5-64.7c-3.3-29.5-0.5-54.3,2.8-71.6C251.4,65.7,235.4,74.4,219.3,83.1z"/>
	<path class="st6" d="M235.8,176.7l-12.4,44c-3.5,8.3-8.3,20.6-13.6,35.8c-9.4,27.2-14.1,40.8-16,59.4c-2.5,25,1.4,42.7,3.8,51.3
		c4.9,17.6,11.4,25.3,13.1,27.2c9.7,11.2,21.6,15.8,27.9,17.7c0,0-15.1-19.3-20.6-33c-1.5-4.3-3.4-10.6-5-18.2
		c-3.6-17.5-3-31.6-2.4-45.3c0.4-8.1,1.2-18.9,3.3-31.5c6.4-26.2,12.8-52.3,19.3-78.5C234,196,234.9,186.4,235.8,176.7z"/>
	<path class="st6" d="M270.2,197.4l34.4,61.9c3.4,5.2,7.9,12.5,12.6,21.7c6.7,13.3,14,27.6,16.5,46.8c1.1,8,2.6,19.3-0.9,33.6
		c-6.2,25.8-23.9,40.5-28.2,43.9c-12,9.4-24.1,13.4-31.7,15.1c8.1-5.2,18.9-13.5,28.9-26.2c6.2-7.9,10.7-15.6,13.8-22
		c3.6-9.7,8.8-27.7,6.6-50.2c-1.6-16.6-6.7-29.6-10.7-37.9l-24.8-49.6L270.2,197.4z"/>
	<path class="st6" d="M167,277.2l-2.3,2.8c-11.7,12.8-20.5,24.3-26.6,33c-9.2,13-12.1,19.1-13.8,26.2c-2.4,10.2-1.2,19.1,0,24.8
		c2.5,8,7.4,19.8,17.9,30.3c7.7,7.7,17.8,13.9,19.3,12.4c1.3-1.4-5.5-7.5-11-19.3c-7-15.1-7-29.2-6.9-37.2
		c0.1-12.7,2.7-21.9,5.5-31.7C152.1,308.1,157.3,293.5,167,277.2z"/>
</g>
</svg>
