<?xml version="1.0" encoding="utf-8"?>
<!-- Generator: Adobe Illustrator 21.1.0, SVG Export Plug-In . SVG Version: 6.00 Build 0)  -->
<svg version="1.1" xmlns="http://www.w3.org/2000/svg" xmlns:xlink="http://www.w3.org/1999/xlink" x="0px" y="0px"
	 viewBox="0 0 500 500" style="enable-background:new 0 0 500 500;" xml:space="preserve">
<style type="text/css">
	.st0{fill:#E4F4F9;}
	.st1{fill:#DD1919;}
	.st2{fill:#FFFFFF;}
	.st3{fill:#E2DFDE;}
	.st4{fill:#7C0D0D;}
	.st5{fill:#DDB99F;}
	.st6{fill:#EFCEB6;}
</style>
<g id="Layer_2">
	<rect class="st0" width="500" height="500"/>
</g>
<g id="Layer_1">
	<path class="st1" d="M380.3,212.6L380.3,212.6C380.3,212.6,380.4,212.6,380.3,212.6c0.1-0.1,0.1-0.1,0.1-0.2
		c7.2-11,12-22.9,13.8-35.5c10.2-58.7-55.4-120-146.9-120c-91.5-0.1-157.1,61.3-146.9,120c2,13.6,7.2,26.2,15.4,37.8
		c0.2,0.3,0.4,0.6,0.7,0.9c-0.1,0.1-0.2,0.2-0.3,0.3c43.6,56.4,80.8,115.9,111.3,177.2H266c29.1-58.3,64.3-115,105.4-168.8l0,0l0,0
		C374.6,220.6,377.6,216.7,380.3,212.6C380.3,212.7,380.3,212.7,380.3,212.6z"/>
	<path class="st2" d="M363.9,213.1L363.9,213.1L363.9,213.1c0.1-0.1,0.1-0.1,0.1-0.2c6.3-10.5,10.5-21.9,12.1-34.1
		c8.9-56.3-48.5-115.2-128.7-115.2c-80.2-0.1-137.6,58.8-128.7,115.2c1.7,13,6.3,25.2,13.5,36.3c0.2,0.3,0.4,0.6,0.6,0.9
		c-0.1,0.1-0.2,0.2-0.3,0.3c38.2,54.1,70.8,111.2,97.5,170.1h33.7c25.5-56,56.3-110.4,92.3-162.1l0,0l0,0
		C358.9,220.8,361.5,217,363.9,213.1C363.8,213.2,363.9,213.2,363.9,213.1z"/>
	<path class="st1" d="M337,213.1L337,213.1L337,213.1c0-0.1,0.1-0.1,0.1-0.2c4.9-10.5,8.1-21.9,9.3-34.1
		c6.9-56.3-37.4-115.2-99.1-115.2c-61.7-0.1-105.9,58.8-99.1,115.2c1.3,13,4.9,25.2,10.4,36.3c0.1,0.3,0.3,0.6,0.4,0.9
		c-0.1,0.1-0.2,0.2-0.2,0.3c29.4,54.1,54.5,111.2,75.1,170.1h26c19.6-56,43.4-110.4,71.1-162.1l0,0l0,0
		C333.2,220.8,335.2,217,337,213.1C337,213.2,337,213.2,337,213.1z"/>
	<path class="st2" d="M294.2,211.1L294.2,211.1L294.2,211.1c0-0.1,0-0.1,0-0.2c2.6-10.6,4.2-22.2,4.9-34.5
		c3.6-57-19.5-116.6-51.8-116.5c-32.3-0.1-55.4,59.5-51.8,116.5c0.7,13.2,2.6,25.5,5.4,36.7c0.1,0.3,0.2,0.6,0.2,0.9
		c0,0.1-0.1,0.2-0.1,0.3c15.4,54.8,28.5,112.5,39.2,172.1h13.6c10.3-56.7,22.7-111.6,37.1-164l0,0l0,0
		C292.2,218.8,293.3,215,294.2,211.1C294.2,211.2,294.2,211.1,294.2,211.1z"/>
	<polygon class="st3" points="236,420.6 235.2,420.7 228.4,392.6 229.2,392.5 	"/>
	<polygon class="st3" points="236.3,420.9 235.6,420.7 240.7,392.2 241.5,392.5 	"/>
	<polygon class="st3" points="260.4,420.6 259.6,420.7 252.8,392.6 253.6,392.5 	"/>
	<polygon class="st3" points="260.7,420.9 260,420.7 265.1,392.2 265.9,392.5 	"/>
	<ellipse class="st4" cx="247.2" cy="392.5" rx="19.5" ry="1.9"/>
	<g>
		<path class="st5" d="M230.1,422.6c0-1.1,0.9-2,2-2h29.8c1.1,0,2,0.9,2,2V445c0,1.1-0.9,2-2,2h-29.8c-1.1,0-2-0.9-2-2L230.1,422.6
			L230.1,422.6z"/>
	</g>
	<path class="st6" d="M263.8,422.5h-33.7c-0.6,0-1-0.5-1-1v-1.8c0-0.5,0.4-1,1-1h33.7c0.6,0,1,0.5,1,1v1.8
		C264.8,422.1,264.3,422.5,263.8,422.5z"/>
</g>
</svg>
