<?xml version="1.0" encoding="utf-8"?>
<!-- Generator: Adobe Illustrator 21.1.0, SVG Export Plug-In . SVG Version: 6.00 Build 0)  -->
<svg version="1.1" id="Layer_1" xmlns="http://www.w3.org/2000/svg" xmlns:xlink="http://www.w3.org/1999/xlink" x="0px" y="0px"
	 viewBox="0 0 500 500" style="enable-background:new 0 0 500 500;" xml:space="preserve">
<style type="text/css">
	.st0{fill:#9BE6BA;}
	.st1{display:none;}
	.st2{display:inline;}
	.st3{fill:#C78BCC;}
	.st4{fill:#B972C1;}
	.st5{fill:#A666AF;}
	.st6{fill:#C281C9;}
	.st7{display:inline;fill:#D4C1D6;}
	.st8{display:inline;fill:#A08673;}
	.st9{display:inline;fill:#74C142;}
	.st10{display:inline;fill:#BF7730;}
	.st11{display:inline;fill:#CC8232;}
	.st12{display:inline;fill:#F2E7CE;}
	.st13{display:inline;fill:#AFAEAE;}
	.st14{display:inline;fill:#FFFFFF;}
	.st15{display:inline;fill:#A86326;}
	.st16{display:inline;fill:#110B04;}
	.st17{display:inline;fill:#DD1919;}
	.st18{display:inline;fill:#E2DFDE;}
	.st19{display:inline;fill:#7C0D0D;}
	.st20{fill:#DDB99F;}
	.st21{display:inline;fill:#EFCEB6;}
	.st22{display:inline;fill:#EDEDED;}
	.st23{display:inline;fill:#CCCCCC;stroke:#FFFFFF;stroke-width:4;stroke-miterlimit:10;}
	.st24{display:inline;fill:#353866;}
	.st25{display:inline;fill:#061C54;}
	.st26{display:inline;fill:#D7D8DB;}
	.st27{display:inline;fill:#CBCDD1;}
	.st28{display:inline;fill:#D9DADB;}
	.st29{display:inline;fill:#ABB5D8;}
	.st30{display:inline;fill:#7680AD;}
	.st31{display:inline;fill:#E5AC48;stroke:#FFFFFF;stroke-width:3;stroke-miterlimit:10;}
	.st32{display:inline;fill:#A7ACCE;}
	.st33{display:inline;fill:#8084B2;}
	.st34{display:inline;fill:#CAD2E8;}
	.st35{display:inline;fill:none;}
	.st36{display:inline;fill:none;stroke:#A7ACCE;stroke-width:5;stroke-miterlimit:10;}
	.st37{display:inline;fill:#51618D;stroke:#4D5A87;stroke-miterlimit:10;}
	.st38{fill:#A7ACCE;}
	.st39{fill:#7680AD;}
	.st40{fill:none;stroke:#A7ACCE;stroke-width:5;stroke-miterlimit:10;}
	.st41{display:inline;opacity:0.84;fill:#FFFFFF;enable-background:new    ;}
	.st42{display:inline;fill:#51618D;}
	.st43{display:inline;fill:#E8E9EA;}
	.st44{display:inline;fill:#353866;stroke:#39517C;stroke-miterlimit:10;}
	.st45{display:inline;fill:#BFC7DD;}
	.st46{display:inline;fill:none;stroke:#FFFFFF;stroke-width:3;stroke-miterlimit:10;}
	.st47{display:inline;fill:#E0CB0A;}
	.st48{display:inline;fill:#F4F7F9;}
	.st49{display:inline;fill:#C42A59;}
	.st50{display:inline;fill:#E25A5A;}
	.st51{display:inline;fill:#D85656;}
	.st52{display:inline;fill:#CC3769;}
	.st53{display:inline;fill:#F9F7F7;}
	.st54{display:inline;fill:#F5F3E6;}
	.st55{display:inline;fill:#D1D1D1;}
	.st56{display:inline;fill:#CECCCC;}
	.st57{display:inline;opacity:0.62;}
	.st58{fill:#B7B3B0;}
	.st59{display:inline;opacity:0.62;fill:#B7B3B0;enable-background:new    ;}
	.st60{fill:#F7931E;}
	.st61{fill:#F28522;}
	.st62{display:inline;opacity:0.68;fill:#C68554;enable-background:new    ;}
	.st63{display:inline;fill:#C68554;}
	.st64{fill:#D82B2B;}
	.st65{fill:#CC2200;}
	.st66{fill:#EA4242;}
</style>
<rect class="st0" width="500" height="500"/>
<g id="Layer_8" class="st1">
	<g class="st2">
		
			<ellipse transform="matrix(0.9557 -0.2942 0.2942 0.9557 -43.4613 79.1021)" class="st3" cx="241.2" cy="184" rx="49.9" ry="49.9"/>
	</g>
	<g class="st2">
		
			<ellipse transform="matrix(0.4393 -0.8984 0.8984 0.4393 -178.3841 318.4046)" class="st4" cx="165.9" cy="302.1" rx="49.9" ry="49.9"/>
	</g>
	<g class="st2">
		
			<ellipse transform="matrix(0.4393 -0.8984 0.8984 0.4393 6.5098 398.7689)" class="st5" cx="322.7" cy="194.2" rx="49.9" ry="49.9"/>
	</g>
	<g class="st2">
		
			<ellipse transform="matrix(0.4393 -0.8984 0.8984 0.4393 -250.4626 467.6721)" class="st6" cx="249.4" cy="434.5" rx="49.9" ry="49.9"/>
	</g>
	<g class="st2">
		<circle class="st6" cx="153.5" cy="194.1" r="49.9"/>
	</g>
	<path class="st7" d="M225.8,406.7c0.4,0.9-1,2.7-3.6,5.8c-2.3,2.8-4.7,4.8-6.3,6c0.3,2.7,0.4,6.9-0.8,11.8c-0.7,2.7-1,4-1.7,4.2
		c-2.5,0.7-12.1-10.6-7.1-20.6C211.1,404.4,224.8,404.4,225.8,406.7z"/>
	<path class="st7" d="M146.9,269.6c0.4,0.9-1,2.7-3.6,5.8c-2.3,2.8-4.7,4.8-6.3,6c0.3,2.7,0.4,6.9-0.8,11.8c-0.7,2.7-1,4-1.7,4.2
		c-2.5,0.7-12.1-10.6-7.1-20.6C132.2,267.3,145.9,267.3,146.9,269.6z"/>
	<path class="st7" d="M136.6,160.9c0.4,0.9-1,2.7-3.6,5.8c-2.3,2.8-4.7,4.8-6.3,6c0.3,2.7,0.4,6.9-0.8,11.8c-0.7,2.7-1,4-1.7,4.2
		c-2.5,0.7-12.1-10.6-7.1-20.6C121.9,158.7,135.5,158.7,136.6,160.9z"/>
	<g class="st2">
		<circle class="st3" cx="348.9" cy="230.8" r="49.9"/>
	</g>
	<path class="st7" d="M333.2,197.2c0.4,0.9-1,2.7-3.6,5.8c-2.3,2.8-4.7,4.8-6.3,6c0.3,2.7,0.4,6.9-0.8,11.8c-0.7,2.7-1,4-1.7,4.2
		c-2.5,0.7-12.1-10.6-7.1-20.6C318.5,194.9,332.1,194.9,333.2,197.2z"/>
	<g class="st2">
		
			<ellipse transform="matrix(0.4393 -0.8984 0.8984 0.4393 -176.9156 467.445)" class="st4" cx="286" cy="375.4" rx="49.9" ry="49.9"/>
	</g>
	<path class="st8" d="M200.3,16c12.5,19.7,28.3,50.3,34.5,89.5c6.5,41.4-0.3,75.6-6.9,97.4c-10.1,13.6-14.4,25.1-16.4,33.2
		c-1.4,5.9-1.4,7-3,13.7c-2.4,10.2-5.3,18.9-8.3,26.8c-6.9,18.4,24.4,17.3,24.4,17.3c10.4-31.7,16.6-59.9,20.4-83.2
		c3.8-23.3,9.1-61,6.9-105.3c-0.9-18.9-3-35.7-10.3-55.3c-5.4-14.5-12-26.1-17.2-34.2C216.4,16,208.3,16,200.3,16z"/>
	<g class="st2">
		
			<ellipse transform="matrix(0.4393 -0.8984 0.8984 0.4393 -56.8112 374.7946)" class="st4" cx="271.8" cy="232.9" rx="49.9" ry="49.9"/>
	</g>
	<g class="st2">
		
			<ellipse transform="matrix(0.9557 -0.2942 0.2942 0.9557 -74.595 108.3046)" class="st6" cx="322.7" cy="302.1" rx="49.9" ry="49.9"/>
	</g>
	<path class="st7" d="M307.3,269.6c0.4,0.9-1,2.7-3.6,5.8c-2.3,2.8-4.7,4.8-6.3,6c0.3,2.7,0.4,6.9-0.8,11.8c-0.7,2.7-1,4-1.7,4.2
		c-2.5,0.7-12.1-10.6-7.1-20.6C292.6,267.3,306.3,267.3,307.3,269.6z"/>
	<path class="st7" d="M254.3,202.3c0.4,0.9-1,2.7-3.6,5.8c-2.3,2.8-4.7,4.8-6.3,6c0.3,2.7,0.4,6.9-0.8,11.8c-0.7,2.7-1,4-1.7,4.2
		c-2.5,0.7-12.1-10.6-7.1-20.6C239.6,200,253.2,200,254.3,202.3z"/>
	<g class="st2">
		
			<ellipse transform="matrix(0.9557 -0.2942 0.2942 0.9557 -62.7052 48.9348)" class="st3" cx="131.3" cy="232.9" rx="49.9" ry="49.9"/>
	</g>
	<g class="st2">
		
			<ellipse transform="matrix(0.4393 -0.8984 0.8984 0.4393 -223.7458 392.4412)" class="st5" cx="202.5" cy="375.5" rx="49.9" ry="49.9"/>
	</g>
	<g class="st2">
		
			<ellipse transform="matrix(0.4393 -0.8984 0.8984 0.4393 -101.4109 303.4057)" class="st5" cx="192.3" cy="232.9" rx="49.9" ry="49.9"/>
	</g>
	<g class="st2">
		
			<ellipse transform="matrix(0.9557 -0.2942 0.2942 0.9557 -78.1351 84.9576)" class="st3" cx="243.3" cy="302.2" rx="49.9" ry="49.9"/>
	</g>
	<path class="st9" d="M428,61.3c0,0-33,44.2-84.2,57s-101.1-10.6-101.1-10.6s33-44.2,84.2-57S428,61.3,428,61.3z"/>
	<path class="st7" d="M231,269.6c0.4,0.9-1,2.7-3.6,5.8c-2.3,2.8-4.7,4.8-6.3,6c0.3,2.7,0.4,6.9-0.8,11.8c-0.7,2.7-1,4-1.7,4.2
		c-2.5,0.7-12.1-10.6-7.1-20.6C216.3,267.3,229.9,267.3,231,269.6z"/>
	<path class="st7" d="M176.7,202.3c0.4,0.9-1,2.7-3.6,5.8c-2.3,2.8-4.7,4.8-6.3,6c0.3,2.7,0.4,6.9-0.8,11.8c-0.7,2.7-1,4-1.7,4.2
		c-2.5,0.7-12.1-10.6-7.1-20.6C162,200,175.6,200,176.7,202.3z"/>
	<path class="st7" d="M114.6,202.3c0.4,0.9-1,2.7-3.6,5.8c-2.3,2.8-4.7,4.8-6.3,6c0.3,2.7,0.4,6.9-0.8,11.8c-0.7,2.7-1,4-1.7,4.2
		c-2.5,0.7-12.1-10.6-7.1-20.6C99.9,200,113.5,200,114.6,202.3z"/>
	<path class="st7" d="M183.1,347.2c0.4,0.9-1,2.7-3.6,5.8c-2.3,2.8-4.7,4.8-6.3,6c0.3,2.7,0.4,6.9-0.8,11.8c-0.7,2.7-1,4-1.7,4.2
		c-2.5,0.7-12.1-10.6-7.1-20.6C168.4,344.9,182.1,344.9,183.1,347.2z"/>
	<path class="st7" d="M223.2,155.8c0.4,0.9-1,2.7-3.6,5.8c-2.3,2.8-4.7,4.8-6.3,6c0.3,2.7,0.4,6.9-0.8,11.8c-0.7,2.7-1,4-1.7,4.2
		c-2.5,0.7-12.1-10.6-7.1-20.6C208.5,153.5,222.2,153.5,223.2,155.8z"/>
	<path class="st7" d="M309.9,158.4c0.4,0.9-1,2.7-3.6,5.8c-2.3,2.8-4.7,4.8-6.3,6c0.3,2.7,0.4,6.9-0.8,11.8c-0.7,2.7-1,4-1.7,4.2
		c-2.5,0.7-12.1-10.6-7.1-20.6C295.2,156.1,308.8,156.1,309.9,158.4z"/>
</g>
<g id="Layer_1_1_" class="st1">
	<path class="st10" d="M357.9,287c0,0,18.1,30,7.1,39c0,0-17,31-21,29c0,0-16,14-18,12c0,0-7,16-7,18c0,0-17,16-13,19s13,14,13,14
		l14-10c0,0-3-7-4-13s17-16,13-21c0,0,15-19,21-21s-1-3-1-3s17-10,24-12s14-21,6-24l-19-30L357.9,287z"/>
	<path class="st11" d="M319,249c7,8.3,18.3,20.8,34,34c25,21,40.7,23.3,47,40c3,8,16,42,3,57c0,0-7,12-5,24c-0.3,1.1-1,2.7-2.3,4.4
		c-3.2,4.1-7,3.6-8.8,6.6c-1.7,3-0.7,8.3,2,10c3,1.9,6.4-1.7,14.3-2.6c4.5-0.5,8.3,0.1,10.7,0.6c-0.8-2.3-1.7-4.7-2.8-7.1
		c-1.4-3.2-2.8-6.2-4.3-8.9c0,0,18-15,14-18c0,0,1-32-2-38s13-22,8-40c0,0-23-11-33-37s-52-37-52-37s-1.1-0.7-3-2
		C332.3,239.7,325.7,244.3,319,249z"/>
	<path class="st10" d="M135,233c-12.7,13.3-25.3,26.7-38,40c0,0-12,13-23,14s-14,32-14,32s-10,30-15,31s-3,21-3,21
		c1.5,3.7,3.1,9,1,14c-2,4.9-6.2,6.4-6,10c0.1,2.1,1.6,4.9,8,8c3.3-1.3,6.7-2.7,10-4c3-3.3,6-6.7,9-10c-2.7-3.7-5.3-7.3-8-11
		c1.7-6.3,3.3-12.7,5-19c-0.1-11,2.8-18.6,5-23c2.4-4.7,5.6-8.5,12-16c5.5-6.4,9.3-10.9,14-15c10.4-9.1,20.7-12.6,27-15
		c11.5-4.4,27.6-12.4,47-28"/>
	<path class="st11" d="M27.8,73.5C26.5,65.9,24.2,59.6,22,55c0,0,17.9,5,21.4,19c3.6,14,0,0,0,0L64,60l50-5l53,31l46,36
		c8,3.1,16.3,6.1,25,9c16.7,5.6,32.8,10.2,48,14c8.3,0.1,17.4-0.2,27-1c10.9-0.9,20.9-2.3,30-4c0,0,40-7,45-3c2.5-0.2,6-0.2,10,0.4
		c2.3,0.3,8.9,1.4,15,4.6c11.7,6.1,16.7,17.6,20,25c0.9,1.9,4.1,9.4,5.5,20.1c1.7,12.7,0.1,23.3-1.5,29.9c0,0-17,42-21,41
		s-14,12-24,16s-55-31.5-55-31.5l-4-2.5c0,0,4,9-40,21h-62c-3.3,2-6.1,3-7.8,3.6c-15.6,5.4-31.2,0.2-48.2,2.4l0,0
		c-3.5,0.7-9.3,1.8-17,1c-0.4,0-7.5-0.8-13-3c-15.3-6.1-21.8-24.5-23-28c0,0-5-32,5-66s2-1,2-1l-19-59c-3.7,1.7-8.8,3.2-13,1
		c-4.4-2.3-6.1-7.9-6-8c0.2-0.1,12,13.1,11.8,26.8C102.5,146.5,91,156.4,89,158c2.1,5.1,8.6,21.2,11,34c0.4,2.1,0.9,5.2,0,9
		c-1.4,6.1-5.6,10-8,12l-10,5c-10,0.1-13.9-3.3-15.5-5.3c-0.8-1-1.3-1.9-3.5-6.8c-2-4.4-3.7-8.2-5-11c-8.7-24-17.3-48-26-72
		c-2.3-5.7-4.7-11.3-7-17C27.1,99.5,30,87.8,27.8,73.5z"/>
	<path class="st12" d="M411,141l50-7c0,0,26,3,27,28c0,0-7,95-2,96s-1,1-1,1s5,37,10,37c0,0,8,11,10,10l-4,2l4,3c0,0-3,4-13,2
		c0,0-17-11-18-37c0,0-4,2-3,15c0,0-11-4-6-55l-7,5v-15c0,0-5,15-10,13c0,0,16-41,6-53l-3,4c0,0-2-22-18-23C433,167,420,146,411,141
		z"/>
	<path class="st11" d="M172,261l18,55c0,0,1,35,7,44c0,0,11,23,3,36c0,0-3,19-1,22c-6.7,8-13.3,16-20,24c4,1.7,8,3.3,12,5l18-6l4-6
		l-4-13c0,0,13-17,11-20s-7-29-7-38c3-36.7,6-73.3,9-110"/>
	<path class="st13" d="M306,404c0,0,22,0,26,4s-13,15-13,15l-13,4h-13C293,427,289,418,306,404z"/>
	<path class="st13" d="M185,435c0,0,20,5,27,0c0,0,4,12-3,17c0,0-21,2-24,6c0,0-12,3-10-12C175,446,184,438,185,435z"/>
	<path class="st13" d="M37,395l25-10c0,0,5,7,0,14s-20,19-20,19s-11,2-5-9V395z"/>
	<path class="st13" d="M387,415c2.6,0.8,5.5,1.6,8.6,2.3c6.9,1.4,13.1,1.8,18.4,1.8c0,2.2-0.4,6.1-2.5,10.3c-1,1.9-2.1,4.1-4.5,5.7
		c-1.2,0.8-3,1.8-13,2c-8.8,0.2-7.8-0.5-12,0c-1.9,0.2-4.1,0.6-7,0c-2.2-0.5-3.9-1.3-5-2C375.7,428.3,381.3,421.7,387,415z"/>
	<path class="st10" d="M23,96c-1.2-3.1-9.2-24.2-12-35c-0.2-0.8-0.6-2.3,0-2.6C13.3,56.9,28.1,76,28.1,76l0.2,13.7
		C26.6,91.8,24.8,93.9,23,96z"/>
	<path class="st12" d="M40,95l-5,14l-2-5c0,0-9,19,0,54c0,0-6-5-8-16c0,0,0,7-1,8c0,0-9-22,0-41l-4,2c0,0-6-8,12-25c0,0,28-34,53-35
		h4l-2-2l17-1h1l4-2l3,2c0,0,23-1,41,13l5-2v5l2-1l23,23l13,14l13,19l-1,17l-3-3l-3-12l-4,8l-1-9l-3,10l-2-10c0,0-5,19-21,26
		c0,0,16-16,14-30l-1-2l-2,6l-1-6c0,0-3,9-4,8s-2-15-4-15c0,0-1,6-3,7l-1-12c0,0-6,31-8,29l1-31l-6-14l-2,6l-3-13c0,0,0,30-2,29
		c0,0-4-34-11-38c0,0-1,7-3,9s-2-8-2-8l-2,6l-3-6h-3l-1,5l-5-11c0,0,2,17-1,23c0,0-3-18-5-18s-2,4-2,4l-3-3l-1,4l-3-3c0,0,1,12-1,15
		c0,0-2-13-11-21c0,0,7,7,2,24l-3-7v4l-5-5l1,12c0,0-6-11-19-17c0,0,6,8,3,16l-3-6l-1,5c0,0-8-8-11-7s-1,0-1,0l1,7l-4-8L40,95z"/>
	<path class="st2" d="M61,130c-0.1-0.1-0.3-0.1-1,0c-1.6,0.3-2.4,0.4-2.9,0.6c-1,0.4-1.7,1-2.1,1.4c-0.4,0.3-0.7,0.6-1,1
		c-0.6,0.8-0.9,1.6-1,2c-0.4,1.3-0.1,2.5,0,3c0.5-0.2,1.2-0.5,2-1c0.7-0.4,1.8-1,3-2c0.8-0.7,1.4-1.2,2-2
		C60.7,132,61.5,130.4,61,130z"/>
	<ellipse class="st14" cx="56.1" cy="132.8" rx="1.1" ry="1.2"/>
	<path class="st15" d="M55,187c2.3,0.9,6.5,2.3,12,2c5.1-0.3,8.9-1.9,11-3c0.8-1.4,10-15.9,16-14c1.4,0.5,2.6,1.8,5,10
		c4.2,14.6,6.3,21.9,3,27c-4.3,6.5-14.6,8.8-16,7c-0.5-0.6-0.1-2,0-2s0.6,3-0.7,5.9c-0.3,0.8-0.6,1.4-1.3,2.1
		c-1.9,1.8-4.9,1.4-6.9,1.1c0,0-2.3-0.3-4.1-1.1C69.1,220.3,61.7,206.7,55,187z"/>
	<path class="st16" d="M90.1,200c-0.3-2.2-0.8-6-1.7-6.1c-0.4,0-0.7,0.5-0.9,1c0.6,2.4,1.3,5.9,1.3,10.1c0,6.3-1.5,11.1-1,11.3
		c0.4,0.1,1.5-2.1,2.1-4.3C91.2,207.9,90.8,204.6,90.1,200z"/>
	
		<ellipse transform="matrix(0.2627 -0.9649 0.9649 0.2627 -139.259 219.0565)" class="st16" cx="73.7" cy="200.6" rx="3.5" ry="7.5"/>
</g>
<g id="Layer_2" class="st1">
	<path class="st17" d="M402.4,209C402.5,209,402.5,209,402.4,209C402.5,208.9,402.5,208.9,402.4,209c0.1-0.1,0.1-0.1,0.1-0.2
		c8.1-12.2,13.4-25.5,15.4-39.7C429.4,103.5,356.1,34.9,253.8,35C151.5,34.9,78.2,103.5,89.5,169.1c2.2,15.2,8.1,29.3,17.2,42.3
		c0.2,0.4,0.5,0.7,0.7,1.1c-0.1,0.1-0.3,0.2-0.4,0.3c48.8,63,90.3,129.5,124.4,198.1h43c32.5-65.2,71.9-128.5,117.8-188.8l0,0l0,0
		C396.1,217.9,399.5,213.5,402.4,209L402.4,209z"/>
	<path class="st14" d="M384,209.6C384.1,209.5,384.1,209.5,384,209.6C384.1,209.5,384.1,209.5,384,209.6c0.1-0.1,0.1-0.1,0.1-0.2
		c7.1-11.8,11.7-24.5,13.5-38.1c9.9-63-54.3-128.8-143.9-128.7c-89.6-0.1-153.9,65.8-143.9,128.7c1.9,14.6,7.1,28.1,15.1,40.6
		c0.2,0.3,0.4,0.7,0.7,1c-0.1,0.1-0.2,0.2-0.3,0.3c42.7,60.5,79.2,124.3,109,190.2H272c28.5-62.6,63-123.4,103.2-181.2l0,0l0,0
		C378.5,218.1,381.4,213.9,384,209.6L384,209.6z"/>
	<path class="st17" d="M354,209.6C354,209.5,354.1,209.5,354,209.6C354.1,209.5,354.1,209.5,354,209.6c0.1-0.1,0.1-0.1,0.1-0.2
		c5.5-11.8,9-24.5,10.4-38.1c7.7-63-41.8-128.8-110.8-128.7c-69-0.1-118.4,65.8-110.8,128.7c1.5,14.6,5.5,28.1,11.6,40.6
		c0.2,0.3,0.3,0.7,0.5,1c-0.1,0.1-0.2,0.2-0.3,0.3c32.9,60.5,60.9,124.3,83.9,190.2h29c21.9-62.6,48.5-123.4,79.4-181.2l0,0l0,0
		C349.7,218.1,352,213.9,354,209.6L354,209.6z"/>
	<path class="st14" d="M306.2,207.3L306.2,207.3C306.2,207.3,306.2,207.2,306.2,207.3c0-0.1,0-0.1,0-0.2c2.9-11.9,4.7-24.8,5.4-38.5
		c4-63.7-21.8-130.3-57.9-130.2c-36.1-0.1-61.9,66.5-57.9,130.2c0.8,14.7,2.9,28.5,6.1,41c0.1,0.3,0.2,0.7,0.3,1
		c0,0.1-0.1,0.2-0.1,0.3c17.2,61.2,31.8,125.8,43.9,192.4h15.2c11.5-63.3,25.3-124.8,41.5-183.3l0,0l0,0
		C303.9,215.9,305.1,211.7,306.2,207.3L306.2,207.3z"/>
	<polygon class="st18" points="241.1,441.5 240.2,441.6 232.6,410.2 233.5,410.1 	"/>
	<polygon class="st18" points="241.4,441.8 240.6,441.5 246.4,409.8 247.2,410 	"/>
	<polygon class="st18" points="268.3,441.5 267.5,441.6 259.9,410.2 260.7,410.1 	"/>
	<polygon class="st18" points="268.7,441.8 267.9,441.5 273.7,409.8 274.5,410 	"/>
	<ellipse class="st19" cx="253.6" cy="410" rx="21.8" ry="2.1"/>
	<g class="st2">
		<path class="st20" d="M234.5,443.5c0-1.1,0.9-2,2-2h33.8c1.1,0,2,0.9,2,2v25.6c0,1.1-0.9,2-2,2h-33.8c-1.1,0-2-0.9-2-2
			L234.5,443.5L234.5,443.5z"/>
	</g>
	<path class="st21" d="M272.3,443.6h-37.9c-0.6,0-1-0.5-1-1v-2.2c0-0.6,0.4-1,1-1h37.9c0.5,0,1,0.4,1,1v2.2
		C273.3,443.2,272.9,443.6,272.3,443.6z"/>
</g>
<g id="Layer_3" class="st1">
	<rect x="12.5" y="259.8" class="st22" width="311.5" height="119.2"/>
	<path class="st23" d="M41.9,248.3"/>
	<path class="st24" d="M12.5,259.8c16.9-27.9,33.7-55.8,50.6-83.7c81.4-0.5,162.9-1.1,244.3-1.6c5.5,28.4,11,56.9,16.5,85.3H12.5z"
		/>
	<path class="st25" d="M122.1,257.9c9.5-27.5,19-55.1,28.6-82.6c43-0.3,86-0.5,128.9-0.8c5.7,27.8,11.4,55.6,17.2,83.4
		C238.5,257.9,180.3,257.9,122.1,257.9z"/>
	<path class="st24" d="M124.8,257.9c13.6-41.1,27.2-82.1,40.8-123.2c47.7,0.3,95.5,0.6,143.2,0.9c5.9,40.8,11.8,81.5,17.8,122.3
		C259.2,257.9,192,257.9,124.8,257.9z"/>
	<rect x="122.1" y="255.5" class="st14" width="199.7" height="1.7"/>
	<rect x="10.5" y="259.2" class="st14" width="180.1" height="2.6"/>
	<polygon class="st24" points="309.8,155.6 346.8,155.4 371.8,259.6 321.8,259.6 	"/>
	<path class="st24" d="M346.4,167.6l101.5-0.3l32.2,92.3c-36.4,0.3-72.9,0.5-109.3,0.8C362.6,229.5,354.5,198.5,346.4,167.6z"/>
	<rect x="320.1" y="258.8" class="st14" width="163.1" height="2.9"/>
	<path class="st26" d="M323.9,359.1c21.8-0.3,43.6-0.5,65.4-0.8c-0.3-32.4-0.5-64.7-0.8-97.1l-64.6,0.5V359.1z"/>
	<path class="st27" d="M328.1,375c-1.3,1.3-2.7,2.7-4,4L328.1,375z"/>
	<polygon class="st28" points="324.1,262 324.1,379 328.1,376.6 328.1,262 	"/>
	<path class="st29" d="M173.9,160.7c-0.1,0.6-0.4,1.3-1,1.9c-2.7,3.1-5.4,5.9-8.5,8.2c-0.1,1.9-1.4,3.8-3.8,3.8c-0.1,0-0.3,0-0.4,0
		v49.2h74v-60.4C214.1,162.5,194,161.6,173.9,160.7z"/>
	<path class="st29" d="M305,167.7c-0.6-0.6-1-1.3-1.1-2h-69.7v63.7h78v-55.8C309.4,172.1,307.1,169.9,305,167.7z"/>
	<rect x="161" y="220.6" class="st30" width="150.4" height="0.8"/>
	<path class="st30" d="M233.6,225.4c0,0.3,0.1,0.5,0.1,0.8h77.7v-0.8H233.6z"/>
	<rect x="161" y="216.6" class="st30" width="150.4" height="0.8"/>
	<rect x="161" y="211.9" class="st30" width="150.4" height="0.8"/>
	<rect x="161" y="207.1" class="st30" width="150.4" height="0.8"/>
	<rect x="161" y="202.3" class="st30" width="150.4" height="0.8"/>
	<rect x="161" y="197.5" class="st30" width="150.4" height="0.8"/>
	<rect x="161" y="192.8" class="st30" width="150.4" height="0.8"/>
	<rect x="161" y="188" class="st30" width="150.4" height="0.8"/>
	<rect x="161" y="183.2" class="st30" width="150.4" height="0.8"/>
	<rect x="161" y="178.4" class="st30" width="150.4" height="0.8"/>
	<rect x="161" y="173.7" class="st30" width="150.4" height="0.8"/>
	<path class="st30" d="M166.3,169.7h138c-0.1-0.3-0.3-0.5-0.4-0.8l0,0H167.1C166.8,169.2,166.6,169.4,166.3,169.7z"/>
	<rect x="286" y="117" class="st29" width="5.5" height="18.4"/>
	<ellipse class="st29" cx="288.7" cy="121.7" rx="6.2" ry="2.1"/>
	<ellipse class="st29" cx="289.1" cy="115.8" rx="8" ry="2.9"/>
	<path class="st14" d="M301.1,165.6l-0.1-0.1c-0.9-0.5-1.5-1.4-1.8-2.4c-0.2-0.5-0.2-1-0.1-1.5h-127v4H301.1
		C301.2,165.7,301.2,165.7,301.1,165.6z"/>
	<rect x="170.1" y="180.4" class="st31" width="48.5" height="36.6"/>
	<path class="st24" d="M186,161.7c16.3-16.7,32.6-33.4,49-50.1c16.4,16.4,32.7,32.9,49.1,49.3L186,161.7z"/>
	<rect x="223" y="119.6" class="st32" width="23.1" height="34.2"/>
	<path class="st24" d="M277.6,138.4l-42.6-42c-35.3,35.5-70.6,71.1-105.8,106.6l3.2,3.2L235,101.3l39.2,39.5
		C275.3,139.8,276.4,139,277.6,138.4z"/>
	<path class="st33" d="M272.3,142.7c-12.5-12.8-24.9-25.5-37.4-38.3c-34.2,35.5-68.4,71.1-102.7,106.6c1.1,0.8,2.1,1.6,3.2,2.4
		c33.2-35,66.3-70,99.5-105.1c11.7,12.3,23.5,24.6,35.2,36.9C270.8,144.5,271.5,143.6,272.3,142.7z"/>
	<path class="st34" d="M275.5,139.7L235,98.9l-105.8,109l3.2,3.2L235,106l36.9,37.2C273,142,274.2,140.7,275.5,139.7z"/>
	<path class="st34" d="M269.3,146.5c0.5-0.6,1-1.3,1.6-2c-12-12.3-24-24.5-35.9-36.8c-34,34.8-67.9,69.5-101.9,104.3
		c0.5,0.8,1.1,1.6,1.6,2.4L235,111.6C246.4,123.2,257.9,134.9,269.3,146.5L269.3,146.5z"/>
	<rect x="248.5" y="179.2" class="st31" width="48.5" height="43.8"/>
	<polygon class="st28" points="238.5,229.4 237.8,174.5 233.9,175.6 234.5,229.4 	"/>
	<rect x="193.6" y="181.6" class="st30" width="1.6" height="34.2"/>
	<rect x="272.4" y="180.8" class="st30" width="1.6" height="39.8"/>
	<rect x="227.8" y="125.9" class="st24" width="12.7" height="23.1"/>
	<path class="st30" d="M241,129.9h-13.8v0.1c0,0.2,0,0.5,0,0.7H241C241.1,130.4,241.1,130.2,241,129.9z"/>
	<path class="st30" d="M241,128.3h-13.7c0,0.1,0,0.2,0,0.3c0,0.2,0,0.3,0,0.5H241C241,128.8,241,128.6,241,128.3z"/>
	<path class="st30" d="M240.9,127.3c0-0.2,0-0.4,0-0.6H227c0.1,0.3,0.1,0.5,0.1,0.8h13.7C240.9,127.4,240.9,127.4,240.9,127.3z"/>
	<line class="st35" x1="246.1" y1="135.5" x2="223.8" y2="135.5"/>
	<path class="st30" d="M241.3,133.1h-13.9c0,0.3,0,0.5,0,0.8h13.9c0-0.2,0-0.4,0-0.5S241.3,133.2,241.3,133.1z"/>
	<path class="st30" d="M241.2,131.5h-13.9c0,0.3,0,0.5,0,0.8h13.9C241.2,132,241.2,131.8,241.2,131.5z"/>
	<line class="st35" x1="246.1" y1="138.7" x2="223.8" y2="138.7"/>
	<path class="st30" d="M241.3,136.3h-13.8c0,0.3,0,0.5,0,0.8h13.7C241.3,136.8,241.3,136.5,241.3,136.3z"/>
	<path class="st30" d="M241.3,134.7h-13.9c0,0.3,0,0.5,0,0.8h14v-0.1c0-0.1,0-0.1,0-0.2C241.4,135,241.4,134.8,241.3,134.7z"/>
	<line class="st35" x1="246.1" y1="141.8" x2="223.8" y2="141.8"/>
	<path class="st30" d="M241.3,139.5h-13.6c0,0.3,0,0.5,0,0.8h13.5c0-0.1,0.1-0.3,0.2-0.4C241.4,139.7,241.3,139.6,241.3,139.5z"/>
	<path class="st30" d="M241.3,141h-13.6c0,0.3,0,0.5,0,0.8h13.5c0-0.1,0.1-0.3,0.2-0.4C241.4,141.3,241.3,141.2,241.3,141z"/>
	<path class="st30" d="M241.3,142.6h-13.6c0,0.3,0,0.5,0,0.8h13.5c0-0.1,0.1-0.3,0.2-0.4C241.4,142.9,241.3,142.8,241.3,142.6z"/>
	<path class="st30" d="M241.3,144.2h-13.6c0,0.3,0,0.5,0,0.8h13.5c0-0.1,0.1-0.3,0.2-0.4C241.4,144.5,241.3,144.4,241.3,144.2z"/>
	<path class="st30" d="M241.3,145.8h-13.6c0,0.3,0,0.5,0,0.8h13.5c0-0.1,0.1-0.3,0.2-0.4C241.4,146.1,241.3,146,241.3,145.8z"/>
	<path class="st30" d="M241.4,137.9h-13.8c0,0.3,0,0.5,0,0.8h13.6C241.3,138.4,241.3,138.1,241.4,137.9z"/>
	<line class="st35" x1="246.1" y1="145" x2="223.8" y2="145"/>
	<rect x="227.4" y="123.9" class="st36" width="14.3" height="25.1"/>
	<path class="st30" d="M222.9,149.8c0,0.1,0,0.2,0,0.3c0,0.2,0,0.3,0,0.5h23.2v-0.8H222.9z"/>
	<rect x="333.6" y="287.4" class="st37" width="39.8" height="69.4"/>
	<path class="st14" d="M378.1,255.6h104.4c-1.5-0.9-2.1-2.5-1.7-4H380.5c-0.3,1.3-1.3,2.5-2.5,3C378.1,255,378.1,255.3,378.1,255.6z
		"/>
	<rect x="171.5" y="187.2" class="st30" width="44.6" height="1.6"/>
	<rect x="171.3" y="198.3" class="st30" width="46.2" height="1.6"/>
	<rect x="171.3" y="208.7" class="st30" width="46.2" height="1.6"/>
	<g class="st2">
		<rect x="418.8" y="209.5" class="st38" width="23.1" height="34.2"/>
		<path class="st39" d="M436.8,219.8H423v0.1c0,0.2,0,0.5,0,0.7h13.8C436.9,220.4,436.8,220.1,436.8,219.8z"/>
		<path class="st39" d="M436.7,218.2H423c0,0.1,0,0.2,0,0.3c0,0.2,0,0.3,0,0.5h13.8C436.8,218.8,436.8,218.5,436.7,218.2z"/>
		<path class="st39" d="M436.7,217.2c0-0.2,0-0.4,0-0.6h-13.9c0.1,0.3,0.1,0.5,0.1,0.8h13.7C436.7,217.4,436.7,217.3,436.7,217.2z"
			/>
		<path class="st39" d="M437.1,223h-13.9c0,0.3,0,0.5,0,0.8H437c0-0.2,0-0.4,0-0.5C437.1,223.2,437.1,223.1,437.1,223z"/>
		<path class="st39" d="M436.9,221.4H423c0,0.3,0,0.5,0,0.8h14C437,222,436.9,221.7,436.9,221.4z"/>
		<path class="st39" d="M437.1,226.2h-13.8c0,0.3,0,0.5,0,0.8H437C437,226.7,437,226.5,437.1,226.2z"/>
		<path class="st39" d="M437.1,224.6h-13.9c0,0.3,0,0.5,0,0.8h14v-0.1c0-0.1,0-0.1,0-0.2C437.2,224.9,437.1,224.8,437.1,224.6z"/>
		<path class="st39" d="M437.1,229.4h-13.6c0,0.3,0,0.5,0,0.8H437c0-0.1,0.1-0.3,0.2-0.4C437.1,229.7,437.1,229.5,437.1,229.4z"/>
		<path class="st39" d="M437.1,231h-13.6c0,0.3,0,0.5,0,0.8H437c0-0.1,0.1-0.3,0.2-0.4C437.1,231.2,437.1,231.1,437.1,231z"/>
		<path class="st39" d="M437.1,232.6h-13.6c0,0.3,0,0.5,0,0.8H437c0-0.1,0.1-0.3,0.2-0.4C437.1,232.8,437.1,232.7,437.1,232.6z"/>
		<path class="st39" d="M437.1,234.2h-13.6c0,0.3,0,0.5,0,0.8H437c0-0.1,0.1-0.3,0.2-0.4C437.1,234.4,437.1,234.3,437.1,234.2z"/>
		<path class="st39" d="M437.1,235.7h-13.6c0,0.3,0,0.5,0,0.8H437c0-0.1,0.1-0.3,0.2-0.4C437.1,236,437.1,235.9,437.1,235.7z"/>
		<path class="st39" d="M437.2,227.8h-13.8c0,0.3,0,0.5,0,0.8H437C437.1,228.3,437.1,228.1,437.2,227.8z"/>
		<rect x="423.2" y="213.9" class="st40" width="14.3" height="25.1"/>
		<path class="st39" d="M418.6,239.7c0,0.1,0,0.2,0,0.3c0,0.2,0,0.3,0,0.5h23.2v-0.8H418.6z"/>
	</g>
	<rect x="193.2" y="179.6" class="st41" width="27.1" height="37.4"/>
	<path class="st33" d="M489.7,263.3c0.1-0.3,0.2-0.5,0.4-0.8c-19.7-20.2-39.4-40.4-59.2-60.6c-19.2,20-38.5,40-57.7,60
		c0.4,0.4,0.7,0.8,0.9,1.2c0.8,0.3,1.4,0.7,1.9,1.3c18.3-19.3,36.6-38.7,54.9-58c18.8,19.7,37.5,39.4,56.3,59.1
		c0.4-0.3,0.9-0.5,1.5-0.7C489,264.3,489.3,263.7,489.7,263.3z"/>
	<path class="st34" d="M493.2,260.1c0.2-0.2,0.4-0.4,0.6-0.5c0-0.1,0.1-0.3,0.1-0.4l-63-63.5l-61.1,62.9c1.1,0.5,1.8,1.5,2.1,2.6
		c0.7,0.3,1.2,0.7,1.6,1.2l57.3-58.6l58.9,59.3C490.5,261.6,491.7,260.3,493.2,260.1z"/>
	<path class="st34" d="M488.8,264.8L431,205.6l-56.4,57.7c1.1,0.5,1.8,1.3,2.2,2.3l54.3-55.6c18.5,18.8,37,37.6,55.4,56.3
		C486.9,265.6,487.7,265.1,488.8,264.8L488.8,264.8z"/>
	<rect x="387" y="261.2" class="st29" width="95.5" height="97.9"/>
	<path class="st24" d="M493.2,260.1c0.2-0.2,0.4-0.4,0.6-0.6c0.4-1.1,1.1-2,2.2-2.5l-65.1-64.1L368,256.3c0.9,0.5,1.5,1.3,1.8,2.3
		c0.5,0.2,1,0.6,1.3,1l59.8-61.2l61.5,62C492.7,260.2,492.9,260.1,493.2,260.1z"/>
	<rect x="250.3" y="190.4" class="st30" width="44.6" height="1.6"/>
	<rect x="250" y="201.5" class="st30" width="44.6" height="1.6"/>
	<rect x="250.9" y="211.8" class="st30" width="44.6" height="1.6"/>
	<circle class="st31" cx="-1" cy="272.8" r="0"/>
	<path class="st24" d="M325,190.8c0.2-0.2,0.3-0.3,0.5-0.5c0.3-0.9,1-1.8,1.9-2.2L270,131.5l-55.5,56c0.8,0.5,1.3,1.2,1.6,2
		c0.5,0.2,0.8,0.5,1.1,0.9l52.8-54l54.3,54.7C324.5,190.9,324.7,190.8,325,190.8z"/>
	<path class="st33" d="M321.9,193.6c0.1-0.2,0.2-0.5,0.3-0.7c-17.4-17.8-34.8-35.7-52.2-53.5c-17,17.7-34,35.3-51,53
		c0.3,0.3,0.6,0.7,0.8,1.1c0.7,0.2,1.3,0.6,1.7,1.2c16.2-17.1,32.3-34.1,48.5-51.2c16.6,17.4,33.1,34.8,49.7,52.2
		c0.4-0.3,0.8-0.5,1.3-0.6C321.2,194.5,321.5,194,321.9,193.6z"/>
	<path class="st34" d="M325,190.8c0.2-0.2,0.3-0.3,0.5-0.5c0-0.1,0.1-0.2,0.1-0.3L270,133.9l-54,55.5c1,0.5,1.6,1.3,1.9,2.3
		c0.6,0.2,1.1,0.6,1.5,1.1L270,141l52,52.4C322.6,192.1,323.7,191,325,190.8z"/>
	<path class="st34" d="M321.1,194.9L270,142.6l-49.8,51c0.9,0.4,1.6,1.2,1.9,2l47.9-49.1c16.3,16.6,32.6,33.2,48.9,49.7
		C319.4,195.7,320.1,195.2,321.1,194.9C321,195,321.1,195,321.1,194.9z"/>
	<rect x="27.8" y="284.8" class="st42" width="94.2" height="94.2"/>
	<polygon class="st14" points="29.1,379 23.2,379 22.9,279 127.8,279 127.8,379 120.9,379 120.9,285.4 29.1,285.4 	"/>
	<path class="st43" d="M29.1,285.4c1.1,0,2.1,0,3.2,0c0,31.2,0,62.4,0,93.6h-3.2C29.1,347.8,29.1,316.6,29.1,285.4z"/>
	<rect x="33.6" y="361.8" class="st37" width="40.7" height="16.5"/>
	<rect x="33.9" y="343.1" class="st37" width="40.7" height="16.5"/>
	<rect x="33.9" y="324.6" class="st37" width="40.7" height="16.5"/>
	<rect x="33.9" y="287.7" class="st37" width="40.7" height="16.5"/>
	<rect x="33.9" y="306.2" class="st37" width="40.7" height="16.5"/>
	<rect x="77.8" y="361.8" class="st37" width="40.7" height="16.5"/>
	<rect x="78.1" y="343.1" class="st37" width="40.7" height="16.5"/>
	<rect x="78.1" y="324.6" class="st37" width="40.7" height="16.5"/>
	<rect x="78.1" y="287.7" class="st37" width="40.7" height="16.5"/>
	<rect x="78.1" y="306.2" class="st37" width="40.7" height="16.5"/>
	<rect x="78.2" y="288" class="st44" width="13.5" height="16"/>
	<rect x="91.6" y="288" class="st44" width="14.7" height="16"/>
	<rect x="105.7" y="288" class="st44" width="13.5" height="16"/>
	<rect x="33.9" y="288" class="st44" width="13.5" height="16"/>
	<rect x="47.4" y="288" class="st44" width="14.7" height="16"/>
	<rect x="61.5" y="288" class="st44" width="13.5" height="16"/>
	<rect x="158.6" y="284.2" class="st42" width="94.2" height="94.8"/>
	<path class="st14" d="M160.9,379c-2.1,0-4.1,0-6.2,0c0-33.8,0-67.5,0-101.3c49.3,0,98.7,0,148,0c0.2,33.8,0.4,67.5,0.6,101.3
		c-2.3,0-4.6,0-7,0v-94.8H160.9V379z"/>
	<path class="st43" d="M159.9,284.2c1.1,0,2.1,0,3.2,0c0,31.6,0,63.2,0,94.8h-3.2C159.9,347.4,159.9,315.8,159.9,284.2z"/>
	<rect x="164.3" y="361.8" class="st37" width="40.7" height="16.5"/>
	<rect x="164.7" y="343.1" class="st37" width="40.7" height="16.5"/>
	<rect x="164.7" y="324.6" class="st37" width="40.7" height="16.5"/>
	<rect x="164.7" y="306.2" class="st37" width="40.7" height="16.5"/>
	<rect x="208.6" y="361.8" class="st37" width="40.7" height="16.5"/>
	<rect x="208.9" y="343.1" class="st37" width="40.7" height="16.5"/>
	<rect x="208.9" y="324.6" class="st37" width="40.7" height="16.5"/>
	<rect x="207.6" y="287.7" class="st37" width="40.7" height="16.5"/>
	<rect x="208.9" y="306.2" class="st37" width="40.7" height="16.5"/>
	<rect x="208.9" y="288" class="st44" width="13.5" height="16"/>
	<rect x="222.3" y="288" class="st44" width="14.7" height="16"/>
	<rect x="236.4" y="288" class="st44" width="13.5" height="16"/>
	<rect x="164.7" y="288" class="st44" width="13.5" height="16"/>
	<rect x="178.1" y="288" class="st44" width="14.7" height="16"/>
	<rect x="192.2" y="288" class="st44" width="13.5" height="16"/>
	<rect x="251.5" y="284.2" class="st42" width="45.5" height="94.8"/>
	<rect x="252.8" y="361.8" class="st37" width="40.7" height="16.5"/>
	<rect x="253.1" y="343.1" class="st37" width="40.7" height="16.5"/>
	<rect x="253.1" y="324.6" class="st37" width="40.7" height="16.5"/>
	<rect x="253.1" y="306.2" class="st37" width="40.7" height="16.5"/>
	<rect x="253.1" y="288" class="st44" width="13.5" height="16"/>
	<rect x="266.6" y="288" class="st44" width="14.7" height="16"/>
	<rect x="280.7" y="288" class="st44" width="13.5" height="16"/>
	<rect x="338.8" y="311" class="st37" width="10.2" height="43.4"/>
	<rect x="358.1" y="310.9" class="st37" width="9.8" height="43.4"/>
	<rect x="338.5" y="291.3" class="st45" width="29.4" height="15.4"/>
	<rect x="352.6" y="291.7" class="st30" width="1.3" height="15.4"/>
	<rect x="338.2" y="298.7" class="st30" width="29.4" height="1.4"/>
	<rect x="387" y="320.9" class="st30" width="95.5" height="0.8"/>
	<rect x="387" y="316.1" class="st30" width="95.5" height="0.8"/>
	<rect x="387" y="311.4" class="st30" width="95.5" height="0.8"/>
	<rect x="387" y="306.6" class="st30" width="95.5" height="0.8"/>
	<rect x="387" y="301.8" class="st30" width="95.5" height="0.8"/>
	<rect x="387" y="297" class="st30" width="95.5" height="0.8"/>
	<rect x="387" y="349.6" class="st30" width="95.5" height="0.8"/>
	<rect x="387" y="354.3" class="st30" width="95.5" height="0.8"/>
	<rect x="387" y="344.8" class="st30" width="95.5" height="0.8"/>
	<rect x="387" y="340" class="st30" width="95.5" height="0.8"/>
	<rect x="387" y="335.2" class="st30" width="95.5" height="0.8"/>
	<rect x="387" y="330.5" class="st30" width="95.5" height="0.8"/>
	<rect x="387" y="325.7" class="st30" width="95.5" height="0.8"/>
	<rect x="387" y="292.3" class="st30" width="95.5" height="0.8"/>
	<rect x="387" y="287.5" class="st30" width="95.5" height="0.8"/>
	<rect x="387" y="282.7" class="st30" width="95.5" height="0.8"/>
	<rect x="387" y="277.9" class="st30" width="95.5" height="0.8"/>
	<rect x="387" y="273.2" class="st30" width="95.5" height="0.8"/>
	<path class="st30" d="M387,269.2h95.5c-0.1-0.3-0.2-0.5-0.3-0.8l0,0h-94.7C387.3,268.6,387.1,268.9,387,269.2z"/>
	<path class="st30" d="M387,265.2h95.5c-0.1-0.3-0.2-0.5-0.3-0.8l0,0h-94.7C387.3,264.7,387.1,264.9,387,265.2z"/>
	<rect x="395.7" y="271.6" class="st31" width="76" height="54.5"/>
	<rect x="419.6" y="273.2" class="st30" width="1.6" height="51.7"/>
	<rect x="396.8" y="289.9" class="st30" width="73.6" height="1.6"/>
	<rect x="396.8" y="281.1" class="st30" width="73.6" height="1.6"/>
	<rect x="396.5" y="298.6" class="st30" width="74" height="1.6"/>
	<rect x="396.5" y="316.2" class="st30" width="74" height="1.6"/>
	<rect x="396.6" y="307.4" class="st30" width="74" height="1.6"/>
	<rect x="445.1" y="272.4" class="st30" width="1.6" height="52.5"/>
	<rect x="395.7" y="271.6" class="st46" width="76" height="54.5"/>
	<circle class="st47" cx="367.5" cy="319.7" r="2.8"/>
</g>
<g id="Layer_4" class="st1">
	<path class="st48" d="M249,154.7l-109.3-1.8v29.9l7.1,234.2c0.2,4.9,1.2,13.5,7.1,21.1c6.4,8.3,15,10.9,26.4,14.1
		c0,0,11.5,3.3,45.8,5.3c0,0,3.9,0.2,10,0.4c0.8,0,6.1,0.2,12.9,0.3c6.8-0.1,12.1-0.3,12.9-0.3c6.2-0.2,10-0.4,10-0.4
		c34.3-2,45.8-5.3,45.8-5.3c11.4-3.2,20.1-5.8,26.4-14.1c5.9-7.6,6.9-16.2,7.1-21.1l7.1-234.2v-29.9L249,154.7z"/>
	<path class="st49" d="M249,234l-104.1-1.3v21.4l6.7,167.6c0.1,3.5,1.1,9.7,6.7,15.1c6.1,5.9,14.3,7.8,25.2,10.1
		c0,0,11,2.3,43.7,3.8c0,0,3.7,0.2,9.5,0.3c0.7,0,5.8,0.2,12.3,0.2c6.5-0.1,11.5-0.2,12.3-0.2c5.9-0.2,9.5-0.3,9.5-0.3
		c32.7-1.4,43.7-3.8,43.7-3.8c10.9-2.3,19.1-4.2,25.2-10.1c5.6-5.4,6.6-11.6,6.7-15.1l6.7-167.6v-21.4L249,234z"/>
	<path class="st50" d="M349.6,107.8l-1.7-6.9l6.9-12.1c1.1-2.7,5.2-13.4,0-20.8c-1.5-2.1-3.4-3.4-6.9-5.2
		c-6.9-3.4-16.1-6.9-34.7-8.7c-10.1-0.9-19.8-1.8-34.7-1.7c-6.9,0-15.1,0.3-24.3,0.9v-0.9c-13.6-0.5-25.3-0.4-34.7,0
		c-31.1,1.2-36.1,1.3-41.6,3.5c-6.4,2.5-10.2,5.2-19.1,6.9c-8.7,1.7-12.6,0.6-15.6,3.5c-2.7,2.6-4.6,8.4,0,22.6l6.9,12.1l-1.7,6.9
		L105,170.3c0,0,6.9,17.3,29.5,0c0,0,6.9,31.2,31.2,10.4c0,0,12.1,24.3,29.5,6.9c0,0,12.1,29.5,36.4,10.4c0,0,5,3.5,12.1,5.9
		c1.3,0.3,2.5,0.5,3.8,0.8c2.4,0.1,4.4-0.1,5.6-0.4c3.6-0.7,6.3-2.3,9.8-4.2c1.5-0.8,2.6-1.6,3.4-2.1c24.3,19.1,36.4-10.4,36.4-10.4
		c17.3,17.3,29.5-6.9,29.5-6.9c24.3,20.8,31.2-10.4,31.2-10.4c22.6,17.3,29.5,0,29.5,0L349.6,107.8z"/>
	<ellipse class="st51" cx="248.1" cy="67.9" rx="106.7" ry="17.3"/>
	<path class="st52" d="M353.1,231.9c0,4-57.1,7.6-103.2,7.8c-47.1,0.2-104.9-2.9-105-6.9c0-3.9,55.3-8.5,105-8.7
		C298.5,223.9,353.1,228,353.1,231.9z"/>
	<path class="st53" d="M320.7,361.1H178c-2,0-3.6-1.6-3.6-3.6v-74.4c0-2,1.6-3.6,3.6-3.6h142.7c2,0,3.6,1.6,3.6,3.6v74.4
		C324.2,359.5,322.6,361.1,320.7,361.1z"/>
	<path class="st54" d="M148.4,100.9l-1.7,5.2c0,0,114.5,22.6,206.5,1.7l-1.7-6.9C351.4,100.9,287.2,120,148.4,100.9z"/>
	<path class="st54" d="M251.8,116.5c-7.3,22.9-14.3,47.3-20.7,73.2c-7.8,31.4-13.8,61.2-18.6,89.3c2.3-2.3,4.6-4.6,6.9-6.9
		c6.1-26.3,12.4-52.9,19.1-79.8c6.3-25.6,12.8-50.9,19.4-75.8C255.9,116.5,253.9,116.5,251.8,116.5z"/>
	<path class="st54" d="M262.1,116.5c7.3,26.9,14.3,55.6,20.7,86c7.8,36.8,13.8,71.9,18.6,104.8c-2.3-2.7-4.6-5.4-6.9-8.1
		c-6.1-30.9-12.4-62.1-19.1-93.7c-6.3-30.1-12.8-59.8-19.4-89C258,116.5,260,116.5,262.1,116.5z"/>
	
		<image style="display:inline;overflow:visible;enable-background:new    ;" width="208" height="255" xlink:href="F90890E5.png"  transform="matrix(0.2449 0 0 0.2449 222.9759 288.2711)">
	</image>
</g>
<g id="Layer_5" class="st1">
	<path class="st55" d="M264,28c-3.9-1.1-8.6,5.5-11.3,9.3C247.2,45,238.1,61.7,234,96c-2.4,17.9-4.3,37.6-5,59
		c-0.9,26,0.1,49.8,2,71c1.8,0.8,4.2,2,6.5,4.3c4.6,4.3,6,9.5,6.5,11.8c-1.9,61.3-3.9,122.6-5.8,183.9c-0.1,2,0.3,4.1-0.2,6.1
		c0,0-3,27,9,35c0,0,12,8,21,0c0,0,8-9,8-20s-4-297-4-297c-1-36.3-2-72.7-3-109C269,40.1,268.5,29.2,264,28z"/>
	<path class="st14" d="M260,26c-3.9-1.1-8.6,5.5-11.3,9.3C243.2,43,234.1,59.7,230,94c-2.4,17.9-4.3,37.6-5,59
		c-0.9,26,0.1,49.8,2,71c1.8,0.8,4.2,2,6.5,4.3c4.6,4.3,6,9.5,6.5,11.8c-1.9,61.3-3.9,122.6-5.8,183.9c-0.1,2,0.3,4.1-0.2,6.1
		c0,0-3,27,9,35c0,0,12,8,21,0c0,0,8-9,8-20s-4-297-4-297c-1-36.3-2-72.7-3-109C265,38.1,264.5,27.2,260,26z"/>
	<rect x="240.5" y="237" class="st56" width="28.5" height="2.1"/>
	<rect x="240.1" y="245.6" class="st56" width="29" height="1.9"/>
</g>
<g id="Layer_6" class="st1">
	<g class="st57">
		<path class="st58" d="M285.9,114.7c17.9,6.1,36.9-12,38.1-13.1c-4.7,8.3-10.5,20.7-13.3,36.7c-1.5,9-1.8,17-1.5,23.6
			c19.2-2.9,38.3-5.8,57.5-8.7c-12.7,21.6-39.5,31.3-53.6,51.9c8-1.1,20.2-2.4,35.3-2.5c12.7-0.1,19.1,0.7,27.7,0.9
			c11.9,0.3,29.3-0.6,51.1-6.4c-14.9,16.5-29.2,25-39.6,29.7c-7.4,3.4-12.1,4.4-27.5,10.1c-15.3,5.7-27.7,10.9-35.7,14.4
			c3.7,4.5,9.3,11.2,16.6,19c7.9,8.3,13.5,13.2,18.1,17.7c33.2,32.2,35.6,38.7,34.1,41.1c-2.8,4.5-19.6-5.2-47.6-8.5
			c-20.5-2.5-37.7-0.4-49.2,1.7c14.3,27,22.9,45.9,27.3,58.6c5.6,16.3,3.4,19.9,1.7,21.2c-8.9,6.8-48.7-27.5-61.4-30.7
			c-0.4-0.1-5.6-1.4-5.5-2.8c0-0.6,1-0.6,1.3-1.5c0.7-1.9-3.7-3.8-4.4-8c-0.4-1.9,0-3.3,0-4.7c-0.2-9.3-1-14-1.1-58.1
			c-0.1-28.8,0.2-31.7-0.1-52.7c-0.4-26.9-1-23.8-1.4-52.6c-0.6-40.1,0.3-60.8,0.6-66.5c0.2-4.2,0.4-7.6,0.6-13.9
			c0.7-18.4,0.6-33.3,0.5-43c1.5,5.7,4.3,14,9.6,23C270,101.4,275.8,111.3,285.9,114.7z"/>
	</g>
	<g class="st57">
		<path class="st58" d="M224,115.3c-17.8,6.4-37.1-11.4-38.3-12.5c4.9,8.2,10.8,20.6,13.9,36.5c1.7,8.9,2.1,17,1.9,23.6
			c-19.2-2.6-38.4-5.2-57.6-7.8c13,21.4,40,30.6,54.5,51c-8-1-20.3-2.1-35.3-1.9c-12.7,0.1-19.1,1-27.7,1.4
			c-11.9,0.5-29.3-0.1-51.2-5.5c15.1,16.2,29.6,24.5,40.1,29.1c7.5,3.2,12.1,4.2,27.7,9.7c15.4,5.4,27.8,10.4,36,13.8
			c-3.6,4.6-9.1,11.4-16.3,19.3c-7.8,8.5-13.2,13.4-17.8,18c-32.7,32.7-35,39.3-33.4,41.7c2.9,4.4,19.5-5.5,47.4-9.3
			c20.4-2.8,37.7-1,49.2,0.9c-27.6,54.5-33.3,76.3-27.7,80.3c10.2,7.2,54.6-40.4,65-31.8c5.1,4.2,0.4,20.8,0,20.8
			c-0.1,0,0.1-2.1,0-8.3c-0.3-12.3-1.6-13.4,0-16.6c1.7-3.3,3.7-4.2,4.3-8.1c0.3-1.9-0.1-3.3-0.1-4.7c0-9.3,0.8-14,0.2-58.1
			c-0.4-28.8-0.8-31.7-0.8-52.6c0-26.9,0.6-23.8,0.6-52.6c0-40.1-1.3-60.8-1.7-66.5c-0.3-4.2-0.5-7.6-0.9-13.9
			c-1-18.4-1.2-33.3-1.2-43c-1.4,5.7-4,14.1-9.2,23.2C239.7,101.7,234.1,111.6,224,115.3z"/>
	</g>
	<polygon class="st59" points="255.7,162.1 250.9,438 262,438 	"/>
	<g class="st2">
		<path class="st60" d="M212.9,108.3c-17.8,6.4-37.1-11.4-38.3-12.5c4.9,8.2,10.8,20.6,13.9,36.5c1.7,8.9,2.1,17,1.9,23.6
			c-19.2-2.6-38.4-5.2-57.6-7.8c13,21.4,40,30.6,54.5,51c-8-1-20.3-2.1-35.3-1.9c-12.7,0.1-19.1,1-27.7,1.4
			c-11.9,0.5-29.3-0.1-51.2-5.5c15.1,16.2,29.6,24.5,40.1,29.1c7.5,3.2,12.1,4.2,27.7,9.7c15.4,5.4,27.8,10.4,36,13.8
			c-3.6,4.6-9.1,11.4-16.3,19.3c-7.8,8.5-13.2,13.4-17.8,18c-32.7,32.7-35,39.3-33.4,41.7c2.9,4.4,19.5-5.5,47.4-9.3
			c20.4-2.8,37.7-1,49.2,0.9c-27.6,54.5-33.3,76.3-27.7,80.3c10,7,52.6-41.1,65-31.8c6.7,5,2.2,24.9,1.4,24.9
			c-0.2,0-0.6-4.1-1.4-12.5c-1.3-13.7-0.7-15.2,0-16.6c1.7-3.3,3.7-4.2,4.3-8.1c0.3-1.9-0.1-3.3-0.1-4.7c0-9.3,0.8-14,0.2-58.1
			c-0.4-28.8-0.8-31.7-0.8-52.6c0-26.9,0.6-23.8,0.6-52.6c0-40.1-1.3-60.8-1.7-66.5c-0.3-4.2-0.5-7.6-0.9-13.9
			c-1-18.4-1.2-33.3-1.2-43c-1.4,5.7-4,14.1-9.2,23.2C228.6,94.8,223,104.7,212.9,108.3z"/>
	</g>
	<g class="st2">
		<path class="st61" d="M274.8,107.8c17.9,6.1,36.9-12,38.1-13.1c-4.7,8.3-10.5,20.7-13.3,36.7c-1.5,9-1.8,17-1.5,23.6
			c19.2-2.9,38.3-5.8,57.5-8.7c-12.7,21.6-39.5,31.3-53.6,51.9c8-1.1,20.2-2.4,35.3-2.5c12.7-0.1,19.1,0.7,27.7,0.9
			c11.9,0.3,29.3-0.6,51.1-6.4c-14.9,16.5-29.2,25-39.6,29.7c-7.4,3.4-12.1,4.4-27.5,10.1c-15.3,5.7-27.7,10.9-35.7,14.4
			c3.7,4.5,9.3,11.2,16.6,19c7.9,8.3,13.5,13.2,18.1,17.7c33.2,32.2,35.6,38.7,34.1,41.1c-2.8,4.5-19.6-5.2-47.6-8.5
			c-20.5-2.5-37.7-0.4-49.2,1.7c14.3,27,22.9,45.9,27.3,58.6c5.6,16.3,3.4,19.9,1.7,21.2c-8.9,6.8-48.7-27.5-61.4-30.7
			c-0.4-0.1-5.6-1.4-5.5-2.8c0-0.6,1-0.6,1.3-1.5c0.7-1.9-3.7-3.8-4.4-8c-0.4-1.9,0-3.3,0-4.7c-0.2-9.3-1-14-1.1-58.1
			c-0.1-28.8,0.2-31.7-0.1-52.7c-0.4-26.9-1-23.8-1.4-52.6c-0.6-40.1,0.3-60.8,0.6-66.5c0.2-4.2,0.4-7.6,0.6-13.9
			c0.7-18.4,0.6-33.3,0.5-43c1.5,5.7,4.3,14,9.6,23C258.9,94.5,264.7,104.3,274.8,107.8z"/>
	</g>
	<path class="st62" d="M244.9,214.3l0.3-0.5c0.2-0.4,0.2-0.9-0.2-1.1l-65.6-44.9c-0.4-0.2-0.9-0.2-1.1,0.2l-0.3,0.5
		c-0.2,0.4-0.2,0.9,0.2,1.1l65.6,44.9C244.1,214.8,244.6,214.7,244.9,214.3z"/>
	<path class="st62" d="M242.7,250.9l0.2-0.6c0.1-0.4-0.1-0.9-0.5-1l-74.7-27c-0.4-0.1-0.9,0.1-1,0.5l-0.2,0.6
		c-0.1,0.4,0.1,0.9,0.5,1l74.7,27C242.1,251.5,242.6,251.3,242.7,250.9z"/>
	<path class="st62" d="M246.4,272.9l-0.2-0.6c-0.2-0.4-0.6-0.6-1-0.4l-73.5,30.3c-0.4,0.2-0.6,0.6-0.4,1l0.2,0.6
		c0.2,0.4,0.6,0.6,1,0.4l73.5-30.3C246.4,273.7,246.6,273.3,246.4,272.9z"/>
	<path class="st62" d="M243.2,235.6l0.4,0.5c0.3,0.3,0.8,0.4,1.1,0.1l59.9-52.2c0.3-0.3,0.4-0.8,0.1-1.1l-0.4-0.5
		c-0.3-0.3-0.8-0.4-1.1-0.1l-59.9,52.2C242.9,234.7,242.9,235.2,243.2,235.6z"/>
	<path class="st62" d="M245.1,194.3l0.5,0.3c0.4,0.2,0.9,0.1,1.1-0.3l39.7-68.8c0.2-0.4,0.1-0.9-0.3-1.1l-0.5-0.3
		c-0.4-0.2-0.9-0.1-1.1,0.3l-39.7,68.8C244.6,193.6,244.7,194.1,245.1,194.3z"/>
	<path class="st62" d="M243.2,261.8l0.2-0.6c0.2-0.4,0.6-0.6,1-0.4l73.5,30.3c0.4,0.2,0.6,0.6,0.4,1l-0.2,0.6
		c-0.2,0.4-0.6,0.6-1,0.4l-73.5-30.3C243.3,262.7,243.1,262.2,243.2,261.8z"/>
	<path class="st62" d="M243,314.8l-0.5-0.4c-0.3-0.3-0.8-0.3-1.1,0.1l-53,59.2c-0.3,0.3-0.3,0.8,0.1,1.1l0.5,0.4
		c0.3,0.3,0.8,0.3,1.1-0.1l53-59.2C243.4,315.6,243.3,315.1,243,314.8z"/>
	<path class="st62" d="M240.8,333.2l0.3-0.5c0.2-0.4,0.7-0.5,1.1-0.2l67.3,42.2c0.4,0.2,0.5,0.7,0.2,1.1l-0.3,0.5
		c-0.2,0.4-0.7,0.5-1.1,0.2L241,334.3C240.7,334,240.6,333.5,240.8,333.2z"/>
	<polygon class="st63" points="244.6,155.1 239.8,431.1 250.9,431.1 	"/>
</g>
<g id="Layer_7">
	<path class="st64" d="M311.9,82.8c-2.7,2.4-9.9,9.8-15.9,20.9c-0.3,0.5-0.5,0.9-0.7,1.4c-7.2,14.8-5.5,39.6-5.5,39.7
		c0.1,7.2,0.2,14.5,0.3,21.7c0.6,5.9,1.3,14.5,1.3,24.9c0,11.9-0.9,22.5,1.8,23.1c2,0.5,4-5.3,6.2-4.7c3,0.9-0.1,12.3,4.7,27.9
		c1.3,4.2,1.9,6.4,3.1,7.8c10,11.5,44.9-4.1,58.9-10.9c-0.7-48.6-0.5-85.9-0.3-110.1c0.2-25.6,1-44.9-10.9-52
		C342.5,65.3,321.1,74.6,311.9,82.8z"/>
	<g>
		<path d="M374.6,298c0,1.1-0.9,2-2,2h-89.1c-1.1,0-2-0.9-2-2V191.8c0-1.1,0.9-2,2-2h89.1c1.1,0,2,0.9,2,2V298z"/>
	</g>
	<g>
		<path d="M381.3,436c0,1.1-0.9,2-2,2H276.8c-1.1,0-2-0.9-2-2V306.6c0-1.1,0.9-2,2-2h102.5c1.1,0,2,0.9,2,2V436z"/>
	</g>
	<rect x="278.4" y="295.3" class="st65" width="99.3" height="9.3"/>
	<rect x="138.2" y="300" class="st65" width="99.3" height="9.3"/>
	<g>
		<path d="M241.7,436c0,1.1-0.9,2-2,2H137.2c-1.1,0-2-0.9-2-2V306.6c0-1.1,0.9-2,2-2h102.5c1.1,0,2,0.9,2,2V436z"/>
	</g>
	<g>
		<path d="M241.7,301.1c0,1.1-0.9,2-2,2H137.2c-1.1,0-2-0.9-2-2V129.8c0-1.1,0.9-2,2-2h102.5c1.1,0,2,0.9,2,2V301.1z"/>
	</g>
	<path class="st66" d="M362.7,80.9c-1.8-4-6.5-6.9-7.4-7.4c-5.2-3.2-10.3-3.2-14-3.1c-1.8,0-10,0.3-19.2,5.4
		c-15.9,8.9-33.7,31.9-27.3,42.7c5.9,9.8,31,7.9,47.2-2.3C355.4,107.7,367.1,90.7,362.7,80.9z"/>
</g>
</svg>
