<?xml version="1.0" encoding="utf-8"?>
<!-- Generator: Adobe Illustrator 21.1.0, SVG Export Plug-In . SVG Version: 6.00 Build 0)  -->
<svg version="1.1" id="Layer_1" xmlns="http://www.w3.org/2000/svg" xmlns:xlink="http://www.w3.org/1999/xlink" x="0px" y="0px"
	 viewBox="0 0 500 500" style="enable-background:new 0 0 500 500;" xml:space="preserve">
<style type="text/css">
	.st0{fill:#CBF7F7;}
	.st1{display:none;}
	.st2{display:inline;}
	.st3{fill:#F2F5F9;}
	.st4{fill:#E7EEF7;}
	.st5{fill:#D7E7F7;}
	.st6{fill:#FFFFFF;}
	.st7{fill:#EDEFEF;}
	.st8{fill:#EA5050;}
	.st9{fill:#DB3E3E;}
	.st10{fill:#E2C1A6;}
	.st11{fill:#4C4C4B;}
	.st12{fill:#F9AADB;}
	.st13{fill:#CE7ABC;}
	.st14{display:inline;fill:#FB0E26;}
	.st15{display:inline;fill:none;}
	.st16{fill:#CCCCCC;}
	.st17{display:inline;fill:#8E4283;}
	.st18{display:inline;fill:#D6AAC9;}
	.st19{display:inline;fill:#7C3375;}
	.st20{display:inline;fill:#CCA3C2;}
	.st21{fill:#F4E4CE;}
	.st22{fill:#FBB03B;}
	.st23{display:inline;fill:#FBB03B;}
	.st24{display:inline;fill:#F4E4CE;}
	.st25{display:inline;fill:#CED1D6;}
	.st26{display:inline;fill:#1F1F1F;}
	.st27{fill:#E0E0E0;}
	.st28{fill:#CACBCC;}
	.st29{fill:#BABABA;}
	.st30{fill:#E2E0DE;}
	.st31{fill:#D38BB3;}
	.st32{fill:#C482A9;}
	.st33{fill:#98D1D1;}
	.st34{fill:#8CBFBE;}
	.st35{fill:#95C784;}
	.st36{fill:#8AB779;}
	.st37{fill:#E5AA96;}
	.st38{fill:#DC824A;}
	.st39{fill:#D8A091;}
	.st40{fill:#C65D5F;}
	.st41{fill:#AA2626;}
	.st42{fill:#E0909C;}
	.st43{fill:#CC8795;}
	.st44{fill:#E5A1BB;}
	.st45{fill:#E3A5B9;}
	.st46{fill:#8ADFED;}
	.st47{fill:#80D4DD;}
	.st48{fill:#489EE5;}
	.st49{fill:#4192C9;}
	.st50{fill:#866FD8;}
	.st51{fill:#6E60B2;}
	.st52{fill:#556BB4;}
	.st53{fill:#4D63A3;}
	.st54{fill:#383431;}
	.st55{display:inline;fill:#E3B692;}
	.st56{display:inline;opacity:0.54;fill:#D8A482;enable-background:new    ;}
	.st57{display:inline;fill:#C19A80;}
</style>
<rect class="st0" width="500" height="500"/>
<g id="Layer_1_1_" class="st1">
	<g class="st2">
		<path class="st3" d="M182,302.7c-47.4-87.4-33.5-197.4,35-272.4c-19.5,7.6-56.8,25.2-90,63c-39.9,45.5-50.8,94.1-54.3,115
			c-4.9,30-7.4,81.9,18.9,136.4c3.4,7.1,38.4,77,116.5,110c23.4,9.9,44.6,13.9,57.6,15.7c13.5,1.8,47.5,5.3,89-5.2
			c44.3-11.2,75.4-32.7,92.3-46.5C341.7,444.1,232.4,395.8,182,302.7z"/>
	</g>
	<g class="st2">
		<path class="st4" d="M189.8,300.1c-47.4-87.4-33.5-197.4,35-272.4c-19.5,7.6-56.8,25.2-90,63c-39.9,45.5-50.8,94.1-54.3,115
			c-4.9,30-7.4,81.9,18.9,136.4c3.4,7.1,38.4,77,116.5,110c23.4,9.9,44.6,13.9,57.6,15.7c13.5,1.8,47.5,5.3,89-5.2
			c44.3-11.2,75.4-32.7,92.3-46.5C349.6,441.5,240.2,393.2,189.8,300.1z"/>
	</g>
	<g class="st2">
		<path class="st5" d="M196.1,296.1c-32.3-59-27.1-123-25.7-137.1c6.8-68,39.9-114.1,54.2-131.9c-8.5,5.5-20.2,13.4-33.6,23.6
			c-3.3,2.5-33.5,23.9-49.1,41.5C102.7,136.4,92,183.7,88.6,204c-4.8,29.2-7.2,79.6,18.8,132.7c3.4,6.9,37.8,74.9,114.5,107.2
			c23,9.7,43.8,13.6,56.6,15.4c40.2,5.5,71.3-1.3,87.4-5c39.1-8.9,69.1-25.1,89-38.3C342.9,424.1,240.7,377.7,196.1,296.1z"/>
	</g>
</g>
<g id="Layer_2">
	<g>
		<path class="st6" d="M125,101.9c0.7,127.5,1.4,255,2.2,382.6c30.3,0.1,61.1-0.2,92.4-0.7c31.7-0.6,62.8-1.4,93.4-2.5
			c1.4-61.6,2.1-124.6,2-189c-0.1-65.6-1.1-129.8-2.9-192.5C249.8,100.5,187.4,101.2,125,101.9z"/>
		<path class="st7" d="M382.5,101.7c-0.2,126.4-0.3,252.9-0.5,379.3c-7-2.6-19.1-6.1-34.5-5.5c-15.7,0.6-27.7,5.4-34.5,8.6
			c-0.6-127.5-1.2-254.9-1.8-382.4C334.9,101.7,358.7,101.7,382.5,101.7z"/>
		<path class="st8" d="M314.9,101.6c7.2-8.3,16.3-20.8,23-37.9c3.6-9.3,5.8-17.9,7-25.1c-10.9-0.3-21.8-0.7-32.7-1L153.3,39
			L125,101.8C188.3,101.7,251.6,101.7,314.9,101.6z"/>
		
			<ellipse transform="matrix(1 -7.686876e-03 7.686876e-03 1 -1.9921 1.6996)" class="st8" cx="220.1" cy="260" rx="67.9" ry="67.9"/>
		<path class="st9" d="M346.3,36c12.1,21.9,24.1,43.8,36.2,65.7c-23.8,0-47.5,0-71.3,0C322.9,79.8,334.6,57.9,346.3,36z"/>
		<g>
			<path class="st6" d="M155.3,39c-1.1,0-2.1-0.9-2.1-2L152,19.2c-0.1-1.1,0.8-2,1.9-2l191.8-1.3c1.1,0,2,0.9,2,2v18.8
				c0,1.1-0.9,2-2,2L155.3,39z"/>
		</g>
		<path class="st8" d="M127.1,466c61.9-0.3,123.7-0.6,185.6-0.9v18.8c-61.8,0.2-123.7,0.4-185.5,0.6
			C127.2,478.3,127.1,472.1,127.1,466z"/>
		<path class="st9" d="M382,481c-23.1,1-46.2,1.9-69.3,2.9c0-6.3,0-12.5,0-18.8c23.1-0.9,46.2-1.8,69.3-2.7
			C382,468.6,382,474.8,382,481z"/>
	</g>
	<path class="st10" d="M312.7,37.3"/>
	<path d="M258.5,230.9c1.9-0.4,3.5-0.3,4.4-0.3c1.6,0.1,2.8,0.5,4.1,0.8c3.2,0.9,4.7,1.4,5.3,2.6c0.5,1,0.2,2.1-0.5,4.4
		c-0.2,0.8-0.4,1.6-0.9,2.6c-1.1,2.2-2.7,3.4-3.4,3.9c-4.6,3.4-11.1,2.5-13.4,1.1c-1.3-0.8-2.4-1.4-2.8-2.6
		c-0.1-0.3-0.2-0.6-0.4-0.7c-0.6-0.2-1.8,1.5-2.7,3.1c-0.7-0.4-3.5-1.9-6.5-3.7c-5.1-3.1-1.9-1.5-2.8-2.2c-0.2-0.1-0.4-0.3-0.5-0.5
		s-0.1-0.4-0.1-0.6c0.1-0.5,0.8-2.2,2.1-2.7c2.3-0.9,4.1,2.9,6.9,2.4c2-0.4,1.7-2.6,5.2-5.1C254.9,231.7,257.3,231.1,258.5,230.9z"
		/>
	<path class="st6" d="M240.6,284.5c-0.2,0.3-0.3,0.5-0.3,0.6c-1.8,2.9-2,9.5-4.9,12.1c-1.4,1.3-2.7,0.8-14.6,1
		c-11.5,0.1-12.3,0.5-14-0.5s-3.5-5.1-7-13.1c-0.9-2-1.3-3-1.5-3.5c-0.8-3.3,0.1-6.3-0.3-12.9c-1-17.2-8.4-19.1-5.3-28
		c2.7-7.5,12-17.3,25.1-17.9c12.8-0.6,24,7.9,28,15.2c4.2,7.7-2,9.7-2.9,29.1C242.5,276.1,243.9,278.9,240.6,284.5z"/>
	<path d="M209.6,224.1c2.4-0.9,3.6-1.3,4.1-1.2c2.4,0.7,1.3,5.4,3.5,13.4c1.6,5.7,3.6,9.4,3.2,15.3c0,0.5-0.1,1-0.3,1.6
		c-1.5,6.8-5.7,6.6-8.8,15.8c-1.6,4.9-1.9,9.4-2.1,11.8c-0.2,2.9,0.7,3.5,0.1,4.9c-1.3,2.9-5.2,4.9-7.4,3.7
		c-0.9-0.5-1.4-1.7-2.3-4.1c-0.3-0.8-0.8-2-1.2-3.5c-0.6-2.4-0.6-4.1-0.6-8.2c0,0,0-6.2-0.6-11.1c-0.1-0.7-0.3-2.1-0.8-3.7
		c-0.2-0.5-0.3-0.6-0.6-1.5c-0.3-0.7-0.7-1.8-1.5-3.6c-1.3-3.4-2.1-5.1-2.3-7.6c-0.2-1.7,0-3.1,0-3.5c0.7-7,6.2-11.8,8.2-13.4
		c1.8-1.5,3.3-2.5,4.1-2.9C206.3,225.3,207.8,224.7,209.6,224.1z"/>
	<path d="M181.1,231c-1.9-0.3-3.5-0.1-4.4,0c-1.6,0.2-2.8,0.6-4.1,1.1c-3.1,1.1-4.7,1.7-5.2,3c-0.4,1,0,2.2,0.7,4.4
		c0.3,0.8,0.5,1.6,1.1,2.6c1.2,2.1,3,3.2,3.7,3.7c4.9,3.1,11.3,1.8,13.6,0.2c1.3-0.9,2.3-1.6,2.7-2.8c0.1-0.3,0.1-0.6,0.4-0.7
		c0.6-0.3,1.9,1.4,3,3c0.7-0.5,3.4-2.1,6.3-4.1c4.9-3.4,1.8-1.6,2.7-2.4c0.2-0.2,0.3-0.3,0.4-0.5c0.1-0.2,0.1-0.4,0-0.6
		c-0.1-0.5-1-2.1-2.3-2.6c-2.4-0.8-4,3.2-6.8,2.9c-2.1-0.2-1.8-2.5-5.5-4.8C184.8,231.6,182.3,231.2,181.1,231z"/>
	<path class="st11" d="M188.9,239.1c0.1,1.6-1.7,2.9-3.3,4.1c-1.7,1.3-3.6,2.6-6.5,2.6c-0.5,0-4.3-0.1-6.8-3.3
		c-1.8-2.3-1.9-4.7-1.8-5.5c0.5-0.6,3.9-4.4,8.9-4.1c2.7,0.2,4.6,1.5,6.3,2.6C187.3,236.6,188.8,237.6,188.9,239.1z"/>
	<path class="st11" d="M252.5,239.4c0,1.6,1.8,2.7,3.5,3.8c1.8,1.1,3.8,2.4,6.6,2.2c0.5,0,4.3-0.4,6.5-3.7c1.6-2.4,1.5-4.8,1.5-5.6
		c-0.5-0.5-4.1-4.1-9-3.5c-2.6,0.3-4.5,1.7-6,2.9C253.8,236.8,252.4,237.9,252.5,239.4z"/>
	<path class="st6" d="M251.7,225.8"/>
	<path d="M420,172.7"/>
	<path d="M235.4,262"/>
	<path d="M245.9,237.5c-2.3-1.5-6.9,0.3-8.2,1.8c0,0-0.2,0.2-0.3,0.4c-0.4,0.5-0.7,1.1-2,3.1c-2.6,4.1-2.6,3.8-3,4.8
		c-1,2.2-1.3,4.1-1.6,6.1c-0.4,2.7-0.3,4.9-0.2,6.1c0.4,6.4,2.9,11.2,4.3,13.4c1.3,2.1,3.1,5.1,6.7,7.4c0.6,0.4,1,0.6,1.4,0.8
		c0.4-5,0.7-10.1,1.1-15.1c0.1-0.8,0.2-2.2,0.5-4c0.5-3.3,1.2-5.7,1.4-6.5C246.5,253.3,250,240.2,245.9,237.5z"/>
	<path class="st6" d="M228.3,252.1v0.1c0,4,3.2,7.2,7.2,7.2s7.2-3.2,7.2-7.2v-0.1L228.3,252.1L228.3,252.1z"/>
	<circle cx="234.8" cy="253.6" r="2"/>
	
		<ellipse transform="matrix(0.7071 -0.7071 0.7071 0.7071 -109.6737 240.4117)" class="st6" cx="235.4" cy="252.6" rx="0.9" ry="0.9"/>
	<path class="st6" d="M198,252.1v0.1c0,4.1,3.3,7.5,7.5,7.5c4.1,0,7.5-3.3,7.5-7.5v-0.1H198z"/>
	<circle cx="205" cy="253.6" r="2"/>
	
		<ellipse transform="matrix(0.7071 -0.7071 0.7071 0.7071 -118.4037 219.3394)" class="st6" cx="205.6" cy="252.6" rx="0.9" ry="0.9"/>
	<path class="st12" d="M209.1,300.6c-2.2-3.1,0.2-9.9,4.7-12.9c3.1-2,6.9-1.9,8.8-1.8c1.1,0.1,3,0.2,5.3,1.2c0.8,0.4,3,1.4,4.7,3.5
		c2.1,2.6,4,7.4,2.2,9.9c-1.2,1.6-3.2,1.3-11.5,1.2C211.9,301.6,210.2,302.2,209.1,300.6z"/>
	<path class="st13" d="M219.6,297.6c-0.4,0.1-2.7,0.4-4.9-1.3c-2.2-1.6-2.6-3.9-2.6-4.3c0.4-0.1,2.7-0.4,4.9,1.3
		S219.5,297.3,219.6,297.6z"/>
	<path class="st13" d="M224.2,297.8c0.4,0.1,2.7,0.4,4.9-1.3c2.2-1.6,2.6-3.9,2.6-4.3c-0.4-0.1-2.7-0.4-4.9,1.3
		C224.7,295.1,224.3,297.4,224.2,297.8z"/>
</g>
<g id="Layer_3" class="st1">
	<path class="st14" d="M112.4,239.6c5.3-3.7,11.7-5.4,17.9-7c34.2-8.5,71.1-13.7,104-1c3.7,1.4,7.9,3.8,8.2,7.8
		c2.7-6.1,9.5-9.2,15.8-11.4c19.8-7,40.6-11.3,61.5-12.6c6.6-0.4,13.2-0.5,19.7,0.7c9.5,1.8,18.4,6.3,28,7.6
		c3.2,0.4,6.5,0.5,9.6,1.6s5.9,3.5,6.4,6.7s-1.5,6.4-4.1,8.3c-2.6,1.9-5.8,2.8-8.8,3.9c-14.8,5.2-41.5,36.6-79.7,45.6
		c-14.6,3.4-23.7,5.6-35.4,3.4c-6.3-1.1-14.1-3.6-24.1-0.9c-5.3,1.5-6.2,3-11,4.4c-5.9,1.7-12.3,1.5-26.1-2.8
		c-17.5-5.5-31.4-11.2-44.6-20.5c-5.4-3.8-10.6-8.1-16.6-11c-3.2-1.5-6.6-2.7-10-3.8c-3.8-1.2-17.7-3.4-19.8-6.6
		C100.9,248.6,109.3,241.7,112.4,239.6z"/>
	<path class="st15" d="M257.9,168.4c1.2,11.4-2.1,23.8,3.3,33.9c1.1-4.6-1.8-9.1-2.6-13.7c-0.3-2-0.3-4-0.2-6.1
		c0.2-6.2-2.5-24.1,2.6-28.1C253.4,157.2,257.3,162.2,257.9,168.4z"/>
	<path class="st15" d="M400.9,111.4c1.2,11.4-2.1,23.8,3.3,33.9c1.1-4.6-1.8-9.1-2.6-13.7c-0.3-2-0.3-4-0.2-6.1
		c0.2-6.2-2.5-24.1,2.6-28.1C396.4,100.2,400.3,105.2,400.9,111.4z"/>
	<path class="st15" d="M400.9,161.4c1.2,11.4-2.1,23.8,3.3,33.9c1.1-4.6-1.8-9.1-2.6-13.7c-0.3-2-0.3-4-0.2-6.1
		c0.2-6.2-2.5-24.1,2.6-28.1C396.4,150.2,400.3,155.2,400.9,161.4z"/>
	<polygon class="st15" points="356,359 366,402 361,356 	"/>
	<path class="st14" d="M116,227c12.5-3.5,25.4-5.8,38-9c39.2-9.9,59.9,5.7,78.3-10.7c3.7-3.3,6-6.7,7.2-8.7c3.4,5.8,10.5,8,17.1,9.4
		c20.5,4.5,41.6,6.2,62.6,4.9c11.5-0.7,19.5-3.1,19.5-3.1c16.5-3.5,19.4-6.5,28.4-5.8c11.5,0.8,16.5,6.5,19,4
		c3.2-3.2-1.7-15.2-10-23c-6.6-6.2-13.8-8.3-16-9c-37.6-11.4-43.9-30.1-78.6-33.4c-16.7-1.6-25-2.4-35.5,0.9
		c-6.1,1.9-13.6,5.3-23.8,3.8c-5.4-0.8-6.6-2.3-11.4-3c-6.1-1-12.4,0-25.6,6c-16.7,7.6-29.8,14.9-41.8,25.8
		c-4.9,4.5-9.6,9.4-15.2,13c-4.5,2.9-6.7,3.5-9.5,5c-14.8,8.2-23.5,29.8-18.6,34.9C102.1,231.2,106.1,229.7,116,227z"/>
</g>
<g id="Layer_4" class="st1">
	<g class="st2">
		<path class="st16" d="M280.2,147.6h-61.4c-2.6,0-4.8-2.2-4.8-4.8l0,0c0-2.6,2.2-4.8,4.8-4.8h61.4c2.6,0,4.8,2.2,4.8,4.8l0,0
			C285,145.4,282.8,147.6,280.2,147.6z"/>
	</g>
	<g class="st2">
		<path class="st16" d="M249.8,347.2L249.8,347.2c-4.2,0-7.7-3.5-7.7-7.7V146c0-2,1.6-3.5,3.5-3.5h9c1.6,0,2.8,1.3,2.8,2.8v194.2
			C257.5,343.7,254,347.2,249.8,347.2z"/>
	</g>
	<g class="st2">
		<polygon class="st16" points="241.8,341.1 249.5,361.6 257.2,341.1 252.1,339.8 249.5,341.1 246.3,339.8 		"/>
	</g>
</g>
<g id="Layer_5" class="st1">
	<path class="st17" d="M249.9,146.8c0.4-3,0.7-6,1.1-9c-0.2-11.6-0.5-23.1-0.7-34.7c-3.2-0.9-5-0.4-6.1,0.3
		c-4.9,3-1.1,12.9-2.3,30.8c-0.3,4.1-1,11-3,18.9c-2.2,8.9-5.6,17-7.8,21c-8.7,15.2-28.1,15.1-47.1,22.4
		c-25.6,9.9-46.9,32.7-56.7,56c-15.2,36.3,5.1,75.3,10,84c24.9,44.7,71.9,54.8,83.3,57.3c10.4,2.3,20.3,3.1,29.4,3v-250L249.9,146.8
		L249.9,146.8z"/>
	<path class="st18" d="M197.3,208.1c-0.4-0.5-24.1,10.4-39.2,34.8c-4.9,7.9-14.6,26.7-12.8,51.2c0.3,3.8,1.6,18.9,10.7,35.3
		c4.4,8,9,13.4,13,18c11.8,13.7,24.4,22.7,25,22c0.5-0.6-8.6-8.1-19.7-22.5c-7.6-9.9-13.5-17.6-17.8-28.2
		c-10.6-25.9-3.8-50.3-2.8-53.5c4.7-15.9,13.3-26.2,21-35.5C186.8,215.3,197.7,208.5,197.3,208.1z"/>
	<path class="st18" d="M213.1,210.6c-0.3-0.2-14.1,13.1-24.4,34c-3.8,7.6-11.1,23-12.4,44.5c-1.3,22.4,4.8,39.1,6,42.5
		c3.3,8.7,7.5,16,10.8,21.7c5.2,9,11.1,17.5,11.7,17.2c0.5-0.3-5-9.1-10.3-21.3c-3.6-8.4-9.3-21.7-11.3-39
		c-2.3-19,0.8-33.9,2.7-42.3c4-18.4,10.8-31.6,13.8-37.2C206.6,218.1,213.3,210.7,213.1,210.6z"/>
	<path class="st18" d="M237.8,200.8c-0.7-0.3-8.3,13.4-13.8,29.7c-7.5,21.8-8.6,39.9-9,49.3c-1,19.9,1.2,35.2,2.4,42.8
		c1.2,7.7,2.7,14.9,4.5,21.8c4.2,15.9,9.7,29.4,10.3,29.2c0.7-0.2-4.1-12.7-7.3-32.2c-2.8-17-2.9-30.3-3-40.7c0-4.2,0-20.7,2.7-42.3
		c1.6-12.5,3-23.9,7.3-38.8C235.1,208.4,238.3,201,237.8,200.8z"/>
	<path class="st19" d="M249.2,146.8c-0.4-3-0.7-6-1.1-9c0.2-11.6,0.5-23.1,0.7-34.7c3.2-0.9,5-0.4,6.1,0.3c4.9,3,1.1,12.9,2.3,30.8
		c0.3,4.1,1,11,3,18.9c2.2,8.9,5.6,17,7.8,21c8.7,15.2,28.1,15.1,47.1,22.4c25.6,9.9,46.9,32.7,56.7,56c15.2,36.3-5.1,75.3-10,84
		c-24.9,44.7-71.9,54.8-83.3,57.3c-10.4,2.3-20.3,3.1-29.4,3L249.2,146.8L249.2,146.8z"/>
	<path class="st20" d="M301,208.1c0.4-0.5,24.1,10.4,39.2,34.8c4.9,7.9,14.6,26.7,12.8,51.2c-0.3,3.8-1.6,18.9-10.7,35.3
		c-4.4,8-9,13.4-13,18c-11.8,13.7-24.4,22.7-25,22c-0.5-0.6,8.6-8.1,19.7-22.5c7.6-9.9,13.5-17.6,17.8-28.2
		c10.6-25.9,3.8-50.3,2.8-53.5c-4.7-15.9-13.3-26.2-21-35.5C311.5,215.3,300.7,208.5,301,208.1z"/>
	<path class="st20" d="M285.2,210.6c0.3-0.2,14.1,13.1,24.4,34c3.8,7.6,11.1,23,12.4,44.5c1.3,22.4-4.8,39.1-6,42.5
		c-3.3,8.7-7.5,16-10.8,21.7c-5.2,9-11.1,17.5-11.7,17.2c-0.5-0.3,5-9.1,10.3-21.3c3.6-8.4,9.3-21.7,11.3-39
		c2.3-19-0.8-33.9-2.7-42.3c-4-18.4-10.8-31.6-13.8-37.2C291.8,218.1,285,210.7,285.2,210.6z"/>
	<path class="st20" d="M260.5,200.8c0.7-0.3,8.3,13.4,13.8,29.7c7.5,21.8,8.6,39.9,9,49.3c1,19.9-1.2,35.2-2.4,42.8
		c-1.2,7.7-2.7,14.9-4.5,21.8c-4.2,15.9-9.7,29.4-10.3,29.2c-0.7-0.2,4.1-12.7,7.3-32.2c2.8-17,2.9-30.3,3-40.7
		c0-4.2,0-20.7-2.7-42.3c-1.6-12.5-3-23.9-7.3-38.8C263.2,208.4,260,201,260.5,200.8z"/>
</g>
<g id="Layer_6" class="st1">
	<g class="st2">
		<path class="st21" d="M250.3,377.6c-70.6,0-128-57.4-128-128s57.4-128,128-128s128,57.4,128,128S320.9,377.6,250.3,377.6z"/>
		<path class="st22" d="M250.3,123c33.8,0,65.6,13.2,89.5,37.1s37.1,55.7,37.1,89.5s-13.2,65.6-37.1,89.5s-55.7,37.1-89.5,37.1
			s-65.6-13.2-89.5-37.1s-37.1-55.7-37.1-89.5s13.2-65.6,37.1-89.5S216.5,123,250.3,123 M250.3,120c-71.5,0-129.5,58-129.5,129.5
			S178.8,379,250.3,379s129.5-58,129.5-129.5S321.9,120,250.3,120L250.3,120z"/>
	</g>
	<circle class="st23" cx="250.3" cy="249.5" r="116.2"/>
	<g class="st2">
		<rect x="249.7" y="127" class="st21" width="1.3" height="245"/>
	</g>
	<g class="st2">
		
			<rect x="249.7" y="126.9" transform="matrix(0.309 -0.9511 0.9511 0.309 -64.2516 410.4673)" class="st21" width="1.3" height="245"/>
	</g>
	<g class="st2">
		
			<rect x="127.8" y="248.9" transform="matrix(0.9511 -0.309 0.309 0.9511 -64.8631 89.5535)" class="st21" width="245" height="1.3"/>
	</g>
	<g class="st2">
		
			<rect x="127.8" y="248.9" transform="matrix(0.5878 -0.809 0.809 0.5878 -98.7442 305.3609)" class="st21" width="245" height="1.3"/>
	</g>
	<g class="st2">
		
			<rect x="249.7" y="127" transform="matrix(0.809 -0.5878 0.5878 0.809 -98.8299 194.8096)" class="st21" width="1.3" height="245"/>
	</g>
	<path class="st24" d="M189.9,147.5"/>
	<path class="st24" d="M188.6,144.9"/>
	<path class="st24" d="M189.9,150c0.4,0.8-1.5,1.8-2.5,3.8c-1.2,2.4-1.2,6.4,3.8,13.8c-2.3-2.5-11.3-12.3-8.8-16.3
		C183.9,148.9,189.3,148.7,189.9,150z"/>
	<path class="st24" d="M240,132.6c0.2,0.9,2.3,0.5,4.3,1.4c2.5,1.1,4.9,4.3,5.7,13.1c0.3-3.4,1.1-16.7-3.3-18.2
		C244,128,239.7,131.3,240,132.6z"/>
	<path class="st24" d="M260.3,132.8c-0.2,0.9-2.3,0.6-4.2,1.5c-2.4,1.2-4.8,4.5-5.2,13.3c-0.4-3.4-1.8-16.6,2.6-18.3
		C256.1,128.3,260.5,131.4,260.3,132.8z"/>
	<path class="st24" d="M310.9,148.6c-0.3,0.8,1.6,1.8,2.6,3.7c1.3,2.3,1.4,6.4-3.2,13.9c2.2-2.6,10.8-12.8,8.1-16.6
		C316.8,147.3,311.4,147.4,310.9,148.6z"/>
	<path class="st24" d="M326.7,161.1c-0.7,0.6-2.2-0.9-4.3-1.3c-2.7-0.5-6.5,0.8-12,7.7c1.7-3,8.4-14.5,12.9-13.2
		C326,155.1,327.7,160.2,326.7,161.1z"/>
	<path class="st24" d="M359.4,203.8c-0.8,0.5,0.2,2.4,0,4.5c-0.3,2.7-2.7,6-10.8,9.3c3.3-0.8,16.3-3.9,16.4-8.6
		C365,206.3,360.6,203.1,359.4,203.8z"/>
	<path class="st24" d="M143.4,203.8c0.8,0.4-0.1,2.4,0.2,4.5c0.4,2.7,2.9,5.9,11.1,8.9c-3.3-0.6-16.4-3.3-16.7-8
		C137.9,206.5,142.2,203.1,143.4,203.8z"/>
	<path class="st24" d="M173.8,160.3c0.7,0.6,2.2-1,4.3-1.4c2.6-0.6,6.5,0.6,12.3,7.3c-1.8-2.9-8.9-14.2-13.4-12.7
		C174.3,154.2,172.7,159.4,173.8,160.3z"/>
	<path class="st24" d="M137.1,276.2c0.9-0.1,1.3,2,2.8,3.5c1.9,1.9,5.8,3.1,14.3,0.7c-3.1,1.4-15.2,7-18.2,3.3
		C134.2,281.5,135.7,276.3,137.1,276.2z"/>
	<path class="st24" d="M136.1,223.1c0.9,0.1,1.2-2.1,2.6-3.7c1.8-2,5.6-3.4,14.2-1.4c-3.1-1.3-15.5-6.2-18.3-2.4
		C132.9,217.9,134.7,223,136.1,223.1z"/>
	<path class="st24" d="M173.6,338.2c0.7-0.6,2.2,1,4.3,1.4c2.6,0.5,6.5-0.7,12.2-7.4c-1.7,2.9-8.8,14.3-13.3,12.9
		C174.2,344.2,172.6,339,173.6,338.2z"/>
	<path class="st24" d="M143.2,294.7c0.8-0.4-0.2-2.4,0.1-4.5c0.4-2.7,2.8-5.9,11-9c-3.3,0.7-16.4,3.5-16.6,8.2
		C137.7,292.1,142,295.4,143.2,294.7z"/>
	<path class="st24" d="M310.4,349.2c-0.4-0.8,1.5-1.9,2.4-3.8c1.2-2.4,1-6.5-4.2-13.7c2.4,2.4,11.7,12,9.2,16
		C316.5,350.1,311,350.4,310.4,349.2z"/>
	<path class="st24" d="M259.6,365.5c-0.2-0.9-2.3-0.5-4.3-1.4c-2.4-1.1-4.9-4.4-5.4-13.2c-0.3,3.4-1.4,16.7,3,18.2
		C255.5,370,259.9,366.8,259.6,365.5z"/>
	<path class="st24" d="M364.2,221.1c-0.9,0.2-1.4-1.9-3.1-3.3c-2-1.7-6-2.6-14.3,0.5c2.9-1.7,14.6-8.2,17.8-4.8
		C366.7,215.5,365.6,220.8,364.2,221.1z"/>
	<path class="st24" d="M364.1,275.9c-0.9-0.1-1.3,2-2.8,3.5c-1.9,1.9-5.8,3.1-14.3,0.7c3.1,1.4,15.2,6.9,18.2,3.3
		C367,281.3,365.5,276.1,364.1,275.9z"/>
	<path class="st24" d="M359.3,293.4c-0.8-0.3-0.1-2.4-0.7-4.5c-0.7-2.6-3.5-5.5-12-7.6c3.4,0.3,16.7,1.5,17.4,6.1
		C364.5,290.1,360.6,293.9,359.3,293.4z"/>
	<path class="st24" d="M325.8,339.2c-0.6-0.7-2.3,0.7-4.4,0.8c-2.7,0.2-6.4-1.5-11.1-8.9c1.3,3.1,6.8,15.3,11.4,14.5
		C324.4,345.2,326.7,340.3,325.8,339.2z"/>
	<path class="st24" d="M242.3,367.3c0-0.9,2.2-0.9,4-2.1c2.2-1.5,4-5.2,3.1-13.9c0.9,3.3,4.2,16.2,0.1,18.5
		C247.1,371.1,242.2,368.7,242.3,367.3z"/>
	<path class="st24" d="M188.5,348.9c0.5-0.8-1.3-2-2.1-4c-1-2.5-0.5-6.5,5.2-13.3c-2.6,2.2-12.6,11-10.5,15.2
		C182.4,349.3,187.8,350.1,188.5,348.9z"/>
</g>
<g id="Layer_7" class="st1">
	<rect x="121" y="349" class="st25" width="257" height="60"/>
	<rect x="121" y="145" class="st25" width="257" height="204"/>
	<rect x="121" y="347" class="st26" width="257" height="2"/>
	<path class="st26" d="M352.7,311H149.3c-2.9,0-5.3-2.4-5.3-5.3V204.3c0-2.9,2.4-5.3,5.3-5.3h203.5c2.9,0,5.3,2.4,5.3,5.3v101.5
		C358,308.6,355.6,311,352.7,311z"/>
	<rect x="121" y="94" class="st25" width="257" height="55"/>
	<rect x="121" y="146" class="st26" width="257" height="3"/>
	<rect x="144" y="167" class="st26" width="214" height="5"/>
	<g class="st2">
		<path class="st6" d="M276,238c-1-24-2-48-3-72c2.4-0.5,5.5-1,9-1c4,0,7.3,0.4,10,1c3-0.3,6-0.6,9-1c2.7-0.3,5.4-0.7,8-1
			c1,24.3,2,48.7,3,73c-2.2-1.2-5.4-2.6-9-2c-3.5,0.5-4.2,2.3-7.3,2.5c-4.3,0.2-5.6-3-9.7-3.5C283.8,233.7,280.5,234.2,276,238z"/>
		<path class="st27" d="M293,166c-0.3,0-1,0-1,0l0,0c0,0-0.7,0-1,0c0.7,23.7,1.3,47.3,2,71h2c0,0,0.7,0,1,0
			C295,213.3,294,189.7,293,166z"/>
		<polygon class="st28" points="275.2,219.5 292.2,217.7 292.2,221.2 275.4,223 		"/>
		<polyline class="st29" points="292,217.7 295.1,215.8 295.3,219.6 292,221.4 		"/>
		<polygon class="st28" points="295.3,218.6 311.4,216.7 311.3,213 295.1,215.2 		"/>
	</g>
	<circle class="st26" cx="149" cy="121" r="11"/>
	<circle class="st26" cx="180" cy="121" r="11"/>
	<path class="st26" d="M295.3,138h-88.5c-2.6,0-4.8-2.1-4.8-4.8v-22.5c0-2.6,2.1-4.8,4.8-4.8h88.5c2.6,0,4.8,2.1,4.8,4.8v22.5
		C300,135.9,297.9,138,295.3,138z"/>
	<circle class="st26" cx="322" cy="121" r="11"/>
	<circle class="st26" cx="353" cy="121" r="11"/>
	<ellipse class="st26" cx="138" cy="410" rx="8" ry="1"/>
	<ellipse class="st26" cx="358" cy="410" rx="8" ry="1"/>
	<path class="st26" d="M211,94h-64c-1.6,0-3-1.3-3-3l0,0c0-1.7,1.4-3,3-3h64c1.6,0,3,1.3,3,3l0,0C214,92.7,212.6,94,211,94z"/>
	<path class="st26" d="M347,94h-64c-1.6,0-3-1.3-3-3l0,0c0-1.7,1.4-3,3-3h64c1.6,0,3,1.3,3,3l0,0C350,92.7,348.6,94,347,94z"/>
</g>
<g id="Layer_8" class="st1">
	<g class="st2">
		<path class="st30" d="M214,65v359c0,0,13,4,24,0V65H214z"/>
		<rect x="220" y="153" class="st31" width="11" height="195"/>
		<rect x="214" y="62" class="st32" width="22" height="5"/>
		<rect x="212" y="65" class="st31" width="27" height="74"/>
		<path class="st31" d="M216,425c0,3.7,0,7.3,0,11c1.9,0.8,5.4,2.1,10,2c4-0.1,7.2-1.2,9-2c0-3.7,0-7.3,0-11c-2.7,0.6-6,1-10,1
			C221.5,426,218.4,425.5,216,425z"/>
		<path class="st31" d="M241.8,64c1.3,0,2.7-0.1,4-0.1c0.1,34,0.2,68,0.3,102c-1.3,0-2.7,0.1-4,0.1c0-1.7-0.1-3.3-0.1-5
			c-0.5-0.1-1.5-0.3-2.4-1.1c-1.2-1.1-1.7-2.6-1.7-3.8c0-2.2,1.6-4.2,3.9-5.1c0.2-5.5,0.5-13.8,0.5-24c0-9.3-0.5-15.8-0.5-20
			C241.8,92.7,241.8,78.3,241.8,64z"/>
		<path class="st32" d="M239,67c0,0,1.9,2,3.9,0l-0.5,19.9c0,0-2.5-1.9-3.5,0.1V67H239z"/>
	</g>
	<g class="st2">
		<path class="st30" d="M256,65v359c0,0,13,4,24,0V65H256z"/>
		<rect x="262" y="153" class="st33" width="11" height="195"/>
		<rect x="256" y="62" class="st34" width="22" height="5"/>
		<rect x="254" y="65" class="st33" width="27" height="74"/>
		<path class="st33" d="M258,425c0,3.7,0,7.3,0,11c1.9,0.8,5.4,2.1,10,2c4-0.1,7.2-1.2,9-2c0-3.7,0-7.3,0-11c-2.7,0.6-6,1-10,1
			C263.5,426,260.4,425.5,258,425z"/>
		<path class="st33" d="M283.8,64c1.3,0,2.7-0.1,4-0.1c0.1,34,0.2,68,0.3,102c-1.3,0-2.7,0.1-4,0.1c0-1.7-0.1-3.3-0.1-5
			c-0.5-0.1-1.5-0.3-2.4-1.1c-1.2-1.1-1.7-2.6-1.7-3.8c0-2.2,1.6-4.2,3.9-5.1c0.2-5.5,0.5-13.8,0.5-24c0-9.3-0.5-15.8-0.5-20
			C283.8,92.7,283.8,78.3,283.8,64z"/>
		<path class="st34" d="M281,67c0,0,1.9,2,3.9,0l-0.5,19.9c0,0-2.5-1.9-3.5,0.1V67H281z"/>
	</g>
	<g class="st2">
		<path class="st30" d="M299,65v359c0,0,13,4,24,0V65H299z"/>
		<rect x="305" y="153" class="st35" width="11" height="195"/>
		<rect x="299" y="62" class="st36" width="22" height="5"/>
		<rect x="297" y="65" class="st35" width="27" height="74"/>
		<path class="st35" d="M301,425c0,3.7,0,7.3,0,11c1.9,0.8,5.4,2.1,10,2c4-0.1,7.2-1.2,9-2c0-3.7,0-7.3,0-11c-2.7,0.6-6,1-10,1
			C306.5,426,303.4,425.5,301,425z"/>
		<path class="st35" d="M326.8,64c1.3,0,2.7-0.1,4-0.1c0.1,34,0.2,68,0.3,102c-1.3,0-2.7,0.1-4,0.1c0-1.7-0.1-3.3-0.1-5
			c-0.5-0.1-1.5-0.3-2.4-1.1c-1.2-1.1-1.7-2.6-1.7-3.8c0-2.2,1.6-4.2,3.9-5.1c0.2-5.5,0.5-13.8,0.5-24c0-9.3-0.5-15.8-0.5-20
			C326.8,92.7,326.8,78.3,326.8,64z"/>
		<path class="st36" d="M324,67c0,0,1.9,2,3.9,0l-0.5,19.9c0,0-2.5-1.9-3.5,0.1V67H324z"/>
	</g>
	<g class="st2">
		<path class="st30" d="M343,65v359c0,0,13,4,24,0V65H343z"/>
		<rect x="349" y="153" class="st37" width="11" height="195"/>
		<rect x="343" y="62" class="st38" width="22" height="5"/>
		<rect x="341" y="65" class="st37" width="27" height="74"/>
		<path class="st37" d="M345,425c0,3.7,0,7.3,0,11c1.9,0.8,5.4,2.1,10,2c4-0.1,7.2-1.2,9-2c0-3.7,0-7.3,0-11c-2.7,0.6-6,1-10,1
			C350.5,426,347.4,425.5,345,425z"/>
		<path class="st37" d="M370.8,64c1.3,0,2.7-0.1,4-0.1c0.1,34,0.2,68,0.3,102c-1.3,0-2.7,0.1-4,0.1c0-1.7-0.1-3.3-0.1-5
			c-0.5-0.1-1.5-0.3-2.4-1.1c-1.2-1.1-1.7-2.6-1.7-3.8c0-2.2,1.6-4.2,3.9-5.1c0.2-5.5,0.5-13.8,0.5-24c0-9.3-0.5-15.8-0.5-20
			C370.8,92.7,370.8,78.3,370.8,64z"/>
		<path class="st39" d="M368,67c0,0,1.9,2,3.9,0l-0.5,19.9c0,0-2.5-1.9-3.5,0.1V67H368z"/>
	</g>
	<g class="st2">
		<path class="st30" d="M389,65v359c0,0,13,4,24,0V65H389z"/>
		<rect x="395" y="153" class="st40" width="11" height="195"/>
		<rect x="389" y="62" class="st41" width="22" height="5"/>
		<rect x="387" y="65" class="st40" width="27" height="74"/>
		<path class="st40" d="M391,425c0,3.7,0,7.3,0,11c1.9,0.8,5.4,2.1,10,2c4-0.1,7.2-1.2,9-2c0-3.7,0-7.3,0-11c-2.7,0.6-6,1-10,1
			C396.5,426,393.4,425.5,391,425z"/>
		<path class="st40" d="M416.8,64c1.3,0,2.7-0.1,4-0.1c0.1,34,0.2,68,0.3,102c-1.3,0-2.7,0.1-4,0.1c0-1.7-0.1-3.3-0.1-5
			c-0.5-0.1-1.5-0.3-2.4-1.1c-1.2-1.1-1.7-2.6-1.7-3.8c0-2.2,1.6-4.2,3.9-5.1c0.2-5.5,0.5-13.8,0.5-24c0-9.3-0.5-15.8-0.5-20
			C416.8,92.7,416.8,78.3,416.8,64z"/>
		<path class="st41" d="M414,67c0,0,1.9,2,3.9,0l-0.5,19.9c0,0-2.5-1.9-3.5,0.1V67H414z"/>
	</g>
	<g class="st2">
		<path class="st30" d="M432,65v359c0,0,13,4,24,0V65H432z"/>
		<rect x="438" y="153" class="st42" width="11" height="195"/>
		<rect x="432" y="62" class="st43" width="22" height="5"/>
		<rect x="430" y="65" class="st42" width="27" height="74"/>
		<path class="st42" d="M434,425c0,3.7,0,7.3,0,11c1.9,0.8,5.4,2.1,10,2c4-0.1,7.2-1.2,9-2c0-3.7,0-7.3,0-11c-2.7,0.6-6,1-10,1
			C439.5,426,436.4,425.5,434,425z"/>
		<path class="st42" d="M459.8,64c1.3,0,2.7-0.1,4-0.1c0.1,34,0.2,68,0.3,102c-1.3,0-2.7,0.1-4,0.1c0-1.7-0.1-3.3-0.1-5
			c-0.5-0.1-1.5-0.3-2.4-1.1c-1.2-1.1-1.7-2.6-1.7-3.8c0-2.2,1.6-4.2,3.9-5.1c0.2-5.5,0.5-13.8,0.5-24c0-9.3-0.5-15.8-0.5-20
			C459.8,92.7,459.8,78.3,459.8,64z"/>
		<path class="st43" d="M457,67c0,0,1.9,2,3.9,0l-0.5,19.9c0,0-2.5-1.9-3.5,0.1V67H457z"/>
	</g>
	<g class="st2">
		<path class="st30" d="M475,65v359c0,0,13,4,24,0V65H475z"/>
		<rect x="481" y="153" class="st44" width="11" height="195"/>
		<rect x="475" y="62" class="st45" width="22" height="5"/>
		<rect x="473" y="65" class="st44" width="27" height="74"/>
		<path class="st44" d="M477,425c0,3.7,0,7.3,0,11c1.9,0.8,5.4,2.1,10,2c4-0.1,7.2-1.2,9-2c0-3.7,0-7.3,0-11c-2.7,0.6-6,1-10,1
			C482.5,426,479.4,425.5,477,425z"/>
		<path class="st44" d="M502.8,64c1.3,0,2.7-0.1,4-0.1c0.1,34,0.2,68,0.3,102c-1.3,0-2.7,0.1-4,0.1c0-1.7-0.1-3.3-0.1-5
			c-0.5-0.1-1.5-0.3-2.4-1.1c-1.2-1.1-1.7-2.6-1.7-3.8c0-2.2,1.6-4.2,3.9-5.1c0.2-5.5,0.5-13.8,0.5-24c0-9.3-0.5-15.8-0.5-20
			C502.8,92.7,502.8,78.3,502.8,64z"/>
		<path class="st45" d="M500,67c0,0,1.9,2,3.9,0l-0.5,19.9c0,0-2.5-1.9-3.5,0.1V67H500z"/>
	</g>
	<g class="st2">
		<path class="st30" d="M172,65v359c0,0,13,4,24,0V65H172z"/>
		<rect x="178" y="153" class="st46" width="11" height="195"/>
		<rect x="172" y="62" class="st47" width="22" height="5"/>
		<rect x="170" y="65" class="st46" width="27" height="74"/>
		<path class="st46" d="M174,425c0,3.7,0,7.3,0,11c1.9,0.8,5.4,2.1,10,2c4-0.1,7.2-1.2,9-2c0-3.7,0-7.3,0-11c-2.7,0.6-6,1-10,1
			C179.5,426,176.4,425.5,174,425z"/>
		<path class="st46" d="M199.8,64c1.3,0,2.7-0.1,4-0.1c0.1,34,0.2,68,0.3,102c-1.3,0-2.7,0.1-4,0.1c0-1.7-0.1-3.3-0.1-5
			c-0.5-0.1-1.5-0.3-2.4-1.1c-1.2-1.1-1.7-2.6-1.7-3.8c0-2.2,1.6-4.2,3.9-5.1c0.2-5.5,0.5-13.8,0.5-24c0-9.3-0.5-15.8-0.5-20
			C199.8,92.7,199.8,78.3,199.8,64z"/>
		<path class="st47" d="M197,67c0,0,1.9,2,3.9,0l-0.5,19.9c0,0-2.5-1.9-3.5,0.1V67H197z"/>
	</g>
	<g class="st2">
		<path class="st30" d="M129,65v359c0,0,13,4,24,0V65H129z"/>
		<rect x="135" y="153" class="st48" width="11" height="195"/>
		<rect x="129" y="62" class="st49" width="22" height="5"/>
		<rect x="127" y="65" class="st48" width="27" height="74"/>
		<path class="st48" d="M131,425c0,3.7,0,7.3,0,11c1.9,0.8,5.4,2.1,10,2c4-0.1,7.2-1.2,9-2c0-3.7,0-7.3,0-11c-2.7,0.6-6,1-10,1
			C136.5,426,133.4,425.5,131,425z"/>
		<path class="st48" d="M156.8,64c1.3,0,2.7-0.1,4-0.1c0.1,34,0.2,68,0.3,102c-1.3,0-2.7,0.1-4,0.1c0-1.7-0.1-3.3-0.1-5
			c-0.5-0.1-1.5-0.3-2.4-1.1c-1.2-1.1-1.7-2.6-1.7-3.8c0-2.2,1.6-4.2,3.9-5.1c0.2-5.5,0.5-13.8,0.5-24c0-9.3-0.5-15.8-0.5-20
			C156.8,92.7,156.8,78.3,156.8,64z"/>
		<path class="st49" d="M154,67c0,0,1.9,2,3.9,0l-0.5,19.9c0,0-2.5-1.9-3.5,0.1V67H154z"/>
	</g>
	<g class="st2">
		<path class="st30" d="M84,65v359c0,0,13,4,24,0V65H84z"/>
		<rect x="89.9" y="153" class="st50" width="10.7" height="197.2"/>
		<rect x="84" y="62" class="st51" width="22" height="5"/>
		<rect x="82" y="65" class="st50" width="27" height="74"/>
		<path class="st50" d="M86,425.3c0,3.6,0,7.2,0,10.7c1.9,0.8,5.3,2,9.8,2c3.9-0.1,7-1.2,8.8-2c0-3.6,0-7.2,0-10.7
			c-2.6,0.6-5.9,1-9.8,1C91.4,426.3,88.4,425.8,86,425.3z"/>
		<path class="st50" d="M111.8,64c1.3,0,2.7-0.1,4-0.1c0.1,34,0.2,68,0.3,102c-1.3,0-2.7,0.1-4,0.1c0-1.7-0.1-3.3-0.1-5
			c-0.5-0.1-1.5-0.3-2.4-1.1c-1.2-1.1-1.7-2.6-1.7-3.8c0-2.2,1.6-4.2,3.9-5.1c0.2-5.5,0.5-13.8,0.5-24c0-9.3-0.5-15.8-0.5-20
			C111.8,92.7,111.8,78.3,111.8,64z"/>
		<path class="st51" d="M109,67c0,0,1.9,2,3.9,0l-0.5,19.9c0,0-2.5-1.9-3.5,0.1L109,67L109,67z"/>
	</g>
	<g class="st2">
		<path class="st30" d="M39,65v359c0,0,13,4,24,0V65H39z"/>
		<rect x="45" y="153" class="st52" width="11" height="195"/>
		<rect x="39" y="62" class="st53" width="22" height="5"/>
		<rect x="37" y="65" class="st52" width="27" height="74"/>
		<path class="st52" d="M41,425c0,3.7,0,7.3,0,11c1.9,0.8,5.4,2.1,10,2c4-0.1,7.2-1.2,9-2c0-3.7,0-7.3,0-11c-2.7,0.6-6,1-10,1
			C46.5,426,43.4,425.5,41,425z"/>
		<path class="st52" d="M66.8,64c1.3,0,2.7-0.1,4-0.1c0.1,34,0.2,68,0.3,102c-1.3,0-2.7,0.1-4,0.1c0-1.7-0.1-3.3-0.1-5
			c-0.5-0.1-1.5-0.3-2.4-1.1c-1.2-1.1-1.7-2.6-1.7-3.8c0-2.2,1.6-4.2,3.9-5.1c0.2-5.5,0.5-13.8,0.5-24c0-9.3-0.5-15.8-0.5-20
			C66.8,92.7,66.8,78.3,66.8,64z"/>
		<path class="st53" d="M64,67c0,0,1.9,2,3.9,0l-0.5,19.9c0,0-2.5-1.9-3.5,0.1L64,67L64,67z"/>
	</g>
	<g class="st2">
		<path class="st30" d="M-6,65v359c0,0,13,4,24,0V65H-6z"/>
		<rect y="153" width="11" height="195"/>
		<rect x="-6" y="62" class="st54" width="22" height="5"/>
		<rect x="-8" y="65" width="27" height="74"/>
		<path d="M-4,425c0,3.7,0,7.3,0,11c1.9,0.8,5.4,2.1,10,2c4-0.1,7.2-1.2,9-2c0-3.7,0-7.3,0-11c-2.7,0.6-6,1-10,1
			C1.5,426-1.6,425.5-4,425z"/>
		<path d="M21.8,64c1.3,0,2.7-0.1,4-0.1c0.1,34,0.2,68,0.3,102c-1.3,0-2.7,0.1-4,0.1c0-1.7-0.1-3.3-0.1-5c-0.5-0.1-1.5-0.3-2.4-1.1
			c-1.2-1.1-1.7-2.6-1.7-3.8c0-2.2,1.6-4.2,3.9-5.1c0.2-5.5,0.5-13.8,0.5-24c0-9.3-0.5-15.8-0.5-20C21.8,92.7,21.8,78.3,21.8,64z"/>
		<path class="st54" d="M19,67c0,0,1.9,2,3.9,0l-0.5,19.9c0,0-2.5-1.9-3.5,0.1V67H19z"/>
	</g>
</g>
<g id="Layer_9" class="st1">
	<path class="st55" d="M332.7,346.7c83.9-28.8,121.4-102.2,104.2-147.2c-15.5-40.6-76.9-62-122.9-53.2c-44,8.4-41.1,38-88.5,50
		c-58,14.7-91.6-22.3-134.9,3.3c-4.9,2.9-24.8,15-31.8,37.5c-12.4,39.9,22.9,88.7,61.8,109.5c24.7,13.2,50.2,12.9,100.2,11.7
		C267.8,357.2,306.3,351.6,332.7,346.7z"/>
	<path class="st56" d="M436.9,199.5c-2.1-5.5-5.1-10.7-8.7-15.5c-27.7,25.9-73,61.7-136.8,87.5c-93.9,38-177.7,34.1-220.3,29.1
		c13.8,21.2,34.1,42.7,62.9,51.3c3.2,1,5.8,1.5,9.3,2.3c32,7.2,58.4,5.4,77.5,4.1c45.4-3.1,85-7.9,111.9-11.7
		C416.6,317.9,454.1,244.5,436.9,199.5z"/>
	<path class="st57" d="M129.2,236.5h-0.8c-1.4,0-2.5-1.1-2.5-2.5v-24.1c0-1.4,1.1-2.5,2.5-2.5h0.8c1.4,0,2.5,1.1,2.5,2.5V234
		C131.7,235.4,130.6,236.5,129.2,236.5z"/>
	<path class="st57" d="M245.7,334.4h-3.2c-1.4,0-2.5-1.1-2.5-2.5v-25.3c0-1.4,1.1-2.5,2.5-2.5h3.2c1.4,0,2.5,1.1,2.5,2.5v25.3
		C248.2,333.3,247.1,334.4,245.7,334.4z"/>
	<path class="st57" d="M363.3,291.3l-3.1-0.8c-1.3-0.3-2.1-1.7-1.8-3l6-23.4c0.3-1.3,1.7-2.1,3-1.8l3.1,0.8c1.3,0.3,2.1,1.7,1.8,3
		l-6,23.4C366,290.8,364.6,291.6,363.3,291.3z"/>
	<path class="st57" d="M162.7,297l-0.8,0.2c-1.3,0.3-2.7-0.5-3-1.9l-5.4-23.5c-0.3-1.3,0.5-2.7,1.9-3l0.8-0.2c1.3-0.3,2.7,0.5,3,1.9
		l5.4,23.5C164.9,295.3,164.1,296.6,162.7,297z"/>
	<path class="st57" d="M298.2,242.4h-0.8c-1.4,0-2.5-1.1-2.5-2.5v-35.8c0-1.4,1.1-2.5,2.5-2.5h0.8c1.4,0,2.5,1.1,2.5,2.5v35.8
		C300.7,241.3,299.5,242.4,298.2,242.4z"/>
	<path class="st57" d="M363.4,207.4h-0.8c-1.4,0-2.5-1.1-2.5-2.5v-41.6c0-1.4,1.1-2.5,2.5-2.5h0.8c1.4,0,2.5,1.1,2.5,2.5v41.6
		C365.9,206.3,364.8,207.4,363.4,207.4z"/>
	<path class="st57" d="M221.7,259.3l-0.8-0.1c-1.4-0.2-2.3-1.6-2-2.9l7.5-40.9c0.2-1.4,1.6-2.3,2.9-2l0.8,0.1c1.4,0.2,2.3,1.6,2,2.9
		l-7.5,40.9C224.4,258.7,223.1,259.6,221.7,259.3z"/>
</g>
<g id="Layer_10">
</g>
</svg>
