<?xml version="1.0" encoding="utf-8"?>
<!-- Generator: Adobe Illustrator 21.1.0, SVG Export Plug-In . SVG Version: 6.00 Build 0)  -->
<svg version="1.1" xmlns="http://www.w3.org/2000/svg" xmlns:xlink="http://www.w3.org/1999/xlink" x="0px" y="0px"
	 viewBox="0 0 500 500" style="enable-background:new 0 0 500 500;" xml:space="preserve">
<style type="text/css">
	.st0{fill:#C66161;}
	.st1{display:none;}
	.st2{display:inline;}
	.st3{clip-path:url(#SVGID_2_);fill:none;stroke:#EB5463;stroke-width:9;stroke-miterlimit:10;}
	.st4{clip-path:url(#SVGID_4_);fill:none;stroke:#FA6C51;stroke-width:9;stroke-miterlimit:10;}
	.st5{clip-path:url(#SVGID_6_);fill:none;stroke:#FDCD56;stroke-width:9;stroke-miterlimit:10;}
	.st6{clip-path:url(#SVGID_8_);fill:none;stroke:#9ED26A;stroke-width:9;stroke-miterlimit:10;}
	.st7{clip-path:url(#SVGID_10_);fill:none;stroke:#4FC0E8;stroke-width:9;stroke-miterlimit:10;}
	.st8{clip-path:url(#SVGID_12_);fill:none;stroke:#5E9CEA;stroke-width:9;stroke-miterlimit:10;}
	.st9{clip-path:url(#SVGID_14_);fill:none;stroke:#AC92EA;stroke-width:9;stroke-miterlimit:10;}
	.st10{display:inline;fill:#FAFAFA;}
	.st11{display:inline;fill:#FFFFFF;}
	.st12{fill:#F4F6F8;}
	.st13{fill:#424852;}
	.st14{fill:#979A9E;}
	.st15{fill:#E4E8EB;}
	.st16{display:inline;fill:#CEDDDC;}
	.st17{display:inline;opacity:0.77;fill:#8DCCC7;enable-background:new    ;}
	.st18{display:inline;opacity:0.83;fill:#CDE0DC;enable-background:new    ;}
	.st19{display:inline;fill:none;}
	.st20{display:inline;opacity:0.83;fill:#E5E5E5;enable-background:new    ;}
	.st21{display:inline;opacity:0.25;fill:#C7DDEA;enable-background:new    ;}
	.st22{display:inline;fill:none;stroke:#E0DFDE;stroke-width:12;stroke-miterlimit:10;}
	.st23{display:inline;fill:#E0DFDE;}
	.st24{display:inline;fill:#D94452;}
	.st25{display:inline;fill:#E4E8EB;}
	.st26{display:inline;fill:#E24D62;}
	.st27{display:inline;fill:#E5E5E5;}
	.st28{display:inline;fill:#CAD0D7;}
	.st29{display:inline;fill:#D17575;}
	.st30{display:inline;fill:#C96767;}
	.st31{display:inline;fill:#EA8953;}
	.st32{display:inline;fill:#D1D1D1;}
	.st33{display:inline;fill:#CECCCC;}
	.st34{display:inline;opacity:0.45;fill:#D3D1D1;enable-background:new    ;}
	.st35{display:inline;fill:#E25A5A;}
	.st36{display:inline;fill:#DB4242;}
	.st37{display:inline;opacity:0.56;fill:#F4B0B0;enable-background:new    ;}
	.st38{display:inline;fill:#05AF2D;}
	.st39{display:inline;fill:#3FD15E;}
	.st40{display:inline;fill:#F4EF9F;}
	.st41{display:inline;fill:#ED7A9A;stroke:#D4145A;stroke-width:3;stroke-miterlimit:10;}
	.st42{display:inline;fill:#ED7A9A;}
	.st43{fill:#ED7A9A;stroke:#D4145A;stroke-width:3;stroke-miterlimit:10;}
	.st44{fill:#ED7A9A;}
	.st45{fill:#EFCAD7;}
	.st46{display:inline;fill:#EFCAD7;}
</style>
<g id="Layer_2_1_">
	<rect class="st0" width="500" height="500"/>
</g>
<g id="Layer_1">
	<g id="Layer_1_1_" class="st1">
		<g class="st2">
			<g>
				<defs>
					<rect id="SVGID_1_" x="-61" y="66.4" width="579" height="271.9"/>
				</defs>
				<clipPath id="SVGID_2_">
					<use xlink:href="#SVGID_1_"  style="overflow:visible;"/>
				</clipPath>
				<circle class="st3" cx="253.7" cy="338.3" r="211"/>
			</g>
			<g>
				<defs>
					<rect id="SVGID_3_" x="-61" y="66.4" width="579" height="271.9"/>
				</defs>
				<clipPath id="SVGID_4_">
					<use xlink:href="#SVGID_3_"  style="overflow:visible;"/>
				</clipPath>
				<circle class="st4" cx="253.7" cy="338.3" r="202.2"/>
			</g>
			<g>
				<defs>
					<rect id="SVGID_5_" x="-61" y="66.4" width="579" height="271.9"/>
				</defs>
				<clipPath id="SVGID_6_">
					<use xlink:href="#SVGID_5_"  style="overflow:visible;"/>
				</clipPath>
				<circle class="st5" cx="253.7" cy="338.3" r="193.4"/>
			</g>
			<g>
				<defs>
					<rect id="SVGID_7_" x="-61" y="66.4" width="579" height="271.9"/>
				</defs>
				<clipPath id="SVGID_8_">
					<use xlink:href="#SVGID_7_"  style="overflow:visible;"/>
				</clipPath>
				<circle class="st6" cx="253.7" cy="338.3" r="184.6"/>
			</g>
			<g>
				<defs>
					<rect id="SVGID_9_" x="-61" y="66.4" width="579" height="271.9"/>
				</defs>
				<clipPath id="SVGID_10_">
					<use xlink:href="#SVGID_9_"  style="overflow:visible;"/>
				</clipPath>
				<circle class="st7" cx="253.7" cy="338.3" r="175.8"/>
			</g>
			<g>
				<defs>
					<rect id="SVGID_11_" x="-61" y="66.4" width="579" height="271.9"/>
				</defs>
				<clipPath id="SVGID_12_">
					<use xlink:href="#SVGID_11_"  style="overflow:visible;"/>
				</clipPath>
				<circle class="st8" cx="253.7" cy="338.3" r="167"/>
			</g>
			<g>
				<defs>
					<rect id="SVGID_13_" x="-61" y="66.4" width="579" height="271.9"/>
				</defs>
				<clipPath id="SVGID_14_">
					<use xlink:href="#SVGID_13_"  style="overflow:visible;"/>
				</clipPath>
				<circle class="st9" cx="253.7" cy="338.3" r="158.2"/>
			</g>
		</g>
		<ellipse class="st10" cx="45.1" cy="346.2" rx="37.1" ry="26.4"/>
		<ellipse class="st10" cx="82.2" cy="346.2" rx="37.1" ry="26.4"/>
		<ellipse class="st11" cx="65.4" cy="338.3" rx="37.1" ry="26.4"/>
		<ellipse class="st10" cx="420.3" cy="342.8" rx="37.1" ry="26.4"/>
		<ellipse class="st10" cx="457.3" cy="342.8" rx="37.1" ry="26.4"/>
		<ellipse class="st11" cx="440.5" cy="335" rx="37.1" ry="26.4"/>
	</g>
	<g id="Layer_2">
		<g>
			<circle class="st12" cx="123.7" cy="212.7" r="27.3"/>
			
				<ellipse transform="matrix(0.9774 -0.2113 0.2113 0.9774 -36.1537 32.6722)" class="st12" cx="134.8" cy="185.5" rx="26.3" ry="26.2"/>
			
				<ellipse transform="matrix(0.9774 -0.2113 0.2113 0.9774 -17.5194 56.4766)" class="st12" cx="255.5" cy="110.2" rx="26.3" ry="26.2"/>
			
				<ellipse transform="matrix(0.9774 -0.2113 0.2113 0.9774 -17.9118 63.1865)" class="st12" cx="286.7" cy="115.4" rx="26.3" ry="26.2"/>
			
				<ellipse transform="matrix(0.9774 -0.2113 0.2113 0.9774 -18.978 68.8363)" class="st12" cx="312.6" cy="123.2" rx="26.3" ry="26.2"/>
			
				<ellipse transform="matrix(0.9774 -0.2113 0.2113 0.9774 -21.2043 73.7934)" class="st12" cx="334.7" cy="136.1" rx="26.3" ry="26.2"/>
			
				<ellipse transform="matrix(0.9774 -0.2113 0.2113 0.9774 -24.883 78.3549)" class="st12" cx="354.2" cy="155.6" rx="26.3" ry="26.2"/>
			
				<ellipse transform="matrix(0.9774 -0.2113 0.2113 0.9774 -29.9057 83.3383)" class="st12" cx="375" cy="181.6" rx="26.3" ry="26.2"/>
			
				<ellipse transform="matrix(0.9774 -0.2113 0.2113 0.9774 -36.249 86.2151)" class="st12" cx="385.3" cy="212.7" rx="26.3" ry="26.2"/>
			
				<ellipse transform="matrix(0.9774 -0.2113 0.2113 0.9774 -18.9253 51.0915)" class="st12" cx="229.6" cy="114.1" rx="26.3" ry="26.2"/>
			
				<ellipse transform="matrix(0.9774 -0.2113 0.2113 0.9774 -21.4365 45.804)" class="st12" cx="203.6" cy="123.2" rx="26.3" ry="26.2"/>
			
				<ellipse transform="matrix(0.9774 -0.2113 0.2113 0.9774 -24.7516 40.5981)" class="st12" cx="177.6" cy="136.1" rx="26.3" ry="26.2"/>
			
				<ellipse transform="matrix(0.9774 -0.2113 0.2113 0.9774 -30.16 36.7532)" class="st12" cx="156.9" cy="159.5" rx="26.3" ry="26.2"/>
			
				<ellipse transform="matrix(0.9774 -0.2113 0.2113 0.9774 -48.2628 59.7802)" class="st12" cx="255.6" cy="255.7" rx="134.4" ry="133.7"/>
			<path d="M319.4,423H190.2c-6.6,0-12-5.4-12-12v-29.2c0-6.6,5.4-12,12-12h129.2c6.6,0,12,5.4,12,12V411
				C331.4,417.6,326,423,319.4,423z"/>
			<g>
				<path d="M254.2,391.3c-91.7,0-166.7-72.9-170.1-163.8h340.2C420.9,318.4,345.9,391.3,254.2,391.3z"/>
				<path d="M416.8,234.5c-3.1,38.6-19.6,74.4-47.3,102c-30.8,30.8-71.8,47.8-115.4,47.8s-84.6-17-115.4-47.8
					c-27.7-27.7-44.2-63.5-47.3-102H416.8 M431.4,220.5H77c0,0.2,0,0.4,0,0.6c0,97.9,79.3,177.2,177.2,177.2S431.4,319,431.4,221.1
					C431.4,220.9,431.4,220.7,431.4,220.5L431.4,220.5z"/>
			</g>
			<g>
				<path class="st13" d="M91.3,237.4h80.4c-2.6,16.2-4.4,41.9,3.1,72.3c7.1,28.8,19.9,50.5,29.4,64c-17.3-7.2-57.4-26.4-85.8-67.7
					C100,279,93.7,253.3,91.3,237.4z"/>
				<path class="st14" d="M91,237.5l36.3-0.2c-2.2,14.7-3.2,35.3,2.9,58.4c6.4,24.3,17.9,40.1,15.8,41.5
					c-2.4,1.6-19.5-17.2-32.6-40.1C100.2,274.3,94.1,252.8,91,237.5z"/>
			</g>
			
				<ellipse transform="matrix(0.5861 -0.8103 0.8103 0.5861 -23.0449 228.2556)" class="st15" cx="211.9" cy="136.7" rx="6.7" ry="14.3"/>
			
				<ellipse transform="matrix(0.2028 -0.9792 0.9792 0.2028 -38.0745 335.741)" class="st15" cx="187.2" cy="191.3" rx="14.3" ry="6.7"/>
			
				<ellipse transform="matrix(0.9862 -0.1656 0.1656 0.9862 -17.2236 53.8611)" class="st15" cx="314.4" cy="130.2" rx="14.3" ry="6.7"/>
			
				<ellipse transform="matrix(0.5861 -0.8103 0.8103 0.5861 -48.3892 292.9029)" class="st15" cx="262.5" cy="193.8" rx="6.7" ry="14.3"/>
			<ellipse transform="matrix(0.866 -0.5 0.5 0.866 -46.2802 186.4716)" class="st15" cx="324.8" cy="179.6" rx="14.3" ry="6.7"/>
		</g>
	</g>
	<g id="Layer_3" class="st1">
		<polygon class="st16" points="200.5,164.9 298,164.9 249.4,216.1 		"/>
		<polygon class="st17" points="249.4,164.9 225.4,190.1 274.1,190.1 		"/>
		<polygon class="st18" points="249.1,216.1 269.4,164.9 229.4,164.9 		"/>
		<path class="st19" d="M200.5,164.9l22.8-18.7c17.5,0,35,0.1,52.5,0.1c7.4,6.2,14.7,12.4,22.1,18.5L200.5,164.9L200.5,164.9z"/>
		<polygon class="st18" points="229.4,164.9 249.3,146.2 269.4,164.9 		"/>
		<polygon class="st20" points="223.7,146.4 248.4,165.1 275.2,146.5 		"/>
		<path class="st17" d="M200.6,165.1l22.8-18.8l24.7,18.8c-8.5-0.1-17-0.2-25.6-0.3C215.3,164.9,207.9,165,200.6,165.1z"/>
		<path class="st17" d="M274.8,146.2c7.7,6.3,15.4,12.6,23,18.8c-8.4,0-16.9,0-25.3,0c-8.1,0-16.3,0-24.4,0
			C257,158.8,265.9,152.5,274.8,146.2z"/>
		<polygon class="st21" points="200.6,165.1 249.4,164.9 225.4,190.1 		"/>
		<circle class="st22" cx="250" cy="279" r="68"/>
		<path class="st23" d="M217,192h63c-10.7,8-21.3,16-32,24C237.7,208,227.3,200,217,192z"/>
	</g>
	<g id="Layer_4" class="st1">
		<path class="st24" d="M326.6,67.2c-2.5-0.8-5.2,0.3-6.6,2.6c-4.4,9.6-8.7,19.2-13.1,28.9l-51.2,110.2c-9.6,19.7-19.2,39.4-28.9,59
			c-7.4,14.4-14.9,28.9-22.3,43.3c-5.2,8.3-10.5,16.6-15.7,24.9l-9.2,10.5l-11.8,6.6c-4.1,0.1-10.1,0.7-17.1,2.6
			c-7.3,2.1-14.6,4.1-21,10.5c-5.6,5.7-7.9,12-9.2,15.7c-2.6,7.3-2.6,13.2-2.6,14.4c0,2.7,0,8.1,2.6,14.4c3.1,7.7,8.1,12.2,9.2,13.1
			c6.8,5.9,14,7.3,17.1,7.9c10.4,1.9,18.7-1.1,22.3-2.6c6.1-2.4,9.9-5.8,11.8-7.9c4.6-4.9,6.4-10,7.9-14.4c1.8-5.2,2.3-9.4,2.6-11.8
			c0.8-6.6,0.3-11.9,0-15.7c-0.7-8.3-1.9-9.8-1.3-14.4c0.6-4.7,2.5-8.3,3.9-10.5c5.7-9.6,11.4-19.2,17.1-28.9
			c5.6-8,11.1-14.6,15.7-19.7c3.1-3.4,7.5-8,13.1-13.1c3.5-3.2,6.6-5.8,9.2-7.9c6.1-10.5,12.2-21,18.4-31.5
			c6.2-14.8,12.4-30.1,18.4-45.9c13.3-34.9,24.5-68.7,34.1-101c3.5-11.4,7-22.7,10.5-34.1C330.4,70,328.8,67.9,326.6,67.2z
			 M155.4,421.4c-15.6,0-28.2-12.6-28.2-28.2s12.6-28.2,28.2-28.2s28.2,12.6,28.2,28.2C183.6,408.7,171,421.4,155.4,421.4z"/>
		<path class="st25" d="M253.1,214.1l15.7,7.9c19.2-51.6,38.5-103.2,57.7-154.8c-0.6-0.2-2.1-0.6-3.9,0c-2.8,0.9-3.8,3.6-3.9,3.9
			C296.9,118.8,275,166.4,253.1,214.1z"/>
		<path class="st26" d="M380.4,382c-1.3-3.7-3.5-10.1-9.2-15.7c-6.4-6.4-13.7-8.4-21-10.5c-7-2-12.9-2.5-17.1-2.6l-11.8-6.6
			l-9.2-10.5c-5.2-8.3-10.5-16.6-15.7-24.9c-7.4-14.4-14.9-28.9-22.3-43.3c-9.6-19.7-19.2-39.4-28.9-59L194.1,98.6
			c-4.4-9.6-8.7-19.2-13.1-28.9c-1.3-2.3-4.1-3.4-6.6-2.6c-2.3,0.7-3.9,2.8-3.9,5.2c3.5,11.4,7,22.7,10.5,34.1
			c9.6,32.3,20.8,66.1,34.1,101c6,15.8,12.1,31.1,18.4,45.9c6.1,10.5,12.2,21,18.4,31.5c2.6,2.1,5.7,4.7,9.2,7.9
			c5.6,5.1,10,9.7,13.1,13.1c4.6,5.1,10.1,11.6,15.7,19.7c5.7,9.6,11.4,19.2,17.1,28.9c1.4,2.2,3.3,5.8,3.9,10.5s-0.6,6.1-1.3,14.4
			c-0.3,3.9-0.8,9.2,0,15.7c0.3,2.5,0.8,6.6,2.6,11.8c1.5,4.4,3.3,9.5,7.9,14.4c2,2.1,5.7,5.5,11.8,7.9c3.6,1.5,11.9,4.5,22.3,2.6
			c3-0.6,10.3-2,17.1-7.9c1.1-1,6.1-5.4,9.2-13.1c2.6-6.4,2.6-11.8,2.6-14.4C383,395.2,382.9,389.3,380.4,382z M345.6,421.4
			c-15.6,0-28.2-12.6-28.2-28.2S330,365,345.6,365s28.2,12.6,28.2,28.2C373.8,408.7,361.2,421.4,345.6,421.4z"/>
		<path class="st25" d="M247.9,214.1l-15.7,7.9c-19.2-51.6-38.5-103.2-57.7-154.8c0.6-0.2,2.1-0.6,3.9,0c2.8,0.9,3.8,3.6,3.9,3.9
			C204.1,118.8,226,166.4,247.9,214.1z"/>
		<circle class="st27" cx="249.8" cy="256.7" r="9.8"/>
		
			<rect x="240.5" y="256.8" transform="matrix(0.7674 -0.6412 0.6412 0.7674 -107.0268 220.3385)" class="st28" width="19.3" height="1.7"/>
	</g>
	<g id="Layer_5" class="st1">
		<path class="st29" d="M179.5,141.1c-12.5,31.9-24.9,65.8-36.7,101.6c-12.2,36.9-22.7,72.5-31.8,106.5
			c38.1,8.4,87.7,15.6,145.7,14.7c52-0.8,96.8-7.8,132.2-15.9c-9.1-34.4-19.6-70.4-31.8-107.7c-11.4-34.9-23.4-68-35.5-99.1
			c-21.1,2.2-44.5,3.6-69.8,3.7C225.5,144.8,201.3,143.4,179.5,141.1z"/>
		<ellipse class="st29" cx="250.5" cy="143" rx="71" ry="8"/>
		<path class="st30" d="M112.8,341.2c37,8,84.4,14.8,139.5,14.7c53.5-0.2,99.6-6.9,135.9-14.7c0.4,2,0.8,4.1,1.2,6.1
			c-35.6,8.8-82.7,16.8-138.3,17.1c-56.1,0.3-103.6-7.4-139.5-15.9C112,346.1,112.4,343.7,112.8,341.2z"/>
		<path class="st30" d="M174.6,152.1c-0.4,1.2-0.8,2.4-1.2,3.7c22.4,3.2,47.9,5.6,75.9,6.1c29.4,0.5,56.1-1.1,79.6-3.7
			c-0.8-1.2-1.6-2.4-2.4-3.7c-23,2.6-49.3,4.3-78.3,3.7C220.9,157.7,196.3,155.3,174.6,152.1z"/>
	</g>
	<g id="Layer_6" class="st1">
		<path class="st31" d="M248,168c1.7,31.3,3.3,62.7,5,94c-3.7,4.6-8.6,10.1-15,16c-2,1.8-9.6,8.7-21,16c-6.8,4.3-15.8,9.4-27,14
			c-3,7.7-6,15.3-9,23c6,4.3,12,8.7,18,13c7.3,0,14.7,0,22,0c6.2-1.1,13.4-2.8,21.2-5.5c8.5-2.9,15.8-6.3,21.8-9.5
			c13.7-5.3,27.3-10.6,41-15.9c0,0,22.4-6,13.5-37.4l-9-26.9c0.2-26.9,0.3-53.9,0.5-80.8C289.3,168,268.7,168,248,168z"/>
		<path class="st11" d="M296,284c-0.3,11-0.7,22-1,33c1.9-0.1,12.9-0.6,20.5-9.7c6.8-8.2,8.2-20,3.5-30.3
			C311.3,279.3,303.7,281.7,296,284z"/>
		<path class="st11" d="M191,308c2.8,4.7,7,10.4,13,16c11.5,10.6,23.9,15.1,31,17c-2.9,0.9-7.8,2.2-14,3c-7.7,0.9-29.6,3.6-42-9
			c-2.2-2.2-6.4-6.5-6-12C173.5,316.4,180.6,310.4,191,308z"/>
		<rect x="248" y="152" class="st11" width="62" height="16"/>
	</g>
	<g id="Layer_7" class="st1">
		<path class="st32" d="M248.8,42c-8.1,0.3-13.9,3.5-16,4.8c-7.7,4.4-11.4,10.5-16.8,19.3c-4.7,7.7-7.1,14.3-8,17
			c-0.4,1.2-2.3,7.1-3.5,15.3c-0.9,6.3-0.9,10.8-0.9,18.2c0,8,0.1,12.2,1.1,17.3c1.3,6.1,3.2,10.5,4,12.3c2.9,6.3,6.5,10.9,9.3,14
			c5.2,4.6,9.7,7.8,13,10c4.7,3.1,7.5,4.4,9.3,8c1,2.1,1.3,4.5,1.8,9.3c0.4,4.3,0.5,7.9,0.5,10.5c-0.9,13.9-2.9,44.1-5.5,75
			c-1.7,20.5-3.2,35-3.6,38.9c-0.8,8.3-1.6,15.2-2.2,20.3c-1.1,10.3-2.2,20.7-3.3,31c-0.1,5.6-0.5,11.1-1.2,16.5l0,0
			c-1.1,7.6-1.7,12.1-2.3,19c-1,12.7-0.8,23.3-0.5,30.5c0.7,3.2,2.8,11.7,7.8,18.3c1.5,2,3.2,3.7,3.2,3.7c1.6,1.6,4.7,4.8,8.5,6.5
			c5.8,2.6,11.7,1.3,14.5,0.5c2.4-1.2,6.4-3.6,10-7.8c3.4-3.9,5.1-7.7,6-10.3c2.1-8.4,4-19.4,3.8-32.5c-0.1-8.7-1.2-16.4-2.5-22.8
			c-2.1-20.5-4.2-41-6.3-61.5c-2.6-24.4-5.2-48.8-7.8-73.3c-0.4-10.6-0.9-19.2-1.3-25c-0.4-6.2-0.7-10.5-1-17.8
			c-0.5-14.1,0.1-19.1,2-24.3c1.6-4.3,3.7-7.5,5.3-9.5c4.4-2.2,11.4-6.4,17.8-13.8c7.9-9.1,11-18.4,12.3-23.5
			c3.7-13.1,3.3-23.5,2.5-30c-0.5-4-1.4-7.9-3.3-15.5c-2.3-9.6-3.5-14.5-6.3-20.3c-1.7-3.6-4.4-8.4-8.8-13.5
			c-1.5-2.3-4.5-6.3-9.8-9.5c-5.2-3.2-10-4.2-12.8-4.5C255.8,42.4,252.6,41.9,248.8,42z"/>
		<path class="st11" d="M245.8,40c-8.1,0.3-13.9,3.5-16,4.8c-7.7,4.4-11.4,10.5-16.8,19.3c-4.7,7.7-7.1,14.3-8,17
			c-0.4,1.2-2.3,7.1-3.5,15.3c-0.9,6.3-0.9,10.8-0.9,18.2c0,8,0.1,12.2,1.1,17.3c1.3,6.1,3.2,10.5,4,12.3c2.9,6.3,6.5,10.9,9.3,14
			c5.2,4.6,9.7,7.8,13,10c4.7,3.1,7.5,4.4,9.3,8c1,2.1,1.3,4.5,1.8,9.3c0.4,4.3,0.5,7.9,0.5,10.5c-0.9,13.9-2.9,44.1-5.5,75
			c-1.7,20.5-3.2,35-3.6,38.9c-0.8,8.3-1.6,15.2-2.2,20.3c-1.1,10.3-2.2,20.7-3.3,31c-0.1,5.6-0.5,11.1-1.2,16.5l0,0
			c-1.1,7.6-1.7,12.1-2.3,19c-1,12.7-0.8,23.3-0.5,30.5c0.7,3.2,2.8,11.7,7.8,18.3c1.5,2,3.2,3.7,3.2,3.7c1.6,1.6,4.7,4.8,8.5,6.5
			c5.8,2.6,11.7,1.3,14.5,0.5c2.4-1.2,6.4-3.6,10-7.8c3.4-3.9,5.1-7.7,6-10.3c2.1-8.4,4-19.4,3.8-32.5c-0.1-8.7-1.2-16.4-2.5-22.8
			c-2.1-20.5-4.2-41-6.3-61.5c-2.6-24.4-5.2-48.8-7.8-73.3c-0.4-10.6-0.9-19.2-1.3-25c-0.4-6.2-0.7-10.5-1-17.8
			c-0.5-14.1,0.1-19.1,2-24.3c1.6-4.3,3.7-7.5,5.3-9.5c4.4-2.2,11.4-6.4,17.8-13.8c7.9-9.1,11-18.4,12.3-23.5
			c3.7-13.1,3.3-23.5,2.5-30c-0.5-4-1.4-7.9-3.3-15.5c-2.3-9.6-3.5-14.5-6.3-20.3c-1.7-3.6-4.4-8.4-8.8-13.5
			c-1.5-2.3-4.5-6.3-9.8-9.5c-5.2-3.2-10-4.2-12.8-4.5C252.8,40.4,249.6,39.9,245.8,40z"/>
		<rect x="239.5" y="179" class="st33" width="18" height="2.1"/>
		<rect x="240" y="187.6" class="st33" width="16.5" height="1.9"/>
		<path class="st34" d="M232.7,155.5c1.7-1.2-1.2-6.4-3.7-17.5c-1.3-6-2.8-12.9-2.5-21.5c0.1-2.8,0.6-9.2,3-17c1-3.2,2.6-8.1,6-13.5
			c2.8-4.4,5.5-6.7,10-11.5c4.2-4.4,9.8-10.2,16.7-16.8c-2.1-1.2-8.9-4.8-17.8-3.5c-7.2,1-12,4.7-14,6.3
			c-7.2,7.1-11.2,14.2-13.5,18.8c-1,2-2.9,6.3-4.5,12.2c-0.5,1.8-1.8,6.8-2.3,13.5c-0.1,1.7-0.3,4.7-0.2,8.5
			c0.2,5.1,0.4,12.1,3.3,20.2c1.4,3.8,4,9.6,9.1,15.6C229,155.4,231.7,156.2,232.7,155.5z"/>
	</g>
	<g id="Layer_8" class="st1">
		<path class="st35" d="M327.8,189.2c-15.8-14.8-36.4-18.3-50.6-20.9c-11.7-2.2-21.7-2.5-28.8-2.3c-6.4-0.1-15.6,0.3-26.3,2.3
			c-13.7,2.5-34.7,6-50.6,20.9c-27.5,25.9-25.2,61.7-24.4,69.6c1.6,15.9,11.4,30.5,30.5,59.8c18.8,28.8,30.4,37.7,36.4,41.9
			c10.9,7.5,21.7,15,35.7,15.5c28.5,1,50-27.8,72.1-57.4c18.3-24.6,28.4-38,30.5-59.8C353,250.9,355.4,215.1,327.8,189.2z"/>
		<path class="st36" d="M328.8,189.2c-15.8-14.8-36.4-18.3-50.6-20.9c-10.9-2-20.3-2.4-27.2-2.3v210c28.3,0.7,49.7-27.9,71.7-57.4
			c18.3-24.6,28.4-38,30.5-59.8C354,250.9,356.4,215.1,328.8,189.2z"/>
		<path class="st37" d="M191,185.3c-2.6,1.9-6,4.7-9.8,8.5c-2.3,2.4-11.8,12.5-18.3,29.3c-2.6,6.7-6.1,15.9-6.1,28.1
			c0.1,24.6,14.6,43.3,15.9,42.7c0.9-0.4-5.4-9.9-6.1-25.6c-0.7-16.1,4.7-28.8,8.5-37.9c4.1-9.6,7.7-18.1,15.9-26.9
			c6.7-7.2,13.3-11.3,12.2-14.7C202.3,186,196,185.4,191,185.3z"/>
		<path class="st38" d="M199.6,179.4c0.3,2.9,9.5,4.6,15.9,4.9c19.9,0.8,39.1-11.7,37.9-15.9c-1.2-4-20.9-1.3-31.8,1.2
			C220.7,169.8,199.2,174.9,199.6,179.4z"/>
		<path class="st39" d="M207.6,197.2c1.3,2.6,10.5,1,16.6-1c18.9-6.3,32.4-24.8,29.8-28.2c-2.5-3.3-20,6.2-29.3,12.4
			C224,180.8,205.7,193.1,207.6,197.2z"/>
		<path class="st38" d="M228,215.6c2.4,1.7,9.7-4.2,14-8.9c13.5-14.7,16.4-37.4,12.5-39.1c-3.8-1.7-14.5,15.1-19.7,25
			C234.4,193.3,224.3,213,228,215.6z"/>
		<path class="st39" d="M258,222.1c2.9,0.2,6.1-8.6,7.3-14.9c3.9-19.5-5.4-40.5-9.7-39.9c-4.1,0.5-4.6,20.4-3.8,31.5
			C251.9,199.8,253.5,221.8,258,222.1z"/>
		<path class="st38" d="M282.9,214.7c2.6-1.3,0.8-10.5-1.3-16.6c-6.6-18.8-25.3-32-28.7-29.3c-3.2,2.5,6.5,19.9,12.9,29.1
			C266.2,198.7,278.9,216.8,282.9,214.7z"/>
		<path class="st40" d="M333.4,267.1c-0.2,0.9-2,10-4.9,10c-3,0-4.8-9.2-4.9-10c-0.5-2.9-1.1-6,0.8-8.4c0.2-0.3,1.7-2.2,4.2-2.3
			c2.3-0.1,3.8,1.5,4,1.7C334.6,260.4,333.9,264.2,333.4,267.1z"/>
		<path class="st40" d="M219.8,272c-0.2,0.9-2,10-4.9,10c-3,0-4.8-9.2-4.9-10c-0.5-2.9-1.1-6,0.8-8.4c0.2-0.3,1.7-2.2,4.2-2.3
			c2.3-0.1,3.8,1.5,4,1.7C221.1,265.3,220.3,269.1,219.8,272z"/>
		<path class="st40" d="M235.6,325.7c-0.2,0.9-2,10-4.9,10c-3,0-4.8-9.2-4.9-10c-0.5-2.9-1.1-6,0.8-8.4c0.2-0.3,1.7-2.2,4.2-2.3
			c2.3-0.1,3.8,1.5,4,1.7C236.9,319,236.2,322.8,235.6,325.7z"/>
		<path class="st40" d="M258.9,290.3c-0.2,0.9-2,10-4.9,10c-3,0-4.8-9.2-4.9-10c-0.5-2.9-1.1-6,0.8-8.4c0.2-0.3,1.7-2.2,4.2-2.3
			c2.3-0.1,3.8,1.5,4,1.7C260.1,283.6,259.4,287.4,258.9,290.3z"/>
		<path class="st40" d="M283.3,257.3c-0.2,0.9-2,10-4.9,10c-3,0-4.8-9.2-4.9-10c-0.5-2.9-1.1-6,0.8-8.4c0.2-0.3,1.7-2.2,4.2-2.3
			c2.3-0.1,3.8,1.5,4,1.7C284.6,250.6,283.8,254.4,283.3,257.3z"/>
		<path class="st40" d="M294.3,300c-0.2,0.9-2,10-4.9,10c-3,0-4.8-9.2-4.9-10c-0.5-2.9-1.1-6,0.8-8.4c0.2-0.3,1.7-2.2,4.2-2.3
			c2.3-0.1,3.8,1.5,4,1.7C295.6,293.4,294.8,297.1,294.3,300z"/>
		<path class="st40" d="M263.5,338.8c-0.1,0.8-1.6,8.2-4,8.2s-3.9-7.5-4-8.2c-0.4-2.3-0.9-4.9,0.6-6.9c0.2-0.3,1.4-1.8,3.4-1.9
			c1.9-0.1,3.1,1.2,3.3,1.4C264.6,333.3,264,336.4,263.5,338.8z"/>
		<path class="st40" d="M202.7,243.9c-0.2,0.9-2,10-4.9,10c-3,0-4.8-9.2-4.9-10c-0.5-2.9-1.1-6,0.8-8.4c0.2-0.3,1.7-2.2,4.2-2.3
			c2.3-0.1,3.8,1.5,4,1.7C204,237.2,203.2,241,202.7,243.9z"/>
		<path class="st40" d="M312.6,229.2c-0.2,0.9-2,10-4.9,10c-3,0-4.8-9.2-4.9-10c-0.5-2.9-1.1-6,0.8-8.4c0.2-0.3,1.7-2.2,4.2-2.3
			c2.3-0.1,3.8,1.5,4,1.7C313.9,222.5,313.2,226.3,312.6,229.2z"/>
		<path class="st40" d="M246.6,247.5c-0.2,0.9-2,10-4.9,10c-3,0-4.8-9.2-4.9-10c-0.5-2.9-1.1-6,0.8-8.4c0.2-0.3,1.7-2.2,4.2-2.3
			c2.3-0.1,3.8,1.5,4,1.7C247.9,240.8,247.2,244.6,246.6,247.5z"/>
		<path class="st40" d="M208.8,309.8c-0.2,0.9-2,10-4.9,10c-3,0-4.8-9.2-4.9-10c-0.5-2.9-1.1-6,0.8-8.4c0.2-0.3,1.7-2.2,4.2-2.3
			c2.3-0.1,3.8,1.5,4,1.7C210.1,303.1,209.3,306.9,208.8,309.8z"/>
		<path class="st39" d="M294.8,200.8c2-2.1-2.8-10.2-6.8-15.2c-12.5-15.5-34.6-21.7-36.9-18c-2.2,3.5,12.8,16.6,21.9,23.1
			C273.7,191.3,291.7,204.1,294.8,200.8z"/>
		<path class="st39" d="M248.4,167.2c-0.7-4.4-2-15.8,3.7-28.1c4.1-8.8,10-14.3,13.4-17.1l6.1,4.9c-1.4,2-3.5,5-6.1,8.5
			c-5.1,7.2-5.6,7.7-6.1,8.5c-2.5,4-4.2,10.8-0.6,23.2L248.4,167.2z"/>
		<path class="st38" d="M305.8,182c0.9-2.8-6.9-7.9-12.8-10.6c-18.1-8.4-40.6-4.3-41.1,0c-0.5,4.1,18.8,9.3,29.8,11.2
			C282.7,182.7,304.5,186.3,305.8,182z"/>
	</g>
	<g id="Layer_9" class="st1">
		<path class="st41" d="M448.6,189.2c4.1,12.8,8.3,32.3,5.4,55.3c-1.7,14-4.4,36-21.5,53.6c-1.5,1.6-6.3,6.8-14.3,11.2
			C395.5,322,362,320.2,362,320.2s-6.6,0.2-15.5-2.2c-15.2-4-24.7-12.9-29.8-17.8c-19.5-18.5-24.4-41.3-25.8-48.5
			c-1.4-7.1-3.8-19.8,0-35.4c2.1-8.7,5.5-15.4,8.2-20c7.5-4,18.3-8.9,31.7-12.7c18.6-5.3,33.3-5.9,46.2-6.3
			c15.8-0.6,31.8-1,51.7,4.5C437,184.2,443.8,187,448.6,189.2z"/>
		<path class="st2" d="M488,178.7v22.7l-9.1,3.6c0,0-7.3,3.6-9.1,20c-1.3,0.7-2.8,1.3-4.5,1.8c-5.1,1.5-9.7,1.3-12.7,0.9
			c2.1-18.1-2.3-27.5-7.3-32.6c-12.1-12.7-39.9-13.6-39.9-13.6s-8.9,0-25.4,0c-12.2,0.6-22.4,1.7-29.9,2.7
			c-22.7,3.1-31.1,6.6-34.5,8.2c-6.9,3.1-12.1,6.6-15.4,9.1c0,0-11.8,15.4-11.8,21.8c-1.1,1.4-2.1,1.7-2.7,1.8
			c-3,0.4-6.9-3.8-9.1-10.9c-0.6-2-1.9-5.9-0.9-10.9c1.1-5.1,4-8.4,5.4-10c2.3-2.5,5.5-5,17.2-9.1c12.1-4.2,19-5.4,19-5.4
			c23.5-4.7,35.3-7.1,51.7-8.2c13.4-0.9,22.7-0.6,40.8,0c9.1,0.3,22.8,0.8,40.8,2.7C465.5,174.9,478.1,176.9,488,178.7z"/>
		<path class="st42" d="M480.7,193.2c-0.1,0.7-1.7,1.9-11.8,2.7c-10.2-0.7-12.6-1.8-12.7-2.7c-0.1-1.6,7.3-4.2,14.5-3.6
			C475.5,190,480.8,191.8,480.7,193.2z"/>
		<path class="st2" d="M226.8,194.1c14.6-1.4,40.2-3.1,52.2,1.8c1.5,0.6,6,2.5,5.9,4.5c-0.2,2.9-9.2,5.3-9.4,4.9
			c0-0.1,0.1-0.2,0.3-0.3c-6.7-1.1-14.6-1.9-23.6-1.8c-11.8,0.1-21.9,1.7-29.9,3.6c-1-0.2-4.9-1.3-5.4-3.6
			C216.2,200.5,219.9,196.3,226.8,194.1z"/>
		<g class="st2">
			<path class="st43" d="M56.8,191c-4.1,12.8-8.3,32.3-5.4,55.3c1.7,14,4.4,36,21.5,53.6c1.5,1.6,6.3,6.8,14.3,11.2
				c22.7,12.7,56.2,10.9,56.2,10.9s6.6,0.2,15.5-2.2c15.2-4,24.7-12.9,29.8-17.8c19.5-18.5,24.4-41.3,25.8-48.5
				c1.4-7.1,3.8-19.8,0-35.4c-2.1-8.7-5.5-15.4-8.2-20c-7.5-4-18.3-8.9-31.7-12.7c-18.6-5.3-33.3-5.9-46.2-6.3
				c-15.8-0.6-31.8-1-51.7,4.5C68.3,186.1,61.5,188.8,56.8,191z"/>
			<path d="M17.4,180.5v22.7l9.1,3.6c0,0,7.3,3.6,9.1,20c1.3,0.7,2.8,1.3,4.5,1.8c5.1,1.5,9.7,1.3,12.7,0.9
				c-2.1-18.1,2.3-27.5,7.3-32.6c12.1-12.7,39.9-13.6,39.9-13.6s8.9,0,25.4,0c12.2,0.6,22.4,1.7,29.9,2.7
				c22.7,3.1,31.1,6.6,34.5,8.2c6.9,3.1,12.1,6.6,15.4,9.1c0,0,11.8,15.4,11.8,21.8c1.1,1.4,2.1,1.7,2.7,1.8c3,0.4,6.9-3.8,9.1-10.9
				c0.6-2,1.9-5.9,0.9-10.9c-1.1-5.1-4-8.4-5.4-10c-2.3-2.5-5.5-5-17.2-9.1c-12.1-4.2-19-5.4-19-5.4c-23.5-4.7-35.3-7.1-51.7-8.2
				c-13.4-0.9-22.7-0.6-40.8,0c-9.1,0.3-22.8,0.8-40.8,2.7C39.9,176.7,27.3,178.7,17.4,180.5z"/>
			<path class="st44" d="M24.6,195.1c0.1,0.7,1.7,1.9,11.8,2.7c10.2-0.7,12.6-1.8,12.7-2.7c0.1-1.6-7.3-4.2-14.5-3.6
				C29.8,191.8,24.5,193.6,24.6,195.1z"/>
			<path class="st45" d="M53.6,251.3c1.5,6.7,3,13.3,4.5,20c34.5-28.1,69-56.2,103.5-84.3c-6.5-0.8-12.9-1.6-19.4-2.5"/>
		</g>
		<path class="st46" d="M292.1,253.1c0.9,4.1,2.3,8.7,4.5,13.6c0.9,2,1.8,3.8,2.7,5.4c36.9-30.2,73.8-60.5,110.6-90.7
			c-7.6,0-15.1,0-22.7,0C355.6,205.3,323.9,229.2,292.1,253.1z"/>
	</g>
</g>
</svg>
