<?xml version="1.0" encoding="utf-8"?>
<!-- Generator: Adobe Illustrator 21.1.0, SVG Export Plug-In . SVG Version: 6.00 Build 0)  -->
<svg version="1.1" id="Layer_1" xmlns="http://www.w3.org/2000/svg" xmlns:xlink="http://www.w3.org/1999/xlink" x="0px" y="0px"
	 viewBox="0 0 500 500" style="enable-background:new 0 0 500 500;" xml:space="preserve">
<style type="text/css">
	.st0{fill:#F3C153;}
	.st1{display:none;}
	.st2{display:inline;fill:#DD1919;}
	.st3{display:inline;fill:#FFFFFF;}
	.st4{display:inline;fill:#E2DFDE;}
	.st5{display:inline;fill:#7C0D0D;}
	.st6{display:inline;}
	.st7{fill:#DDB99F;}
	.st8{display:inline;fill:#EFCEB6;}
	.st9{fill:#3D3D3D;}
	.st10{fill:#FFFFFF;}
	.st11{fill:#F1BF53;}
	.st12{opacity:0.8;fill:#E0D9CD;enable-background:new    ;}
	.st13{fill:#8D191C;}
	.st14{display:none;opacity:0.36;fill:#0D0607;enable-background:new    ;}
	.st15{fill:#9E1C2B;}
	.st16{fill:#020101;}
	.st17{fill:none;}
	.st18{fill:#4C3837;}
	.st19{fill:#5C4443;}
	.st20{fill:#511B25;}
	.st21{fill:#46151D;}
</style>
<g id="Layer_2_1_">
	<rect class="st0" width="500" height="500"/>
</g>
<g id="Layer_1_2_">
	<g id="Layer_1_1_" class="st1">
		<path class="st2" d="M380.3,212.6L380.3,212.6C380.3,212.6,380.4,212.6,380.3,212.6c0.1-0.1,0.1-0.1,0.1-0.2
			c7.2-11,12-22.9,13.8-35.5c10.2-58.7-55.4-120-146.9-120c-91.5-0.1-157.1,61.3-146.9,120c2,13.6,7.2,26.2,15.4,37.8
			c0.2,0.3,0.4,0.6,0.7,0.9c-0.1,0.1-0.2,0.2-0.3,0.3c43.6,56.4,80.8,115.9,111.3,177.2H266c29.1-58.3,64.3-115,105.4-168.8l0,0l0,0
			C374.6,220.6,377.6,216.7,380.3,212.6C380.3,212.7,380.3,212.7,380.3,212.6z"/>
		<path class="st3" d="M363.9,213.1L363.9,213.1L363.9,213.1c0.1-0.1,0.1-0.1,0.1-0.2c6.3-10.5,10.5-21.9,12.1-34.1
			c8.9-56.3-48.5-115.2-128.7-115.2c-80.2-0.1-137.6,58.8-128.7,115.2c1.7,13,6.3,25.2,13.5,36.3c0.2,0.3,0.4,0.6,0.6,0.9
			c-0.1,0.1-0.2,0.2-0.3,0.3c38.2,54.1,70.8,111.2,97.5,170.1h33.7c25.5-56,56.3-110.4,92.3-162.1l0,0l0,0
			C358.9,220.8,361.5,217,363.9,213.1C363.8,213.2,363.9,213.2,363.9,213.1z"/>
		<path class="st2" d="M337,213.1L337,213.1L337,213.1c0-0.1,0.1-0.1,0.1-0.2c4.9-10.5,8.1-21.9,9.3-34.1
			c6.9-56.3-37.4-115.2-99.1-115.2c-61.7-0.1-105.9,58.8-99.1,115.2c1.3,13,4.9,25.2,10.4,36.3c0.1,0.3,0.3,0.6,0.4,0.9
			c-0.1,0.1-0.2,0.2-0.2,0.3c29.4,54.1,54.5,111.2,75.1,170.1h26c19.6-56,43.4-110.4,71.1-162.1l0,0l0,0
			C333.2,220.8,335.2,217,337,213.1C337,213.2,337,213.2,337,213.1z"/>
		<path class="st3" d="M294.2,211.1L294.2,211.1L294.2,211.1c0-0.1,0-0.1,0-0.2c2.6-10.6,4.2-22.2,4.9-34.5
			c3.6-57-19.5-116.6-51.8-116.5c-32.3-0.1-55.4,59.5-51.8,116.5c0.7,13.2,2.6,25.5,5.4,36.7c0.1,0.3,0.2,0.6,0.2,0.9
			c0,0.1-0.1,0.2-0.1,0.3c15.4,54.8,28.5,112.5,39.2,172.1h13.6c10.3-56.7,22.7-111.6,37.1-164l0,0l0,0
			C292.2,218.8,293.3,215,294.2,211.1C294.2,211.2,294.2,211.1,294.2,211.1z"/>
		<polygon class="st4" points="236,420.6 235.2,420.7 228.4,392.6 229.2,392.5 		"/>
		<polygon class="st4" points="236.3,420.9 235.6,420.7 240.7,392.2 241.5,392.5 		"/>
		<polygon class="st4" points="260.4,420.6 259.6,420.7 252.8,392.6 253.6,392.5 		"/>
		<polygon class="st4" points="260.7,420.9 260,420.7 265.1,392.2 265.9,392.5 		"/>
		<ellipse class="st5" cx="247.2" cy="392.5" rx="19.5" ry="1.9"/>
		<g class="st6">
			<path class="st7" d="M230.1,422.6c0-1.1,0.9-2,2-2h29.8c1.1,0,2,0.9,2,2V445c0,1.1-0.9,2-2,2h-29.8c-1.1,0-2-0.9-2-2L230.1,422.6
				L230.1,422.6z"/>
		</g>
		<path class="st8" d="M263.8,422.5h-33.7c-0.6,0-1-0.5-1-1v-1.8c0-0.5,0.4-1,1-1h33.7c0.6,0,1,0.5,1,1v1.8
			C264.8,422.1,264.3,422.5,263.8,422.5z"/>
	</g>
	<g id="Layer_2">
		<ellipse class="st9" cx="250.6" cy="433.6" rx="150.5" ry="8.5"/>
		<path class="st10" d="M250.6,265.3C250.6,265.2,250.6,265.2,250.6,265.3c0-0.1,0-0.2,0-0.3l0,0c-0.6-6.6-1.9-14.9-5-24.2
			c-3-9.2-6.9-16.6-10.2-22.1c-19,0-38,0-56.9,0c-3.3,5.7-6.7,12.7-9.7,20.9c-3.5,9.5-5.5,18.2-6.6,25.5H162c0,0.2,0,0.3,0,0.5l0,0
			l0,0c0.2,34,20,61.4,44.3,61.4C230.6,326.9,250.4,299.3,250.6,265.3L250.6,265.3z"/>
		<path class="st11" d="M247.8,264.4L247.8,264.4c0-0.1,0-0.2,0-0.3l0,0c-0.5-5.9-1.8-13.4-4.7-21.8c-2.8-8.2-6.4-14.9-9.5-19.9
			c-17.6,0-35.3,0-52.9,0c-3,5.1-6.2,11.4-9,18.8c-3.2,8.5-5.1,16.3-6.2,22.9h-0.1c0,0.1,0,0.3,0,0.4l0,0l0,0
			c0.2,30.5,18.6,55.2,41.2,55.2C229.3,319.7,247.6,295,247.8,264.4L247.8,264.4z"/>
		<path class="st12" d="M247.8,264.4L247.8,264.4c0-0.1,0-0.2,0-0.3l0,0c-0.5-5.9-1.8-13.4-4.7-21.8c-2.8-8.2-6.4-14.9-9.5-19.9
			c-17.6,0-35.3,0-52.9,0c-3,5.1-6.2,11.4-9,18.8c-3.2,8.5-5.1,16.3-6.2,22.9h-0.1c0,0.1,0,0.3,0,0.4l0,0l0,0
			c0.2,30.5,18.6,55.2,41.2,55.2C229.3,319.7,247.6,295,247.8,264.4L247.8,264.4z"/>
		<path class="st13" d="M165.4,271.1c0,0,15.6-6.5,27,0s27.7-1.4,27.7-1.4c3-0.7,25-5.6,29.2,1.8c0,0,4,7.1-16.7,35.8l0,0
			c0,0-9.2,9.6-18.5,12.4c-11.4,3.5-22.6-3.3-26.6-5.7c-11.6-7-16.5-17.5-18.2-21.6C168,285.3,166.7,278.2,165.4,271.1z"/>
		<path class="st10" d="M250.6,266c0-0.1,0-0.2,0-0.3l0,0c-0.6-6.6-1.9-14.9-5-24.2c-3-9.2-6.9-16.6-10.2-22.1c-19,0-38,0-56.9,0
			c-3.3,5.7-6.7,12.7-9.7,20.9c-3.5,9.5-5.5,18.2-6.6,25.5H162c0,0.2,0,0.3,0,0.5l0,0l0,0c0.2,34,20,61.4,44.3,61.4
			C230.6,327.6,250.4,300.1,250.6,266L250.6,266L250.6,266z M247.8,265.2c-0.2,30.6-18.5,55.3-41.2,55.3c-22.6,0-41-24.6-41.2-55.2
			l0,0l0,0c0-0.1,0-0.3,0-0.4h0.1c1.1-6.5,2.9-14.3,6.2-22.9c2.8-7.3,6-13.6,9-18.8c17.6,0,35.3,0,52.9,0c3.1,5,6.7,11.6,9.5,19.9
			c2.9,8.4,4.1,15.9,4.7,21.8l0,0C247.8,265,247.8,265,247.8,265.2C247.8,265.1,247.8,265.2,247.8,265.2L247.8,265.2z"/>
		<path class="st10" d="M200,331.4c1.7,3.5,1.8,6.9,1.7,8.6c-0.7,15.5,4.8,88,4.4,88c-0.3,0,5.5-29.6-0.2-57c0,0-4.4-21.1-0.1-21.7
			c0.1,0,0.5,0,0.9-0.2c0.4-0.3,0.5-0.8,0.5-1.3c0.6-7.5,0.5-15.1-0.3-22.6c-0.1-1.2-0.4-2.6-1.4-3.4c-0.5-0.4-1.2-0.6-1.9-0.7
			c-4.1-0.9-8.4-1.3-12.6-1.2c-5.7,0.2-1.1,2.9,1.1,4.2C195.3,325.9,198.4,328,200,331.4z"/>
		<path class="st10" d="M212.9,332.3c-1.4,3.8-1.1,7.3-0.8,8.7c1.1,7.3,0.5,37-1.5,86.4c-2.5-10.2-4-18.9-5-25.7
			c-1.1-7.5-1.7-13.8-1.7-20.1c-0.1-14.9,2.4-14.1,1.7-25.8c-0.5-9.7,0.4-19.4,0-29.1c0-0.6-0.2-2.4,1-3.5c0.5-0.5,1.1-0.7,1.8-0.9
			c4-1.3,8.2-2.1,12.4-2.4c5.7-0.4,1.4,2.8-0.7,4.3C217,326.4,214.2,328.8,212.9,332.3z"/>
		<path class="st10" d="M208.4,347.7c-2.2,0.5-4.4,1.1-6.6,1.6c0.4,5.3,2.5,31.3,1.2,50.9c-0.3,3.9-0.8,9.7-4.9,14.8
			c-0.8,1-4.9,6.1-11.4,7.6c-2.4,0.6-3,0.2-8.4,1.1c-5,0.9-6.7,1.7-7.6,2.2c-2.3,1.2-5.8,3.8-5.7,5c0.3,2,10,3.4,43.3,2.2
			L208.4,347.7L208.4,347.7z"/>
		<path class="st10" d="M206.6,347.7c1.7,0.4,3.4,0.9,5.1,1.3c-0.1,4.5-1,30.8,0.4,51.2c0.2,3.6,0.7,9.6,4.9,14.8
			c0.8,1,4.9,6.1,11.4,7.6c2.4,0.6,3,0.2,8.4,1.1c5,0.9,6.7,1.7,7.6,2.2c2.3,1.2,5.8,3.8,5.7,5c-0.3,2-10,3.4-43.3,2.2v-85.4
			L206.6,347.7L206.6,347.7z"/>
		<path class="st14" d="M232.6,307.3c4-4.3,9.6-11.6,12.8-21.9c1.1-3.6,1.7-7,2-10c0.6-7.5,0.4-19.5-4.2-33
			c-2.7-8-6.3-14.4-9.5-19.1c-8.9,0-17.7,0-26.6,0.1c-0.3,70.1-0.6,140.3-0.9,210.4c0.4,0,0.8,0,1.2,0c32.6,1.1,42.2-0.2,42.5-2.2
			c0.2-1.9-3.1-5.3-5.7-5c-1.2,0.1-1.9,1-2.2,1.2c-3.1,3-18.2,0.2-26.7-8c-18.2-17.6-2.2-55.9-7-77.3c-0.3-1.4-1.4-5.7,0.3-10.3
			c1.7-4.6,5.3-7.5,8.3-9.3C222.2,317.5,227.4,312.4,232.6,307.3z"/>
		<path class="st15" d="M308.7,71.2c-4.1,0-8.1-0.1-12.2-0.1c0.1,3.7,0.2,7.4,0.3,11.1c-1.9,0.1-3.7,0.1-5.6,0.2
			c0,2.8-0.1,5.5-0.1,8.3c1.8,0,3.7,0.1,5.5,0.1c-1.1,20.9-2.2,41.8-3.3,62.8c-3.5,13-9,20.6-13.6,25.1c-3.2,3.2-6.6,5.6-10.5,11
			c0,0-4.8,6.7-7.3,15.7c-3.4,12-2.8,99.5,2.6,219.5c0.1,0.6,0.7,2.9,2.9,4.6c2.6,2,5.5,1.6,6,1.6c12.2-0.2,24.4-0.4,36.6-0.6
			C309.5,310.7,309.1,191,308.7,71.2z"/>
		<path class="st13" d="M308.6,71.2c4.1,0,8.1-0.1,12.2-0.1c-0.1,3.7-0.2,7.4-0.3,11.1c1.9,0.1,3.7,0.1,5.6,0.2
			c0,2.8,0.1,5.5,0.1,8.3c-1.8,0-3.7,0.1-5.5,0.1c1.1,20.9,2.2,41.8,3.3,62.8c3.5,13,9,20.6,13.6,25.1c3.2,3.2,6.6,5.6,10.5,11
			c0,0,4.8,6.7,7.3,15.7c3.4,12,2.8,99.5-2.6,219.5c-0.1,0.6-0.7,2.9-2.9,4.6c-2.6,2-5.5,1.6-6,1.6c-12.2-0.2-24.4-0.4-36.6-0.6
			C307.7,310.7,308.1,191,308.6,71.2z"/>
		<rect x="295" y="126.9" width="26.1" height="4.2"/>
		<g>
			<path class="st16" d="M355.2,363.5c0.8-33.6,1.5-67.2,2.3-100.8c-8.9,0.2-17.8,0.5-26.7,0.7c-8,0-16,0.1-24,0.1v100.2
				C322.9,363.7,339.1,363.6,355.2,363.5z"/>
			<line class="st17" x1="354.3" y1="263.5" x2="330.8" y2="263.5"/>
			<line class="st17" x1="306.8" y1="263.6" x2="306.8" y2="363.7"/>
			<path class="st16" d="M306.8,263.6c8,0,16-0.1,24-0.1"/>
		</g>
		<g>
			<path class="st18" d="M307.6,363.7c-0.3-33.4-0.5-66.8-0.8-100.3c-2,0-4.1,0-6.2,0c-8.3,0-14.4,0-17.3,0c-5.3,0-13.1,0-23.5,0
				c0.7,33.1,1.5,66.3,2.2,99.4C277.2,363.2,292.4,363.4,307.6,363.7z"/>
			<line class="st17" x1="306.8" y1="263.5" x2="283.2" y2="263.5"/>
		</g>
		<path class="st19" d="M261.4,294"/>
		<path class="st20" d="M308.1,137.6V69.4c-3.9,0.1-7.9,0.1-11.8,0.2c-0.1,3.5-0.2,7.1-0.3,10.6c-2,0.1-4,0.2-5.9,0.3V91v1h5.8
			c-0.5,15.2-1.1,30.3-1.6,45.5C298.8,137.6,303.4,137.6,308.1,137.6z"/>
		<path class="st21" d="M321.1,80.9V69.2c-4.4,0.1-8.7,0.1-13.1,0.2v68.2c5,0,10,0,15,0c-0.4-15.2-0.8-30.3-1.3-45.5h4.5l1-0.2v-9.6
			v-1.4C327.2,80.9,321.1,80.9,321.1,80.9z"/>
	</g>
</g>
</svg>
